<svg xmlns="http://www.w3.org/2000/svg" xmlns:xlink="http://www.w3.org/1999/xlink" width="1270" height="175" viewBox="0 0 1270 175">
    <defs>
        <path id="a" d="M3 0h1264a3 3 0 0 1 3 3v172H0V3a3 3 0 0 1 3-3z"/>
    </defs>
    <g fill="none" fill-rule="evenodd">
        <mask id="b" fill="#fff">
            <use xlink:href="#a"/>
        </mask>
        <use fill="#16BB96" xlink:href="#a"/>
        <g fill="#FFF" fill-rule="nonzero" mask="url(#b)" opacity=".1">
            <path d="M-196.75 103.743l6.45-7.643 26.646 22.516-26.336 26.355-7.069-7.074 18.647-18.659-18.337-15.495zm64.977-64.02l6.45-7.642 26.646 22.516-26.337 26.354-7.068-7.073 18.646-18.659-18.337-15.495zm-14.65 47.506l-18.338-15.496 6.45-7.642 26.646 22.516-26.337 26.354-7.068-7.073 18.647-18.66zm64.976-64.02L-99.785 7.714l6.45-7.642 26.646 22.516-26.337 26.354-7.068-7.073 18.647-18.66zm-112.505 61.528l-18.337 15.495 18.646 18.66-7.068 7.073-26.337-26.354 26.647-22.516 6.449 7.642zm64.976-64.019l-18.337 15.495 18.647 18.66-7.069 7.073-26.336-26.354 26.646-22.517 6.45 7.643zM-180.3 68.223l18.647 18.66-7.069 7.072-26.336-26.354 26.646-22.516 6.45 7.643-18.338 15.495zm64.976-64.02l18.647 18.66-7.069 7.073-26.336-26.354 26.646-22.516 6.45 7.642-18.338 15.496zm-147.4 161.558l6.45-7.642 26.646 22.516-26.337 26.354-7.068-7.073 18.646-18.66-18.337-15.495zm50.326-16.514l-18.338-15.495 6.45-7.643 26.646 22.516-26.337 26.355-7.068-7.074 18.647-18.659zm-47.529-2.491l-18.337 15.495 18.647 18.66-7.069 7.073-26.336-26.355 26.646-22.516 6.45 7.643zm13.651-16.515l18.647 18.66-7.069 7.073-26.336-26.354 26.646-22.516 6.45 7.642-18.338 15.495zm-14.449-58.508l6.45-7.642 26.646 22.516-26.337 26.354-7.068-7.073 18.647-18.66-18.338-15.495zm64.977-64.019L-189.3.072l26.646 22.516-26.336 26.354-7.069-7.073 18.647-18.66-18.337-15.495zM-210.4 55.22l-18.337-15.495 6.45-7.643 26.645 22.516-26.336 26.354-7.069-7.073L-210.4 55.22zm64.976-64.02l-18.337-15.494 6.45-7.643 26.645 22.516-26.336 26.354-7.069-7.073 18.647-18.66zm-112.505 61.529l-18.337 15.495 18.647 18.66-7.069 7.072-26.336-26.354 26.646-22.516 6.45 7.643zm64.977-64.02L-211.29 4.204l18.647 18.659-7.068 7.073-26.337-26.354 26.646-22.516 6.45 7.642zm-51.326 47.505l18.647 18.66-7.068 7.073-26.337-26.354 26.646-22.517 6.45 7.643-18.338 15.495zm64.976-64.019l18.647 18.66-7.068 7.073-26.337-26.355 26.646-22.516 6.45 7.643-18.338 15.495zm-147.4 161.558l6.45-7.643 26.646 22.516-26.337 26.355-7.068-7.074 18.647-18.659-18.337-15.495zm50.326-16.514l-18.337-15.496 6.45-7.642 26.645 22.516-26.336 26.354-7.069-7.073 18.647-18.66zm-47.528-2.492l-18.338 15.495 18.647 18.66-7.068 7.073L-357 129.62l26.646-22.516 6.45 7.642zm13.65-16.514l18.647 18.66-7.068 7.072-26.337-26.354 26.646-22.516 6.45 7.643-18.338 15.495zM.18 103.742l6.45-7.642 26.645 22.516-26.336 26.355-7.069-7.074 18.647-18.659L.18 103.743zm64.976-64.018l6.45-7.643L98.25 54.597 71.914 80.951l-7.069-7.073L83.492 55.22 65.155 39.724zm-14.65 47.505L32.166 71.733l6.45-7.642 26.646 22.516-26.337 26.354-7.068-7.073 18.646-18.66zm64.976-64.02L97.143 7.714l6.45-7.642 26.646 22.516-26.337 26.354-7.068-7.073 18.647-18.66zM2.976 84.737l-18.338 15.495 18.647 18.66-7.068 7.073-26.337-26.354 26.646-22.516 6.45 7.642zm64.976-64.019L49.615 36.213l18.647 18.66-7.069 7.073-26.337-26.354 26.647-22.517 6.449 7.643zM16.627 68.223l18.647 18.66-7.069 7.072L1.87 67.601l26.646-22.516 6.45 7.643-18.338 15.495zm64.976-64.02l18.647 18.66-7.069 7.073L66.845 3.582 93.49-18.934l6.45 7.642L81.602 4.204zm-147.4 161.558l6.45-7.642 26.646 22.516-26.337 26.354-7.069-7.073 18.647-18.66-18.337-15.495zm50.326-16.514l-18.338-15.495 6.45-7.643 26.646 22.516-26.337 26.355-7.068-7.074 18.647-18.659zM-63 146.756l-18.337 15.495 18.646 18.66-7.068 7.073-26.337-26.355 26.647-22.516 6.449 7.643zm13.65-16.515l18.648 18.66-7.069 7.073-26.336-26.354 26.646-22.516 6.45 7.642-18.338 15.495zm-86.421 9.513l6.449-7.643 26.646 22.516-26.336 26.354-7.069-7.073 18.647-18.66-18.337-15.494zm64.976-64.02l6.45-7.642L-37.7 90.608l-26.336 26.354-7.069-7.073 18.647-18.66-18.337-15.494zm-14.65 47.505l-18.338-15.495 6.45-7.642 26.645 22.516-26.336 26.354-7.069-7.073 18.647-18.66zM-20.47 59.22l-18.337-15.495 6.45-7.643L-5.712 58.6l-26.337 26.354-7.068-7.074L-20.47 59.22zm-112.504 61.528l-18.338 15.495 18.647 18.66-7.068 7.073-26.337-26.354 26.646-22.517 6.45 7.643zm64.976-64.02l-18.338 15.496 18.647 18.66-7.068 7.073-26.337-26.355 26.646-22.516 6.45 7.643zm-51.325 47.506l18.646 18.659-7.068 7.073-26.337-26.354 26.646-22.516 6.45 7.642-18.337 15.496zm64.976-64.02l18.647 18.66-7.069 7.073-26.336-26.354 26.646-22.516 6.45 7.642-18.338 15.495zm-147.4 161.558l6.45-7.642 26.645 22.516L-194.988 243l-7.069-7.073 18.647-18.66-18.337-15.495zm50.325-16.514l-18.337-15.495 6.45-7.643 26.646 22.516L-163 210.99l-7.068-7.073 18.646-18.66zm-47.528-2.491l-18.338 15.495 18.647 18.66-7.068 7.072-26.337-26.354 26.646-22.516 6.45 7.643zm13.65-16.515l18.648 18.66-7.069 7.073-26.337-26.354 26.647-22.517 6.45 7.643-18.338 15.495zm246.456-26.498l6.45-7.643 26.646 22.516-26.337 26.354-7.068-7.073 18.647-18.66-18.338-15.494zm64.977-64.02l6.45-7.642 26.645 22.516-26.336 26.354-7.069-7.073 18.647-18.66-18.337-15.494zm-14.65 47.505l-18.338-15.495 6.45-7.642 26.645 22.516-26.336 26.354-7.069-7.073 18.647-18.66zm64.975-64.019l-18.337-15.495 6.45-7.643L191.215 58.6 164.88 84.953l-7.069-7.074 18.647-18.659zM63.953 120.748l-18.337 15.495 18.647 18.66-7.068 7.073-26.337-26.354 26.646-22.517 6.45 7.643zm64.977-64.02l-18.338 15.496 18.647 18.66-7.068 7.073-26.337-26.355 26.646-22.516 6.45 7.643zm-51.326 47.506l18.647 18.659-7.068 7.073-26.337-26.354 26.646-22.516 6.45 7.642-18.338 15.496zm64.977-64.02l18.646 18.66-7.068 7.073-26.337-26.354 26.646-22.516 6.45 7.642-18.337 15.495zM-4.82 201.772l6.449-7.642 26.646 22.516L1.94 243l-7.069-7.073 18.647-18.66-18.337-15.495zm50.325-16.514L27.17 169.763l6.45-7.643 26.645 22.516-26.336 26.354-7.069-7.073 18.647-18.66zm-47.528-2.491l-18.338 15.495 18.647 18.66-7.068 7.072-26.337-26.354 26.646-22.516 6.45 7.643zm13.65-16.515l18.647 18.66-7.068 7.073L-3.13 165.63l26.646-22.517 6.45 7.643-18.337 15.495zm185.479-62.51l6.45-7.642 26.645 22.516-26.336 26.355-7.069-7.074 18.647-18.659-18.337-15.495zm64.976-64.018l6.45-7.643 26.645 22.516-26.336 26.354-7.069-7.073L280.42 55.22l-18.337-15.495zm-14.65 47.505l-18.338-15.496 6.45-7.642 26.645 22.516-26.336 26.354-7.069-7.073 18.647-18.66zm64.975-64.02L294.071 7.714l6.45-7.642 26.646 22.516-26.337 26.354-7.068-7.073 18.646-18.66zM199.904 84.737l-18.338 15.495 18.647 18.66-7.068 7.073-26.337-26.354 26.646-22.516 6.45 7.642zm64.976-64.019l-18.338 15.495 18.647 18.66-7.068 7.073-26.337-26.354 26.646-22.517 6.45 7.643zm-51.325 47.505l18.646 18.66-7.068 7.072-26.337-26.354 26.646-22.516 6.45 7.643-18.337 15.495zm64.976-64.02l18.647 18.66-7.069 7.073-26.336-26.354 26.646-22.516 6.45 7.642L278.53 4.204zm-147.4 161.558l6.45-7.642 26.645 22.516-26.336 26.354-7.069-7.073 18.647-18.66-18.337-15.495zm50.325-16.514l-18.337-15.495 6.45-7.643 26.646 22.516-26.337 26.355-7.068-7.074 18.646-18.659zm-47.528-2.491L115.59 162.25l18.647 18.66-7.068 7.073-26.337-26.355 26.646-22.516 6.45 7.643zm13.65-16.515l18.648 18.66-7.069 7.073-26.336-26.354 26.646-22.516 6.45 7.642-18.338 15.495zm110.506 9.513l6.45-7.643 26.646 22.516-26.337 26.354-7.068-7.073 18.647-18.66-18.338-15.494zm64.976-64.02l6.45-7.642 26.646 22.516-26.337 26.354-7.068-7.073 18.647-18.66-18.338-15.494zm-14.65 47.505l-18.337-15.495 6.449-7.642 26.646 22.516-26.336 26.354-7.069-7.073 18.647-18.66zm64.976-64.019L355.05 43.725l6.45-7.643L388.143 58.6l-26.336 26.354-7.069-7.074 18.647-18.659zm-112.505 61.528l-18.337 15.495 18.647 18.66-7.069 7.073-26.336-26.354 26.646-22.517 6.45 7.643zm64.977-64.02L307.52 72.225l18.647 18.66-7.068 7.073-26.337-26.355 26.646-22.516 6.45 7.643zm-51.326 47.506l18.647 18.659-7.068 7.073-26.337-26.354 26.646-22.516 6.45 7.642-18.338 15.496zm64.976-64.02l18.647 18.66-7.068 7.073-26.337-26.354 26.646-22.516 6.45 7.642-18.338 15.495zm-147.4 161.558l6.45-7.642 26.646 22.516L198.867 243l-7.068-7.073 18.647-18.66-18.338-15.495zm50.326-16.514l-18.337-15.495 6.45-7.643 26.645 22.516-26.336 26.354-7.069-7.073 18.647-18.66zm-47.529-2.491l-18.337 15.495 18.647 18.66-7.068 7.072-26.337-26.354 26.646-22.516 6.45 7.643zm13.651-16.515l18.647 18.66-7.068 7.073-26.337-26.354 26.646-22.517 6.45 7.643-18.338 15.495zm185.478-62.51l6.45-7.642 26.646 22.516-26.337 26.355-7.068-7.074 18.647-18.659-18.338-15.495zm64.977-64.018l6.45-7.643 26.645 22.516-26.336 26.354-7.069-7.073 18.647-18.659-18.337-15.495zm-14.65 47.505l-18.338-15.496 6.45-7.642 26.645 22.516-26.336 26.354-7.069-7.073 18.647-18.66zm64.975-64.02L491 7.714l6.45-7.642 26.645 22.516-26.336 26.354-7.069-7.073 18.647-18.66zM396.831 84.737l-18.337 15.495 18.647 18.66-7.068 7.073-26.337-26.354 26.646-22.516 6.45 7.642zm64.977-64.019L443.47 36.213l18.647 18.66-7.068 7.073-26.337-26.354 26.646-22.517 6.45 7.643zm-51.326 47.505l18.647 18.66-7.068 7.072-26.337-26.354 26.646-22.516 6.45 7.643-18.338 15.495zm64.977-64.02l18.646 18.66-7.068 7.073L460.7 3.582l26.647-22.516 6.449 7.642-18.337 15.496zm-147.4 161.558l6.45-7.642 26.645 22.516-26.336 26.354-7.069-7.073 18.647-18.66-18.337-15.495zm50.325-16.514l-18.337-15.495 6.45-7.643 26.645 22.516-26.336 26.355-7.069-7.074 18.647-18.659zm-47.528-2.491l-18.338 15.495 18.647 18.66-7.068 7.073-26.337-26.355 26.646-22.516 6.45 7.643zm13.65-16.515l18.647 18.66-7.068 7.073-26.337-26.354 26.647-22.516 6.449 7.642-18.337 15.495zm110.506 9.513l6.45-7.643 26.646 22.516-26.337 26.354-7.068-7.073 18.646-18.66-18.337-15.494zm64.976-64.02l6.45-7.642 26.646 22.516-26.337 26.354-7.068-7.073 18.647-18.66-18.338-15.494zm-14.65 47.505L487 107.744l6.45-7.642 26.646 22.516-26.337 26.354-7.068-7.073 18.647-18.66zm64.976-64.019l-18.337-15.495 6.449-7.643L585.072 58.6l-26.336 26.354-7.069-7.074 18.647-18.659zm-112.505 61.528l-18.337 15.495 18.647 18.66-7.069 7.073-26.336-26.354 26.646-22.517 6.45 7.643zm64.976-64.02l-18.337 15.496 18.647 18.66-7.069 7.073-26.336-26.355 26.646-22.516 6.45 7.643zm-51.325 47.506l18.647 18.659-7.069 7.073-26.336-26.354 26.646-22.516 6.45 7.642-18.338 15.496zm64.976-64.02l18.647 18.66-7.068 7.073-26.337-26.354 26.646-22.516 6.45 7.642-18.338 15.495zm-147.4 161.558l6.45-7.642 26.646 22.516L395.795 243l-7.068-7.073 18.647-18.66-18.338-15.495zm50.326-16.514l-18.337-15.495 6.449-7.643 26.646 22.516-26.336 26.354-7.069-7.073 18.647-18.66zm-47.529-2.491l-18.337 15.495 18.647 18.66-7.069 7.072-26.336-26.354 26.646-22.516 6.45 7.643zm13.651-16.515l18.647 18.66-7.068 7.073-26.337-26.354 26.646-22.517 6.45 7.643-18.338 15.495zM.18-84.313l6.45-7.643L33.273-69.44 6.938-43.086l-7.069-7.073 18.647-18.66L.18-84.312zm64.976-64.02l6.45-7.642L98.25-133.46l-26.337 26.354-7.069-7.073 18.647-18.66-18.337-15.495zm-14.65 47.505l-18.338-15.495 6.45-7.643 26.646 22.517-26.337 26.354-7.068-7.073 18.646-18.66zm64.976-64.019l-18.338-15.495 6.45-7.643 26.646 22.516-26.337 26.355-7.068-7.074 18.647-18.659zM2.976-103.319l-18.338 15.495 18.647 18.66-7.068 7.073-26.337-26.355 26.646-22.516 6.45 7.643zm64.976-64.02l-18.337 15.496 18.647 18.66-7.069 7.072-26.337-26.354 26.647-22.516 6.449 7.643zm-51.325 47.506l18.647 18.659-7.069 7.073L1.87-120.455l26.646-22.516 6.45 7.642-18.338 15.496zm64.976-64.02l18.647 18.66-7.069 7.073-26.336-26.354L93.49-206.99l6.45 7.642-18.338 15.495zm-147.4 161.558l6.45-7.642 26.646 22.516-26.337 26.354-7.069-7.073L-47.46-6.8l-18.337-15.495zm50.326-16.514L-33.81-54.304l6.45-7.643L-.713-39.431-27.05-13.077l-7.068-7.073 18.647-18.66zM-63-41.301l-18.337 15.496 18.646 18.659-7.068 7.073-26.337-26.354 26.647-22.516L-63-41.301zm13.65-16.514l18.648 18.66-7.069 7.073-26.336-26.355 26.646-22.516 6.45 7.643-18.338 15.495zm-14.448-58.508l6.45-7.643 26.646 22.517-26.337 26.354-7.068-7.073 18.647-18.66-18.338-15.495zm64.976-64.02l6.45-7.642 26.646 22.516-26.337 26.355-7.068-7.074 18.647-18.659-18.338-15.495zm-14.65 47.506l-18.338-15.496 6.45-7.642L1.286-133.46l-26.337 26.354-7.068-7.073 18.647-18.66zm64.976-64.02l-18.337-15.495 6.45-7.642 26.645 22.516-26.336 26.354-7.069-7.073 18.647-18.66zM-61-135.329l-18.337 15.496 18.647 18.659-7.069 7.073-26.336-26.354 26.646-22.516 6.45 7.642zm64.976-64.019l-18.337 15.495 18.647 18.66-7.069 7.073-26.336-26.354 26.646-22.516 6.45 7.642zm-51.325 47.505l18.647 18.66-7.068 7.072-26.337-26.354 26.646-22.516 6.45 7.643-18.338 15.495zm64.976-64.02l18.647 18.66-7.068 7.073-26.337-26.354L29.514-239l6.45 7.643-18.338 15.495zm-147.4 161.559l6.45-7.643 26.646 22.516-26.337 26.354-7.068-7.073 18.647-18.66-18.338-15.494zm50.326-16.515l-18.337-15.495 6.45-7.643L-64.69-71.44l-26.336 26.354-7.069-7.073 18.647-18.66zm-47.529-2.491l-18.337 15.495 18.647 18.66-7.069 7.073-26.336-26.355 26.646-22.516 6.45 7.643zm13.651-16.514l18.647 18.659-7.068 7.073-26.337-26.354 26.646-22.516 6.45 7.642-18.338 15.496zm310.433 5.51l6.45-7.642 26.645 22.516-26.336 26.354-7.069-7.073 18.647-18.66-18.337-15.494zm64.976-64.019l6.45-7.642 26.645 22.516-26.336 26.354-7.069-7.073 18.647-18.66-18.337-15.495zm-14.65 47.505l-18.338-15.495 6.45-7.643 26.645 22.517-26.336 26.354-7.069-7.073 18.647-18.66zm64.975-64.019l-18.337-15.495 6.45-7.643 26.646 22.516-26.337 26.355-7.068-7.074 18.646-18.659zm-112.504 61.528l-18.338 15.495 18.647 18.66-7.068 7.073-26.337-26.355 26.646-22.516 6.45 7.643zm64.976-64.02l-18.338 15.496 18.647 18.66-7.068 7.072-26.337-26.354 26.646-22.516 6.45 7.643zm-51.325 47.506l18.646 18.659-7.068 7.073-26.337-26.354 26.646-22.516 6.45 7.642-18.337 15.496zm64.976-64.02l18.647 18.66-7.069 7.073-26.336-26.354 26.646-22.516 6.45 7.642-18.338 15.495zM131.13-22.295l6.45-7.642 26.645 22.516-26.336 26.354-7.069-7.073L149.468-6.8l-18.337-15.495zm50.325-16.514L163.12-54.304l6.45-7.643 26.646 22.516-26.337 26.354-7.068-7.073 18.646-18.66zm-47.528-2.492L115.59-25.805l18.647 18.659-7.068 7.073-26.337-26.354 26.646-22.516 6.45 7.642zm13.65-16.514l18.648 18.66-7.069 7.073-26.336-26.355 26.646-22.516 6.45 7.643-18.338 15.495zm-86.422 9.512l6.45-7.642L94.252-33.43 67.915-7.075l-7.068-7.073 18.647-18.66-18.338-15.495zm64.977-64.019l6.45-7.642 26.645 22.516-26.336 26.354-7.069-7.073 18.647-18.66-18.337-15.495zm-14.65 47.505L93.144-80.312l6.45-7.643 26.645 22.516-26.336 26.355-7.069-7.074 18.647-18.659zm64.975-64.02l-18.337-15.494 6.45-7.643 26.645 22.516-26.336 26.354-7.069-7.073 18.647-18.66zM63.953-67.307L45.616-51.813l18.647 18.66-7.068 7.072-26.337-26.354L57.504-74.95l6.45 7.643zm64.977-64.02l-18.338 15.496 18.647 18.66-7.068 7.072-26.337-26.354 26.646-22.516 6.45 7.643zM77.604-83.822l18.647 18.66-7.068 7.073-26.337-26.354 26.646-22.516 6.45 7.642-18.338 15.495zm64.977-64.019l18.646 18.66-7.068 7.073-26.337-26.354 26.646-22.517 6.45 7.643-18.337 15.495zM-4.82 13.716L1.63 6.073 28.276 28.59 1.94 54.944-5.13 47.87l18.647-18.66-18.337-15.495zM45.506-2.798L27.17-18.294l6.45-7.642L60.263-3.42 33.928 22.934l-7.069-7.073L45.506-2.8zM-2.022-5.29L-20.36 10.205l18.647 18.66-7.068 7.073-26.337-26.354 26.646-22.516 6.45 7.642zm13.65-16.514l18.647 18.66-7.068 7.072L-3.13-22.426l26.646-22.516 6.45 7.643-18.337 15.495zm246.456-26.499l6.45-7.642L291.18-33.43 264.843-7.075l-7.068-7.073 18.647-18.66-18.338-15.495zm64.976-64.019l6.45-7.642 26.646 22.516-26.337 26.354-7.068-7.073 18.647-18.66-18.338-15.495zm-14.65 47.505l-18.337-15.495 6.449-7.643 26.646 22.516-26.336 26.355-7.069-7.074 18.647-18.659zm64.976-64.02L355.05-144.33l6.45-7.643 26.645 22.516-26.336 26.354-7.069-7.073 18.647-18.66zM260.881-67.307l-18.337 15.495 18.647 18.66-7.069 7.072-26.336-26.354 26.646-22.516 6.45 7.643zm64.977-64.02l-18.338 15.496 18.647 18.66-7.068 7.072-26.337-26.354 26.646-22.516 6.45 7.643zm-51.326 47.505l18.647 18.66-7.068 7.073-26.337-26.354 26.646-22.516 6.45 7.642-18.338 15.495zm64.976-64.019l18.647 18.66-7.068 7.073-26.337-26.354 26.646-22.517 6.45 7.643-18.338 15.495zm-147.4 161.558l6.45-7.643 26.646 22.517-26.337 26.354-7.068-7.073 18.647-18.66-18.338-15.495zm50.326-16.514l-18.337-15.496 6.45-7.642L257.191-3.42l-26.336 26.354-7.069-7.073L242.434-2.8zM194.905-5.29l-18.337 15.495 18.647 18.66-7.068 7.073L161.81 9.584l26.646-22.516 6.45 7.642zm13.651-16.514l18.647 18.66-7.068 7.072-26.337-26.354 26.646-22.516 6.45 7.643-18.338 15.495zm185.478-62.51l6.45-7.642L427.13-69.44l-26.337 26.354-7.068-7.073 18.647-18.66-18.338-15.494zm64.977-64.019l6.45-7.642 26.645 22.516-26.336 26.354-7.069-7.073 18.647-18.66-18.337-15.495zm-14.65 47.505l-18.338-15.495 6.45-7.643 26.645 22.517-26.336 26.354-7.069-7.073 18.647-18.66zm64.975-64.019L491-180.342l6.45-7.643 26.645 22.516-26.336 26.355-7.069-7.074 18.647-18.659zm-112.505 61.528l-18.337 15.495 18.647 18.66-7.068 7.073-26.337-26.355 26.646-22.516 6.45 7.643zm64.977-64.02l-18.338 15.496 18.647 18.66-7.068 7.072-26.337-26.354 26.646-22.516 6.45 7.643zm-51.326 47.506l18.647 18.659-7.068 7.073-26.337-26.354 26.646-22.516 6.45 7.642-18.338 15.496zm64.977-64.02l18.646 18.66-7.068 7.073-26.337-26.354 26.647-22.516 6.449 7.642-18.337 15.495zm-147.4 161.558l6.45-7.642 26.645 22.516-26.336 26.354-7.069-7.073L346.396-6.8l-18.337-15.495zm50.325-16.514l-18.337-15.495 6.45-7.643 26.645 22.516-26.336 26.354-7.069-7.073 18.647-18.66zm-47.528-2.492l-18.338 15.496 18.647 18.659-7.068 7.073-26.337-26.354 26.646-22.516 6.45 7.642zm13.65-16.514l18.647 18.66-7.068 7.073-26.337-26.355 26.647-22.516 6.449 7.643-18.337 15.495zm110.506 9.512l6.45-7.642 26.646 22.516L461.77-7.075l-7.068-7.073 18.646-18.66-18.337-15.495zm64.976-64.019l6.45-7.642 26.646 22.516-26.337 26.354-7.068-7.073 18.647-18.66-18.338-15.495zm-14.65 47.505L487-80.312l6.45-7.643 26.646 22.516-26.337 26.355-7.068-7.074 18.647-18.659zm64.976-64.02l-18.337-15.494 6.449-7.643 26.646 22.516-26.336 26.354-7.069-7.073 18.647-18.66zM457.809-67.307l-18.337 15.495 18.647 18.66-7.069 7.072-26.336-26.354L451.36-74.95l6.45 7.643zm64.976-64.02l-18.337 15.496 18.647 18.66-7.069 7.072-26.336-26.354 26.646-22.516 6.45 7.643zM471.46-83.822l18.647 18.66-7.069 7.073-26.336-26.354 26.646-22.516 6.45 7.642-18.338 15.495zm64.976-64.019l18.647 18.66-7.068 7.073-26.337-26.354 26.646-22.517 6.45 7.643-18.338 15.495zm-147.4 161.558l6.45-7.643 26.646 22.517-26.337 26.354-7.068-7.073 18.647-18.66-18.338-15.495zm50.326-16.514l-18.337-15.496 6.449-7.642L454.12-3.42l-26.336 26.354-7.069-7.073L439.362-2.8zM391.833-5.29l-18.337 15.495 18.647 18.66-7.069 7.073-26.336-26.354 26.646-22.516 6.45 7.642zm13.651-16.514l18.647 18.66-7.068 7.072-26.337-26.354 26.646-22.516 6.45 7.643-18.338 15.495zm185.478-62.51l6.45-7.642 26.646 22.516-26.337 26.354-7.068-7.073 18.647-18.66-18.338-15.494zm64.976-64.019l6.45-7.642 26.646 22.516-26.337 26.354-7.068-7.073 18.647-18.66-18.338-15.495zm-14.65 47.505l-18.337-15.495 6.449-7.643 26.646 22.517-26.336 26.354-7.069-7.073 18.647-18.66zm64.976-64.019l-18.337-15.495 6.45-7.643 26.645 22.516-26.336 26.355-7.069-7.074 18.647-18.659zM593.76-103.319l-18.337 15.495 18.647 18.66L587-62.092l-26.336-26.355 26.646-22.516 6.45 7.643zm64.977-64.02l-18.338 15.496 18.647 18.66-7.068 7.072-26.337-26.354 26.646-22.516 6.45 7.643zm-51.326 47.506l18.647 18.659-7.068 7.073-26.337-26.354 26.646-22.516 6.45 7.642-18.338 15.496zm64.976-64.02l18.647 18.66-7.068 7.073-26.337-26.354 26.646-22.516 6.45 7.642-18.338 15.495zm-147.4 161.558l6.45-7.642 26.646 22.516-26.337 26.354-7.068-7.073L543.324-6.8l-18.338-15.495zm50.326-16.514l-18.337-15.495 6.45-7.643 26.645 22.516-26.336 26.354-7.069-7.073 18.647-18.66zm-47.528-2.492l-18.338 15.496 18.647 18.659-7.068 7.073-26.337-26.354 26.646-22.516 6.45 7.642zm13.65-16.514l18.647 18.66-7.068 7.073-26.337-26.355 26.646-22.516 6.45 7.643-18.338 15.495zm110.506 9.512l6.45-7.642 26.646 22.516-26.337 26.354-7.069-7.073 18.647-18.66-18.337-15.495zm64.976-64.019l6.45-7.642 26.646 22.516-26.337 26.354-7.068-7.073 18.647-18.66-18.338-15.495zm-14.65 47.505l-18.338-15.495 6.45-7.643 26.646 22.516-26.337 26.355-7.068-7.074 18.647-18.659zm64.976-64.02l-18.338-15.494 6.45-7.643L782-129.458l-26.337 26.354-7.068-7.073 18.647-18.66zM654.737-67.307L636.4-51.813l18.647 18.66-7.069 7.072-26.337-26.354 26.647-22.516 6.449 7.643zm64.976-64.02l-18.337 15.496 18.647 18.66-7.069 7.072-26.336-26.354 26.646-22.516 6.45 7.643zm-51.325 47.505l18.647 18.66-7.069 7.073-26.336-26.354 26.646-22.516 6.45 7.642-18.338 15.495zm64.976-64.019l18.647 18.66-7.068 7.073-26.337-26.354 26.646-22.517 6.45 7.643-18.338 15.495zm-147.4 161.558l6.45-7.643L619.06 28.59l-26.337 26.354-7.068-7.073 18.647-18.66-18.338-15.495zM636.29-2.798l-18.338-15.496 6.45-7.642L651.048-3.42l-26.337 26.354-7.068-7.073L636.29-2.8zM588.76-5.29l-18.337 15.495 18.647 18.66-7.069 7.073-26.336-26.354 26.646-22.516 6.45 7.642zm13.651-16.514l18.647 18.66-7.069 7.072-26.336-26.354L614.3-44.942l6.45 7.643-18.338 15.495zM648.25 141.743l6.45-7.643 26.646 22.516-26.336 26.355-7.069-7.074 18.647-18.659-18.337-15.495zm64.977-64.02l6.45-7.642 26.646 22.516-26.337 26.354-7.068-7.073 18.646-18.659-18.337-15.495zm-14.65 47.506l-18.338-15.496 6.45-7.642 26.646 22.516-26.337 26.354-7.068-7.073 18.647-18.66zm64.976-64.02l-18.338-15.495 6.45-7.642 26.646 22.516-26.337 26.354-7.068-7.073 18.647-18.66zm-112.505 61.528l-18.337 15.495 18.646 18.66-7.068 7.073-26.337-26.354 26.647-22.516 6.449 7.642zm64.976-64.019l-18.337 15.495 18.647 18.66-7.069 7.073-26.336-26.354 26.646-22.517 6.45 7.643zM664.7 106.223l18.647 18.66-7.069 7.072-26.336-26.354 26.646-22.516 6.45 7.643-18.338 15.495zm64.976-64.02l18.647 18.66-7.069 7.073-26.336-26.354 26.646-22.516 6.45 7.642-18.338 15.496zm-147.4 161.558l6.45-7.642 26.646 22.516-26.337 26.354-7.068-7.073 18.646-18.66-18.337-15.495zm50.326-16.514l-18.338-15.495 6.45-7.643 26.646 22.516-26.337 26.355-7.068-7.074 18.647-18.659zm-47.529-2.491l-18.337 15.495 18.647 18.66-7.069 7.073-26.336-26.355 26.646-22.516 6.45 7.643zm13.651-16.515l18.647 18.66-7.069 7.073-26.336-26.354 26.646-22.516 6.45 7.642-18.338 15.495zm-14.449-58.508l6.45-7.642 26.646 22.516-26.337 26.354-7.068-7.073 18.647-18.66-18.338-15.495zm64.977-64.019l6.449-7.642 26.646 22.516-26.336 26.354-7.069-7.073 18.647-18.66-18.337-15.495zM634.6 93.22l-18.337-15.495 6.45-7.643 26.645 22.516-26.336 26.354-7.069-7.073L634.6 93.22zm64.976-64.02L681.24 13.706l6.45-7.643 26.645 22.516-26.336 26.354-7.069-7.073 18.647-18.66zM587.071 90.729l-18.337 15.495 18.647 18.66-7.069 7.072-26.336-26.354 26.646-22.516 6.45 7.643zm64.977-64.02L633.71 42.204l18.647 18.659-7.068 7.073-26.337-26.354 26.646-22.516 6.45 7.642zm-51.326 47.505l18.647 18.66-7.068 7.073-26.337-26.354 26.646-22.517 6.45 7.643-18.338 15.495zm64.976-64.019l18.647 18.66-7.068 7.073L650.94 9.572l26.646-22.516 6.45 7.643-18.338 15.495zm-147.4 161.558l6.45-7.643 26.646 22.516-26.337 26.355-7.068-7.074 18.647-18.659-18.337-15.495zm50.326-16.514l-18.337-15.496 6.45-7.642 26.645 22.516-26.336 26.354-7.069-7.073 18.647-18.66zm-47.528-2.492l-18.338 15.495 18.647 18.66-7.068 7.073L488 167.62l26.646-22.516 6.45 7.642zm13.65-16.514l18.647 18.66-7.068 7.072-26.337-26.354 26.646-22.516 6.45 7.643-18.338 15.495zm310.433 5.51l6.45-7.642 26.645 22.516-26.336 26.355-7.069-7.074 18.647-18.659-18.337-15.495zm64.976-64.018l6.45-7.643 26.646 22.516-26.337 26.354-7.069-7.073 18.647-18.659-18.337-15.495zm-14.65 47.505l-18.338-15.496 6.45-7.642 26.646 22.516-26.337 26.354-7.068-7.073 18.646-18.66zm64.976-64.02l-18.338-15.495 6.45-7.642 26.646 22.516-26.337 26.354-7.068-7.073 18.647-18.66zm-112.505 61.528l-18.338 15.495 18.647 18.66-7.068 7.073-26.337-26.354 26.646-22.516 6.45 7.642zm64.976-64.019l-18.337 15.495 18.647 18.66-7.069 7.073-26.337-26.354 26.647-22.517 6.449 7.643zm-51.325 47.505l18.647 18.66-7.069 7.072-26.336-26.354 26.646-22.516 6.45 7.643-18.338 15.495zm64.976-64.02l18.647 18.66-7.069 7.073-26.336-26.354 26.646-22.516 6.45 7.642-18.338 15.496zm-147.4 161.558l6.45-7.642 26.646 22.516-26.337 26.354-7.069-7.073 18.647-18.66-18.337-15.495zm50.326-16.514l-18.338-15.495 6.45-7.643 26.646 22.516-26.337 26.355-7.068-7.074 18.647-18.659zM782 184.756l-18.337 15.495 18.647 18.66-7.069 7.073-26.337-26.355 26.647-22.516 6.449 7.643zm13.65-16.515l18.648 18.66-7.069 7.073-26.336-26.354 26.646-22.516 6.45 7.642-18.338 15.495zm-86.421 9.513l6.449-7.643 26.646 22.516-26.336 26.354-7.069-7.073 18.647-18.66-18.337-15.494zm64.976-64.02l6.45-7.642 26.645 22.516-26.336 26.354-7.069-7.073 18.647-18.66-18.337-15.494zm-14.65 47.505l-18.338-15.495 6.45-7.642 26.645 22.516-26.336 26.354-7.069-7.073 18.647-18.66zM824.53 97.22l-18.337-15.495 6.45-7.643L839.288 96.6l-26.337 26.354-7.068-7.074L824.53 97.22zm-112.504 61.528l-18.338 15.495 18.647 18.66-7.068 7.073-26.337-26.354 26.646-22.517 6.45 7.643zm64.976-64.02l-18.338 15.496 18.647 18.66-7.068 7.073-26.337-26.355 26.646-22.516 6.45 7.643zm-51.325 47.506l18.646 18.659-7.068 7.073-26.337-26.354 26.646-22.516 6.45 7.642-18.337 15.496zm64.976-64.02l18.647 18.66-7.069 7.073-26.336-26.354 26.646-22.516 6.45 7.642-18.338 15.495zm-147.4 161.558l6.45-7.642 26.645 22.516L650.012 281l-7.069-7.073 18.647-18.66-18.337-15.495zm50.325-16.514l-18.337-15.495 6.45-7.643 26.646 22.516L682 248.99l-7.068-7.073 18.646-18.66zm-47.528-2.491l-18.338 15.495 18.647 18.66-7.068 7.072-26.337-26.354 26.646-22.516 6.45 7.643zm13.65-16.515l18.648 18.66-7.069 7.073-26.337-26.354 26.647-22.517 6.45 7.643-18.338 15.495zm246.456-26.498l6.45-7.643 26.646 22.516-26.337 26.354-7.068-7.073 18.647-18.66-18.338-15.494zm64.977-64.02l6.449-7.642 26.646 22.516-26.336 26.354-7.069-7.073 18.647-18.66-18.337-15.494zm-14.65 47.505l-18.338-15.495 6.45-7.642 26.645 22.516-26.336 26.354-7.069-7.073 18.647-18.66zm64.975-64.019l-18.337-15.495 6.45-7.643 26.645 22.517-26.336 26.354-7.069-7.074 18.647-18.659zm-112.505 61.528l-18.337 15.495 18.647 18.66-7.068 7.073-26.337-26.354 26.646-22.517 6.45 7.643zm64.977-64.02l-18.338 15.496 18.647 18.66-7.068 7.073-26.337-26.355 26.646-22.516 6.45 7.643zm-51.326 47.506l18.647 18.659-7.068 7.073-26.337-26.354 26.646-22.516 6.45 7.642-18.338 15.496zm64.977-64.02l18.646 18.66-7.068 7.073-26.337-26.354 26.646-22.516 6.45 7.642-18.337 15.495zm-147.4 161.558l6.449-7.642 26.646 22.516L846.94 281l-7.069-7.073 18.647-18.66-18.337-15.495zm50.325-16.514l-18.337-15.495 6.45-7.643 26.645 22.516-26.336 26.354-7.069-7.073 18.647-18.66zm-47.528-2.491l-18.338 15.495 18.647 18.66-7.068 7.072-26.337-26.354 26.646-22.516 6.45 7.643zm13.65-16.515l18.647 18.66-7.068 7.073-26.337-26.354 26.646-22.517 6.45 7.643-18.337 15.495zm185.479-62.51l6.449-7.642 26.646 22.516-26.336 26.355-7.069-7.074 18.647-18.659-18.337-15.495zm64.976-64.018l6.45-7.643 26.645 22.516-26.336 26.354-7.069-7.073 18.647-18.659-18.337-15.495zm-14.65 47.505l-18.338-15.496 6.45-7.642 26.645 22.516-26.336 26.354-7.069-7.073 18.647-18.66zm64.975-64.02l-18.337-15.495 6.45-7.642 26.646 22.516-26.337 26.354-7.068-7.073 18.646-18.66zm-112.504 61.528l-18.338 15.495 18.647 18.66-7.068 7.073-26.337-26.354 26.646-22.516 6.45 7.642zm64.976-64.019l-18.338 15.495 18.647 18.66-7.068 7.073-26.337-26.354 26.646-22.517 6.45 7.643zm-51.325 47.505l18.646 18.66-7.068 7.072-26.337-26.354 26.646-22.516 6.45 7.643-18.337 15.495zm64.976-64.02l18.647 18.66-7.069 7.073-26.336-26.354 26.646-22.516 6.45 7.642-18.338 15.496zm-147.4 161.558l6.45-7.642 26.645 22.516-26.336 26.354-7.069-7.073 18.647-18.66-18.337-15.495zm50.325-16.514l-18.337-15.495 6.45-7.643 26.646 22.516-26.337 26.355-7.068-7.074 18.646-18.659zm-47.528-2.491L960.59 200.25l18.647 18.66-7.068 7.073-26.337-26.355 26.646-22.516 6.45 7.643zm13.65-16.515l18.648 18.66-7.069 7.073-26.336-26.354 26.646-22.516 6.45 7.642-18.338 15.495zm110.506 9.513l6.45-7.643 26.646 22.516-26.337 26.354-7.068-7.073 18.647-18.66-18.338-15.494zm64.976-64.02l6.45-7.642 26.646 22.516-26.337 26.354-7.068-7.073 18.647-18.66-18.338-15.494zm-14.65 47.505l-18.337-15.495 6.449-7.642 26.646 22.516-26.336 26.354-7.069-7.073 18.647-18.66zm64.976-64.019l-18.337-15.495 6.45-7.643 26.645 22.517-26.336 26.354-7.069-7.074 18.647-18.659zm-112.505 61.528l-18.337 15.495 18.647 18.66-7.069 7.073-26.336-26.354 26.646-22.517 6.45 7.643zm64.976-64.02l-18.337 15.496 18.647 18.66-7.068 7.073-26.337-26.355 26.646-22.516 6.45 7.643zm-51.325 47.506l18.647 18.659-7.068 7.073-26.337-26.354 26.646-22.516 6.45 7.642-18.338 15.496zm64.976-64.02l18.647 18.66-7.068 7.073-26.337-26.354 26.646-22.516 6.45 7.642-18.338 15.495zm-147.4 161.558l6.45-7.642 26.646 22.516L1043.867 281l-7.068-7.073 18.647-18.66-18.338-15.495zm50.326-16.514l-18.337-15.495 6.45-7.643 26.645 22.516-26.336 26.354-7.069-7.073 18.647-18.66zm-47.529-2.491l-18.337 15.495 18.647 18.66-7.068 7.072-26.337-26.354 26.646-22.516 6.45 7.643zm13.651-16.515l18.647 18.66-7.068 7.073-26.337-26.354 26.646-22.517 6.45 7.643-18.338 15.495zm185.478-62.51l6.45-7.642 26.646 22.516-26.337 26.355-7.068-7.074 18.647-18.659-18.338-15.495zm64.977-64.018l6.45-7.643 26.645 22.516-26.336 26.354-7.069-7.073 18.647-18.659-18.337-15.495zm-14.65 47.505l-18.338-15.496 6.45-7.642 26.645 22.516-26.336 26.354-7.069-7.073 18.647-18.66zm64.975-64.02L1336 45.714l6.45-7.642 26.645 22.516-26.336 26.354-7.069-7.073 18.647-18.66zm-112.505 61.528l-18.337 15.495 18.647 18.66-7.068 7.073-26.337-26.354 26.646-22.516 6.45 7.642zm64.977-64.019l-18.338 15.495 18.647 18.66-7.068 7.073-26.337-26.354 26.646-22.517 6.45 7.643zm-51.326 47.505l18.647 18.66-7.068 7.072-26.337-26.354 26.646-22.516 6.45 7.643-18.338 15.495zm64.977-64.02l18.646 18.66-7.068 7.073-26.337-26.354 26.647-22.516 6.449 7.642-18.337 15.496zm-147.4 161.558l6.45-7.642 26.645 22.516-26.336 26.354-7.069-7.073 18.647-18.66-18.337-15.495zm50.325-16.514l-18.337-15.495 6.45-7.643 26.645 22.516-26.336 26.355-7.069-7.074 18.647-18.659zm-47.528-2.491l-18.338 15.495 18.647 18.66-7.068 7.073-26.337-26.355 26.646-22.516 6.45 7.643zm13.65-16.515l18.647 18.66-7.068 7.073-26.337-26.354 26.647-22.516 6.449 7.642-18.337 15.495zm110.506 9.513l6.45-7.643 26.646 22.516-26.337 26.354-7.068-7.073 18.647-18.66-18.338-15.494zm64.976-64.02l6.45-7.642 26.646 22.516-26.337 26.354-7.068-7.073 18.647-18.66-18.338-15.494zm-14.65 47.505L1332 145.744l6.45-7.642 26.646 22.516-26.337 26.354-7.068-7.073 18.647-18.66zm64.976-64.019l-18.337-15.495 6.449-7.643 26.646 22.517-26.336 26.354-7.069-7.074 18.647-18.659zm-112.505 61.528l-18.337 15.495 18.647 18.66-7.069 7.073-26.336-26.354 26.646-22.517 6.45 7.643zm64.976-64.02l-18.337 15.496 18.647 18.66-7.069 7.073-26.336-26.355 26.646-22.516 6.45 7.643zm-51.325 47.506l18.647 18.659-7.069 7.073-26.336-26.354 26.646-22.516 6.45 7.642-18.338 15.496zm64.976-64.02l18.647 18.66-7.068 7.073-26.337-26.354 26.646-22.516 6.45 7.642-18.338 15.495zm-147.4 161.558l6.45-7.642 26.646 22.516L1240.795 281l-7.068-7.073 18.647-18.66-18.338-15.495zm50.326-16.514l-18.337-15.495 6.449-7.643 26.646 22.516-26.336 26.354-7.069-7.073 18.647-18.66zm-47.529-2.491l-18.337 15.495 18.647 18.66-7.069 7.072-26.336-26.354 26.646-22.516 6.45 7.643zm13.651-16.515l18.647 18.66-7.068 7.073-26.337-26.354 26.646-22.517 6.45 7.643-18.338 15.495zM845.18-46.313l6.45-7.643 26.645 22.516-26.336 26.354-7.069-7.073 18.647-18.66-18.337-15.494zm64.976-64.02l6.45-7.642L943.25-95.46l-26.337 26.354-7.069-7.073 18.647-18.66-18.337-15.495zm-14.65 47.505l-18.338-15.495 6.45-7.643 26.646 22.517-26.337 26.354-7.068-7.073 18.646-18.66zm64.976-64.019l-18.338-15.495 6.45-7.643 26.646 22.516-26.337 26.355-7.068-7.074 18.647-18.659zM847.976-65.319l-18.338 15.495 18.647 18.66-7.068 7.073-26.337-26.355 26.646-22.516 6.45 7.643zm64.976-64.02l-18.337 15.496 18.647 18.66-7.069 7.072-26.337-26.354 26.647-22.516 6.449 7.643zm-51.325 47.506l18.647 18.659-7.069 7.073-26.336-26.354 26.646-22.516 6.45 7.642-18.338 15.496zm64.976-64.02l18.647 18.66-7.069 7.073-26.336-26.354 26.646-22.516 6.45 7.642-18.338 15.495zm-147.4 161.558l6.45-7.642 26.646 22.516-26.337 26.354-7.069-7.073L797.54 31.2l-18.337-15.495zM829.529-.809L811.19-16.304l6.45-7.643 26.646 22.516-26.337 26.354-7.068-7.073L829.529-.81zM782-3.301l-18.337 15.496 18.647 18.659-7.069 7.073-26.337-26.354 26.647-22.516L782-3.301zm13.65-16.514l18.648 18.66-7.069 7.073-26.336-26.355 26.646-22.516 6.45 7.643-18.338 15.495zm-14.448-58.508l6.45-7.643 26.646 22.517-26.337 26.354-7.068-7.073 18.647-18.66-18.338-15.495zm64.976-64.02l6.45-7.642 26.646 22.516-26.337 26.355-7.068-7.074 18.647-18.659-18.338-15.495zm-14.65 47.506l-18.338-15.496 6.45-7.642 26.646 22.516-26.337 26.354-7.068-7.073 18.647-18.66zm64.976-64.02l-18.337-15.495 6.45-7.642 26.645 22.516-26.336 26.354-7.069-7.073 18.647-18.66zM784-97.329l-18.337 15.496 18.647 18.659-7.069 7.073-26.336-26.354 26.646-22.516L784-97.33zm64.976-64.019l-18.337 15.495 18.647 18.66-7.069 7.073-26.336-26.354 26.646-22.516 6.45 7.642zm-51.325 47.505l18.647 18.66-7.068 7.072-26.337-26.354 26.646-22.516 6.45 7.643-18.338 15.495zm64.976-64.02l18.647 18.66-7.068 7.073-26.337-26.354L874.514-201l6.45 7.643-18.338 15.495zm-147.4 161.559l6.45-7.643 26.646 22.516-26.337 26.354-7.068-7.073L733.564-.81l-18.338-15.494zm50.326-16.515l-18.337-15.495 6.45-7.643L780.31-33.44 753.974-7.086l-7.069-7.073 18.647-18.66zm-47.529-2.491l-18.337 15.495 18.647 18.66-7.069 7.073-26.336-26.355 26.646-22.516 6.45 7.643zm13.651-16.514l18.647 18.659-7.068 7.073-26.337-26.354 26.646-22.516 6.45 7.642-18.338 15.496zm310.433 5.51l6.449-7.642 26.646 22.516-26.336 26.354-7.069-7.073 18.647-18.66-18.337-15.494zm64.976-64.019l6.45-7.642 26.645 22.516-26.336 26.354-7.069-7.073 18.647-18.66-18.337-15.495zm-14.65 47.505l-18.338-15.495 6.45-7.643 26.645 22.517-26.336 26.354-7.069-7.073 18.647-18.66zm64.975-64.019l-18.337-15.495 6.45-7.643 26.646 22.516-26.337 26.355-7.068-7.074 18.646-18.659zm-112.504 61.528l-18.338 15.495 18.647 18.66-7.068 7.073-26.337-26.355 26.646-22.516 6.45 7.643zm64.976-64.02l-18.338 15.496 18.647 18.66-7.068 7.072-26.337-26.354 26.646-22.516 6.45 7.643zm-51.325 47.506l18.646 18.659-7.068 7.073-26.337-26.354 26.646-22.516 6.45 7.642-18.337 15.496zm64.976-64.02l18.647 18.66-7.069 7.073-26.336-26.354 26.646-22.516 6.45 7.642-18.338 15.495zM976.13 15.705l6.45-7.642 26.645 22.516-26.336 26.354-7.069-7.073 18.647-18.66-18.337-15.495zm50.325-16.514l-18.337-15.495 6.45-7.643 26.646 22.516-26.337 26.354-7.068-7.073 18.646-18.66zm-47.528-2.492L960.59 12.195l18.647 18.659-7.068 7.073-26.337-26.354 26.646-22.516 6.45 7.642zm13.65-16.514l18.648 18.66-7.069 7.073-26.336-26.355 26.646-22.516 6.45 7.643-18.338 15.495zm-86.422 9.512l6.45-7.642L939.252 4.57l-26.337 26.354-7.068-7.073 18.647-18.66-18.338-15.495zm64.977-64.019l6.449-7.642 26.646 22.516-26.336 26.354-7.069-7.073 18.647-18.66-18.337-15.495zm-14.65 47.505l-18.338-15.495 6.45-7.643 26.645 22.516-26.336 26.355-7.069-7.074 18.647-18.659zm64.975-64.02l-18.337-15.494 6.45-7.643 26.645 22.516-26.336 26.354-7.069-7.073 18.647-18.66zM908.953-29.307l-18.337 15.495 18.647 18.66-7.068 7.072-26.337-26.354 26.646-22.516 6.45 7.643zm64.977-64.02l-18.338 15.496 18.647 18.66-7.068 7.072-26.337-26.354 26.646-22.516 6.45 7.643zm-51.326 47.505l18.647 18.66-7.068 7.073-26.337-26.354 26.646-22.516 6.45 7.642-18.338 15.495zm64.977-64.019l18.646 18.66-7.068 7.073-26.337-26.354 26.646-22.517 6.45 7.643-18.337 15.495zM840.18 51.716l6.449-7.643 26.646 22.517-26.336 26.354-7.069-7.073 18.647-18.66-18.337-15.495zm50.325-16.514L872.17 19.706l6.45-7.642 26.645 22.516-26.336 26.354-7.069-7.073 18.647-18.66zm-47.528-2.492L824.64 48.205l18.647 18.66-7.068 7.073-26.337-26.354 26.646-22.516 6.45 7.642zm13.65-16.514l18.647 18.66-7.068 7.072-26.337-26.354 26.646-22.516 6.45 7.643-18.337 15.495zm246.456-26.499l6.45-7.642L1136.18 4.57l-26.337 26.354-7.068-7.073 18.647-18.66-18.338-15.495zm64.976-64.019l6.45-7.642 26.646 22.516-26.337 26.354-7.068-7.073 18.647-18.66-18.338-15.495zm-14.65 47.505l-18.337-15.495 6.449-7.643 26.646 22.516-26.336 26.355-7.069-7.074 18.647-18.659zm64.976-64.02l-18.337-15.494 6.45-7.643 26.645 22.516-26.336 26.354-7.069-7.073 18.647-18.66zm-112.505 61.529l-18.337 15.495 18.647 18.66-7.069 7.072-26.336-26.354 26.646-22.516 6.45 7.643zm64.976-64.02l-18.337 15.496 18.647 18.66-7.068 7.072-26.337-26.354 26.646-22.516 6.45 7.643zm-51.325 47.505l18.647 18.66-7.068 7.073-26.337-26.354 26.646-22.516 6.45 7.642-18.338 15.495zm64.976-64.019l18.647 18.66-7.068 7.073-26.337-26.354 26.646-22.517 6.45 7.643-18.338 15.495zm-147.4 161.558l6.45-7.643 26.646 22.517-26.337 26.354-7.068-7.073 18.647-18.66-18.338-15.495zm50.326-16.514l-18.337-15.496 6.45-7.642 26.645 22.516-26.336 26.354-7.069-7.073 18.647-18.66zm-47.529-2.492l-18.337 15.495 18.647 18.66-7.068 7.073-26.337-26.354 26.646-22.516 6.45 7.642zm13.651-16.514l18.647 18.66-7.068 7.072-26.337-26.354 26.646-22.516 6.45 7.643-18.338 15.495zm185.478-62.51l6.45-7.642 26.646 22.516-26.337 26.354-7.068-7.073 18.647-18.66-18.338-15.494zm64.977-64.019l6.45-7.642 26.645 22.516-26.336 26.354-7.069-7.073 18.647-18.66-18.337-15.495zm-14.65 47.505l-18.338-15.495 6.45-7.643 26.645 22.517-26.336 26.354-7.069-7.073 18.647-18.66zm64.975-64.019L1336-142.342l6.45-7.643 26.645 22.516-26.336 26.355-7.069-7.074 18.647-18.659zm-112.505 61.528l-18.337 15.495 18.647 18.66-7.068 7.073-26.337-26.355 26.646-22.516 6.45 7.643zm64.977-64.02l-18.338 15.496 18.647 18.66-7.068 7.072-26.337-26.354 26.646-22.516 6.45 7.643zm-51.326 47.506l18.647 18.659-7.068 7.073-26.337-26.354 26.646-22.516 6.45 7.642-18.338 15.496zm64.977-64.02l18.646 18.66-7.068 7.073-26.337-26.354 26.647-22.516 6.449 7.642-18.337 15.495zm-147.4 161.558l6.45-7.642 26.645 22.516-26.336 26.354-7.069-7.073 18.647-18.66-18.337-15.495zm50.325-16.514l-18.337-15.495 6.45-7.643 26.645 22.516-26.336 26.354-7.069-7.073 18.647-18.66zm-47.528-2.492l-18.338 15.496 18.647 18.659-7.068 7.073-26.337-26.354 26.646-22.516 6.45 7.642zm13.65-16.514l18.647 18.66-7.068 7.073-26.337-26.355 26.647-22.516 6.449 7.643-18.337 15.495zm110.506 9.512l6.45-7.642 26.646 22.516-26.337 26.354-7.068-7.073 18.647-18.66-18.338-15.495zm64.976-64.019l6.45-7.642 26.646 22.516-26.337 26.354-7.068-7.073 18.647-18.66-18.338-15.495zm-14.65 47.505L1332-42.312l6.45-7.643 26.646 22.516-26.337 26.355-7.068-7.074 18.647-18.659zm64.976-64.02l-18.337-15.494 6.449-7.643 26.646 22.516-26.336 26.354-7.069-7.073 18.647-18.66zm-112.505 61.529l-18.337 15.495 18.647 18.66-7.069 7.072-26.336-26.354 26.646-22.516 6.45 7.643zm64.976-64.02l-18.337 15.496 18.647 18.66-7.069 7.072-26.336-26.354 26.646-22.516 6.45 7.643zm-51.325 47.505l18.647 18.66-7.069 7.073-26.336-26.354 26.646-22.516 6.45 7.642-18.338 15.495zm64.976-64.019l18.647 18.66-7.068 7.073-26.337-26.354 26.646-22.517 6.45 7.643-18.338 15.495zm-147.4 161.558l6.45-7.643 26.646 22.517-26.337 26.354-7.068-7.073 18.647-18.66-18.338-15.495zm50.326-16.514l-18.337-15.496 6.449-7.642 26.646 22.516-26.336 26.354-7.069-7.073 18.647-18.66zm-47.529-2.492l-18.337 15.495 18.647 18.66-7.069 7.073-26.336-26.354 26.646-22.516 6.45 7.642zm13.651-16.514l18.647 18.66-7.068 7.072-26.337-26.354 26.646-22.516 6.45 7.643-18.338 15.495zm185.478-62.51l6.45-7.642 26.646 22.516-26.337 26.354-7.068-7.073 18.647-18.66-18.338-15.494zm64.976-64.019l6.45-7.642 26.646 22.516-26.337 26.354-7.068-7.073 18.647-18.66-18.338-15.495zm-14.65 47.505l-18.337-15.495 6.449-7.643 26.646 22.517-26.336 26.354-7.069-7.073 18.647-18.66zm64.976-64.019l-18.337-15.495 6.45-7.643 26.645 22.516-26.336 26.355-7.069-7.074 18.647-18.659zM1438.76-65.319l-18.337 15.495 18.647 18.66-7.069 7.073-26.336-26.355 26.646-22.516 6.45 7.643zm64.977-64.02l-18.338 15.496 18.647 18.66-7.068 7.072-26.337-26.354 26.646-22.516 6.45 7.643zm-51.326 47.506l18.647 18.659-7.068 7.073-26.337-26.354 26.646-22.516 6.45 7.642-18.338 15.496zm64.976-64.02l18.647 18.66-7.068 7.073-26.337-26.354 26.646-22.516 6.45 7.642-18.338 15.495zm-147.4 161.558l6.45-7.642 26.646 22.516-26.337 26.354-7.068-7.073 18.647-18.66-18.338-15.495zm50.326-16.514l-18.337-15.495 6.45-7.643 26.645 22.516-26.336 26.354-7.069-7.073 18.647-18.66zm-47.528-2.492l-18.338 15.496 18.647 18.659-7.068 7.073-26.337-26.354 26.646-22.516 6.45 7.642zm13.65-16.514l18.647 18.66-7.068 7.073-26.337-26.355 26.646-22.516 6.45 7.643-18.338 15.495zm110.506 9.512l6.45-7.642 26.646 22.516-26.337 26.354-7.069-7.073 18.647-18.66-18.337-15.495zm64.976-64.019l6.45-7.642 26.646 22.516-26.337 26.354-7.068-7.073 18.647-18.66-18.338-15.495zm-14.65 47.505l-18.338-15.495 6.45-7.643 26.646 22.516-26.337 26.355-7.068-7.074 18.647-18.659zm64.976-64.02l-18.338-15.494 6.45-7.643L1627-91.458l-26.337 26.354-7.068-7.073 18.647-18.66zm-112.505 61.529L1481.4-13.813l18.647 18.66-7.069 7.072-26.337-26.354 26.647-22.516 6.449 7.643zm64.976-64.02l-18.337 15.496 18.647 18.66-7.069 7.072-26.336-26.354 26.646-22.516 6.45 7.643zm-51.325 47.505l18.647 18.66-7.069 7.073-26.336-26.354 26.646-22.516 6.45 7.642-18.338 15.495zm64.976-64.019l18.647 18.66-7.068 7.073-26.337-26.354 26.646-22.517 6.45 7.643-18.338 15.495zm-147.4 161.558l6.45-7.643 26.646 22.517-26.337 26.354-7.068-7.073 18.647-18.66-18.338-15.495zm50.326-16.514l-18.338-15.496 6.45-7.642 26.646 22.516-26.337 26.354-7.068-7.073 18.647-18.66zm-47.529-2.492l-18.337 15.495 18.647 18.66-7.069 7.073-26.336-26.354 26.646-22.516 6.45 7.642zm13.651-16.514l18.647 18.66-7.069 7.072-26.336-26.354L1459.3-6.942l6.45 7.643-18.338 15.495z"/>
        </g>
    </g>
</svg>
