<svg xmlns="http://www.w3.org/2000/svg" width="208" height="62" viewBox="0 0 208 62">
    <g fill="none" fill-rule="evenodd">
        <path fill="#50E3C2" fill-rule="nonzero" d="M25.9 45.7l-6.182 5.757L0 30.73 19.718 10l6.182 5.757L11.659 30.73zM180.408 45.7l6.182 5.757 19.718-20.728L186.59 10l-6.182 5.757L194.65 30.73z"/>
        <path fill="#FFF" d="M52.262 24.622a5.514 5.514 0 0 0-2.038-1.535c-.806-.357-1.738-.536-2.797-.536a7.102 7.102 0 0 0-2.94.607 7.032 7.032 0 0 0-2.346 1.696c-.661.726-1.178 1.588-1.551 2.588s-.56 2.083-.56 3.249c0 1.19.187 2.279.56 3.266a8.1 8.1 0 0 0 1.533 2.57 6.944 6.944 0 0 0 2.291 1.696 6.685 6.685 0 0 0 2.833.607c1.154 0 2.177-.238 3.067-.714a6.08 6.08 0 0 0 2.2-1.999l4.691 3.463c-1.082 1.5-2.453 2.606-4.113 3.32a12.843 12.843 0 0 1-5.124 1.071c-1.996 0-3.836-.31-5.52-.928-1.684-.619-3.14-1.505-4.366-2.66-1.227-1.154-2.183-2.552-2.868-4.194-.686-1.643-1.029-3.475-1.029-5.498s.343-3.856 1.029-5.498c.685-1.642 1.641-3.04 2.868-4.195 1.227-1.154 2.682-2.04 4.366-2.66 1.684-.618 3.524-.928 5.52-.928.722 0 1.474.066 2.256.197.781.13 1.551.339 2.309.624.757.286 1.485.667 2.183 1.143a8.645 8.645 0 0 1 1.876 1.75l-4.33 3.498zm47.736 18.707h-4.98v-2.285h-.071c-.217.31-.5.624-.848.946a6.414 6.414 0 0 1-1.227.874c-.47.262-.986.476-1.552.643a6.158 6.158 0 0 1-1.75.25c-1.298 0-2.477-.22-3.535-.66a7.887 7.887 0 0 1-2.725-1.857 8.263 8.263 0 0 1-1.75-2.838c-.409-1.095-.613-2.297-.613-3.606 0-1.214.186-2.374.56-3.48a9.546 9.546 0 0 1 1.587-2.946 7.738 7.738 0 0 1 2.508-2.053c.986-.511 2.104-.767 3.355-.767 1.13 0 2.183.172 3.157.518a5.048 5.048 0 0 1 2.4 1.767h.072V16.339h5.412v26.99zm-4.98-8.676c0-1.309-.378-2.368-1.136-3.177-.757-.81-1.822-1.214-3.193-1.214s-2.435.405-3.193 1.214c-.758.81-1.137 1.868-1.137 3.177 0 1.31.38 2.369 1.137 3.178.758.809 1.822 1.214 3.193 1.214s2.436-.405 3.193-1.214c.758-.81 1.137-1.869 1.137-3.178zm25.907 5.677c-.865 1.095-1.96 1.94-3.283 2.534a9.924 9.924 0 0 1-4.113.893c-1.347 0-2.616-.214-3.807-.643-1.19-.428-2.225-1.04-3.103-1.838a8.631 8.631 0 0 1-2.075-2.874c-.505-1.119-.757-2.368-.757-3.749 0-1.38.252-2.63.757-3.748a8.631 8.631 0 0 1 2.075-2.874c.878-.797 1.912-1.41 3.103-1.838 1.19-.429 2.46-.643 3.807-.643 1.25 0 2.387.214 3.41.643a7.098 7.098 0 0 1 2.597 1.838c.71.797 1.257 1.755 1.642 2.874.385 1.119.577 2.368.577 3.748v1.678H109.2c.216 1.024.685 1.839 1.407 2.446.722.607 1.612.91 2.67.91.89 0 1.642-.196 2.255-.589a6.036 6.036 0 0 0 1.606-1.517l3.788 2.749zm-4.582-7.64c.024-.904-.277-1.678-.902-2.32-.625-.643-1.431-.964-2.417-.964-.602 0-1.131.095-1.588.285-.457.19-.848.434-1.173.732a3.21 3.21 0 0 0-.757 1.035 3.38 3.38 0 0 0-.307 1.232h7.144zm9.598-14.637h17.139v5.14h-11.51v5.142h10.644v5.14H131.57v9.854h-5.63V18.053zm20.566 7.925h5.413v17.35h-5.413v-17.35zm-.433-5.462c0-.857.307-1.588.92-2.195a3.04 3.04 0 0 1 2.22-.91 3.04 3.04 0 0 1 2.218.91c.614.607.92 1.338.92 2.195 0 .857-.306 1.589-.92 2.196a3.04 3.04 0 0 1-2.219.91 3.04 3.04 0 0 1-2.219-.91 2.976 2.976 0 0 1-.92-2.196zm14.47 13.53l-5.846-8.068h6.386l3.103 4.713 2.995-4.713h6.026l-5.701 8.069 6.747 9.282h-6.386l-3.825-5.784-4.113 5.784h-6.315l6.928-9.282z"/>
        <path fill="#50E3C2" fill-rule="nonzero" d="M61.688 37.348l3.956 3.718h5.595l3.956-3.718v-5.259l-3.956-3.718h-5.595l-3.956 3.718v5.259zm-.146.057l-3.713-.873v-3.627l3.713-.873-1.969-3.084 2.729-2.565 3.282 1.85.928-3.49h3.859l.928 3.49 3.282-1.85 2.729 2.565-1.97 3.084 3.714.873v3.627l-3.713.873 1.969 3.084-2.729 2.565-3.282-1.85-.928 3.49h-3.859l-.928-3.49-3.282 1.85-2.729-2.565 1.97-3.084z"/>
        <path fill="#50E3C2" d="M59.527 34.824c0-1.195.234-2.275.702-3.243a7.508 7.508 0 0 1 1.92-2.486c.814-.69 1.772-1.22 2.874-1.59a10.99 10.99 0 0 1 3.525-.556c1.247 0 2.422.185 3.524.555 1.103.371 2.06.901 2.873 1.59a7.508 7.508 0 0 1 1.921 2.487c.468.968.702 2.048.702 3.243 0 1.194-.234 2.275-.702 3.242a7.508 7.508 0 0 1-1.92 2.486c-.813.69-1.771 1.22-2.874 1.59a10.99 10.99 0 0 1-3.524.557 10.99 10.99 0 0 1-3.525-.556c-1.102-.37-2.06-.901-2.873-1.59a7.508 7.508 0 0 1-1.921-2.487c-.468-.967-.702-2.048-.702-3.242zm5.012 0c0 1.132.35 2.048 1.052 2.748.702.7 1.687 1.05 2.957 1.05 1.27 0 2.255-.35 2.956-1.05.702-.7 1.053-1.616 1.053-2.748 0-1.133-.351-2.049-1.053-2.749-.701-.7-1.687-1.05-2.956-1.05-1.27 0-2.255.35-2.957 1.05-.702.7-1.052 1.616-1.052 2.749z"/>
    </g>
</svg>
