<?xml version="1.0" encoding="UTF-8"?>
<svg width="676px" height="175px" viewBox="0 0 676 175" version="1.1" xmlns="http://www.w3.org/2000/svg" xmlns:xlink="http://www.w3.org/1999/xlink">
    <!-- Generator: sketchtool 52.5 (67469) - http://www.bohemiancoding.com/sketch -->
    <title>7665590A-7377-4F3C-B1C0-2C56BE574F6B</title>
    <desc>Created with sketchtool.</desc>
    <defs>
        <path d="M3,0 L673,0 C674.656854,-3.04359188e-16 676,1.34314575 676,3 L676,175 L0,175 L0,3 C-2.02906125e-16,1.34314575 1.34314575,3.04359188e-16 3,0 Z" id="path-1"></path>
    </defs>
    <g id="App" stroke="none" stroke-width="1" fill="none" fill-rule="evenodd">
        <g id="2_0-Home-page-description-popup" transform="translate(-382.000000, -110.000000)">
            <g id="POPUP" transform="translate(382.000000, 110.000000)">
                <g id="Top">
                    <g id="-g-Pictures-/-Pattern">
                        <mask id="mask-2" fill="white">
                            <use xlink:href="#path-1"></use>
                        </mask>
                        <use id="bg" fill="#16BB96" fill-rule="evenodd" xlink:href="#path-1"></use>
                        <g id="Pattern" stroke-width="1" fill-rule="evenodd" mask="url(#mask-2)" fill="#FFFFFF" opacity="0.100000001">
                            <g transform="translate(-654.000000, -239.000000)" fill-rule="nonzero" id="pattern">
                                <path d="M160.250914,342.74292 L166.700359,335.100333 L193.346488,357.616495 L167.009875,383.970649 L159.941397,376.897463 L178.588302,358.238139 L160.250914,342.74292 Z M225.227106,278.723752 L231.676551,271.081165 L258.322681,293.597327 L231.986068,319.951481 L224.91759,312.878295 L243.564495,294.218971 L225.227106,278.723752 Z M210.576582,326.228555 L192.239193,310.733336 L198.688638,303.090749 L225.334768,325.606911 L198.998155,351.961065 L191.929677,344.887879 L210.576582,326.228555 Z M275.552774,262.209387 L257.215386,246.714168 L263.664831,239.071581 L290.310961,261.587743 L263.974347,287.941897 L256.905869,280.868711 L275.552774,262.209387 Z M163.04796,323.73723 L144.710572,339.232449 L163.357476,357.891773 L156.288998,364.964958 L129.952385,338.610805 L156.598515,316.094642 L163.04796,323.73723 Z M228.024153,259.718062 L209.686764,275.213281 L228.333669,293.872605 L221.265191,300.94579 L194.928578,274.591637 L221.574708,252.075474 L228.024153,259.718062 Z M176.698851,307.222865 L195.345756,325.882189 L188.277278,332.955374 L161.940665,306.601221 L188.586794,284.085058 L195.036239,291.727646 L176.698851,307.222865 Z M241.675044,243.203697 L260.321949,261.863021 L253.253471,268.936206 L226.916857,242.582052 L253.562987,220.06589 L260.012432,227.708478 L241.675044,243.203697 Z M94.2750873,404.76149 L100.724532,397.118902 L127.370662,419.635064 L101.034049,445.989218 L93.9655709,438.916032 L112.612476,420.256708 L94.2750873,404.76149 Z M144.600755,388.247124 L126.263367,372.751905 L132.712812,365.109318 L159.358941,387.62548 L133.022328,413.979634 L125.95385,406.906448 L144.600755,388.247124 Z M97.0721336,385.755799 L78.7347452,401.251018 L97.38165,419.910342 L90.3131721,426.983527 L63.9765589,400.629374 L90.6226885,378.113212 L97.0721336,385.755799 Z M110.723025,369.241434 L129.369929,387.900758 L122.301452,394.973943 L95.9648384,368.61979 L122.610968,346.103628 L129.060413,353.746215 L110.723025,369.241434 Z M96.2743548,310.733336 L102.7238,303.090749 L129.369929,325.606911 L103.033316,351.961065 L95.9648384,344.887879 L114.611743,326.228555 L96.2743548,310.733336 Z M161.250547,246.714168 L167.699993,239.071581 L194.346122,261.587743 L168.009509,287.941897 L160.941031,280.868711 L179.587936,262.209387 L161.250547,246.714168 Z M146.600023,294.218971 L128.262634,278.723752 L134.712079,271.081165 L161.358209,293.597327 L135.021596,319.951481 L127.953118,312.878295 L146.600023,294.218971 Z M211.576215,230.199803 L193.238827,214.704584 L199.688272,207.061997 L226.334402,229.578159 L199.997788,255.932313 L192.929311,248.859127 L211.576215,230.199803 Z M99.0714011,291.727646 L80.7340127,307.222865 L99.3809175,325.882189 L92.3124396,332.955374 L65.9758264,306.601221 L92.621956,284.085058 L99.0714011,291.727646 Z M164.047594,227.708478 L145.710205,243.203697 L164.35711,261.863021 L157.288632,268.936206 L130.952019,242.582052 L157.598149,220.06589 L164.047594,227.708478 Z M112.722292,275.213281 L131.369197,293.872605 L124.300719,300.94579 L97.9641059,274.591637 L124.610235,252.075474 L131.059681,259.718062 L112.722292,275.213281 Z M177.698485,211.194113 L196.34539,229.853437 L189.276912,236.926622 L162.940299,210.572468 L189.586428,188.056306 L196.035873,195.698894 L177.698485,211.194113 Z M30.2985284,372.751905 L36.7479735,365.109318 L63.3941031,387.62548 L37.0574899,413.979634 L29.989012,406.906448 L48.6359168,388.247124 L30.2985284,372.751905 Z M80.6241963,356.23754 L62.2868079,340.742321 L68.736253,333.099734 L95.3823825,355.615896 L69.0457694,381.97005 L61.9772915,374.896864 L80.6241963,356.23754 Z M33.0955747,353.746215 L14.7581863,369.241434 L33.4050911,387.900758 L26.3366132,394.973943 L2.55795385e-13,368.61979 L26.6461296,346.103628 L33.0955747,353.746215 Z M46.7464657,337.23185 L65.3933706,355.891174 L58.3248926,362.964359 L31.9882795,336.610206 L58.634409,314.094043 L65.0838541,321.736631 L46.7464657,337.23185 Z M357.178759,342.74292 L363.628204,335.100333 L390.274334,357.616495 L363.937721,383.970649 L356.869243,376.897463 L375.516148,358.238139 L357.178759,342.74292 Z M422.154952,278.723752 L428.604397,271.081165 L455.250526,293.597327 L428.913913,319.951481 L421.845435,312.878295 L440.49234,294.218971 L422.154952,278.723752 Z M407.504427,326.228555 L389.167039,310.733336 L395.616484,303.090749 L422.262613,325.606911 L395.926,351.961065 L388.857522,344.887879 L407.504427,326.228555 Z M472.48062,262.209387 L454.143231,246.714168 L460.592676,239.071581 L487.238806,261.587743 L460.902193,287.941897 L453.833715,280.868711 L472.48062,262.209387 Z M359.975805,323.73723 L341.638417,339.232449 L360.285322,357.891773 L353.216844,364.964958 L326.880231,338.610805 L353.52636,316.094642 L359.975805,323.73723 Z M424.951998,259.718062 L406.61461,275.213281 L425.261515,293.872605 L418.193037,300.94579 L391.856423,274.591637 L418.502553,252.075474 L424.951998,259.718062 Z M373.626696,307.222865 L392.273601,325.882189 L385.205123,332.955374 L358.86851,306.601221 L385.51464,284.085058 L391.964085,291.727646 L373.626696,307.222865 Z M438.602889,243.203697 L457.249794,261.863021 L450.181316,268.936206 L423.844703,242.582052 L450.490832,220.06589 L456.940278,227.708478 L438.602889,243.203697 Z M291.202933,404.76149 L297.652378,397.118902 L324.298507,419.635064 L297.961894,445.989218 L290.893416,438.916032 L309.540321,420.256708 L291.202933,404.76149 Z M341.528601,388.247124 L323.191212,372.751905 L329.640657,365.109318 L356.286787,387.62548 L329.950174,413.979634 L322.881696,406.906448 L341.528601,388.247124 Z M293.999979,385.755799 L275.662591,401.251018 L294.309495,419.910342 L287.241018,426.983527 L260.904404,400.629374 L287.550534,378.113212 L293.999979,385.755799 Z M307.65087,369.241434 L326.297775,387.900758 L319.229297,394.973943 L292.892684,368.61979 L319.538813,346.103628 L325.988259,353.746215 L307.65087,369.241434 Z M221.228571,378.753703 L227.678017,371.111115 L254.324146,393.627277 L227.987533,419.981431 L220.919055,412.908245 L239.56596,394.248921 L221.228571,378.753703 Z M286.204764,314.734534 L292.654209,307.091947 L319.300339,329.608109 L292.963726,355.962263 L285.895248,348.889077 L304.542153,330.229753 L286.204764,314.734534 Z M271.554239,362.239337 L253.216851,346.744118 L259.666296,339.101531 L286.312426,361.617693 L259.975812,387.971847 L252.907334,380.898661 L271.554239,362.239337 Z M336.530432,298.220169 L318.193044,282.72495 L324.642489,275.082363 L351.288618,297.598525 L324.952005,323.952679 L317.883527,316.879493 L336.530432,298.220169 Z M224.025618,359.748012 L205.688229,375.243231 L224.335134,393.902555 L217.266656,400.97574 L190.930043,374.621587 L217.576173,352.105425 L224.025618,359.748012 Z M289.00181,295.728844 L270.664422,311.224063 L289.311327,329.883387 L282.242849,336.956572 L255.906236,310.602419 L282.552365,288.086256 L289.00181,295.728844 Z M237.676509,343.233647 L256.323414,361.892971 L249.254936,368.966156 L222.918323,342.612003 L249.564452,320.09584 L256.013897,327.738428 L237.676509,343.233647 Z M302.652701,279.214479 L321.299606,297.873803 L314.231128,304.946988 L287.894515,278.592835 L314.540645,256.076672 L320.99009,263.71926 L302.652701,279.214479 Z M155.252745,440.772272 L161.70219,433.129684 L188.34832,455.645846 L162.011707,482 L154.943229,474.926814 L173.590133,456.267491 L155.252745,440.772272 Z M205.578413,424.257906 L187.241025,408.762688 L193.69047,401.1201 L220.336599,423.636262 L193.999986,449.990416 L186.931508,442.91723 L205.578413,424.257906 Z M158.049791,421.766581 L139.712403,437.2618 L158.359308,455.921124 L151.29083,462.994309 L124.954217,436.640156 L151.600346,414.123994 L158.049791,421.766581 Z M171.700682,405.252216 L190.347587,423.91154 L183.279109,430.984725 L156.942496,404.630572 L183.588626,382.11441 L190.038071,389.756997 L171.700682,405.252216 Z M418.156417,378.753703 L424.605862,371.111115 L451.251992,393.627277 L424.915378,419.981431 L417.8469,412.908245 L436.493805,394.248921 L418.156417,378.753703 Z M483.13261,314.734534 L489.582055,307.091947 L516.228184,329.608109 L489.891571,355.962263 L482.823093,348.889077 L501.469998,330.229753 L483.13261,314.734534 Z M468.482085,362.239337 L450.144696,346.744118 L456.594141,339.101531 L483.240271,361.617693 L456.903658,387.971847 L449.83518,380.898661 L468.482085,362.239337 Z M533.458277,298.220169 L515.120889,282.72495 L521.570334,275.082363 L548.216464,297.598525 L521.879851,323.952679 L514.811373,316.879493 L533.458277,298.220169 Z M420.953463,359.748012 L402.616075,375.243231 L421.26298,393.902555 L414.194502,400.97574 L387.857888,374.621587 L414.504018,352.105425 L420.953463,359.748012 Z M485.929656,295.728844 L467.592267,311.224063 L486.239172,329.883387 L479.170694,336.956572 L452.834081,310.602419 L479.480211,288.086256 L485.929656,295.728844 Z M434.604354,343.233647 L453.251259,361.892971 L446.182781,368.966156 L419.846168,342.612003 L446.492298,320.09584 L452.941743,327.738428 L434.604354,343.233647 Z M499.580547,279.214479 L518.227452,297.873803 L511.158974,304.946988 L484.822361,278.592835 L511.46849,256.076672 L517.917935,263.71926 L499.580547,279.214479 Z M352.18059,440.772272 L358.630036,433.129684 L385.276165,455.645846 L358.939552,482 L351.871074,474.926814 L370.517979,456.267491 L352.18059,440.772272 Z M402.506258,424.257906 L384.16887,408.762688 L390.618315,401.1201 L417.264445,423.636262 L390.927831,449.990416 L383.859354,442.91723 L402.506258,424.257906 Z M354.977637,421.766581 L336.640248,437.2618 L355.287153,455.921124 L348.218675,462.994309 L321.882062,436.640156 L348.528192,414.123994 L354.977637,421.766581 Z M368.628528,405.252216 L387.275433,423.91154 L380.206955,430.984725 L353.870342,404.630572 L380.516471,382.11441 L386.965916,389.756997 L368.628528,405.252216 Z M554.106605,342.74292 L560.55605,335.100333 L587.202179,357.616495 L560.865566,383.970649 L553.797088,376.897463 L572.443993,358.238139 L554.106605,342.74292 Z M619.082797,278.723752 L625.532242,271.081165 L652.178372,293.597327 L625.841759,319.951481 L618.773281,312.878295 L637.420186,294.218971 L619.082797,278.723752 Z M604.432272,326.228555 L586.094884,310.733336 L592.544329,303.090749 L619.190459,325.606911 L592.853846,351.961065 L585.785368,344.887879 L604.432272,326.228555 Z M669.408465,262.209387 L651.071077,246.714168 L657.520522,239.071581 L684.166651,261.587743 L657.830038,287.941897 L650.76156,280.868711 L669.408465,262.209387 Z M556.903651,323.73723 L538.566262,339.232449 L557.213167,357.891773 L550.144689,364.964958 L523.808076,338.610805 L550.454206,316.094642 L556.903651,323.73723 Z M621.879844,259.718062 L603.542455,275.213281 L622.18936,293.872605 L615.120882,300.94579 L588.784269,274.591637 L615.430398,252.075474 L621.879844,259.718062 Z M570.554542,307.222865 L589.201447,325.882189 L582.132969,332.955374 L555.796356,306.601221 L582.442485,284.085058 L588.89193,291.727646 L570.554542,307.222865 Z M635.530735,243.203697 L654.177639,261.863021 L647.109161,268.936206 L620.772548,242.582052 L647.418678,220.06589 L653.868123,227.708478 L635.530735,243.203697 Z M488.130778,404.76149 L494.580223,397.118902 L521.226353,419.635064 L494.88974,445.989218 L487.821262,438.916032 L506.468167,420.256708 L488.130778,404.76149 Z M538.456446,388.247124 L520.119058,372.751905 L526.568503,365.109318 L553.214632,387.62548 L526.878019,413.979634 L519.809541,406.906448 L538.456446,388.247124 Z M490.927824,385.755799 L472.590436,401.251018 L491.237341,419.910342 L484.168863,426.983527 L457.83225,400.629374 L484.478379,378.113212 L490.927824,385.755799 Z M504.578716,369.241434 L523.22562,387.900758 L516.157142,394.973943 L489.820529,368.61979 L516.466659,346.103628 L522.916104,353.746215 L504.578716,369.241434 Z M615.084262,378.753703 L621.533707,371.111115 L648.179837,393.627277 L621.843224,419.981431 L614.774746,412.908245 L633.421651,394.248921 L615.084262,378.753703 Z M680.060455,314.734534 L686.5099,307.091947 L713.15603,329.608109 L686.819416,355.962263 L679.750939,348.889077 L698.397843,330.229753 L680.060455,314.734534 Z M665.40993,362.239337 L647.072542,346.744118 L653.521987,339.101531 L680.168116,361.617693 L653.831503,387.971847 L646.763025,380.898661 L665.40993,362.239337 Z M730.386123,298.220169 L712.048734,282.72495 L718.49818,275.082363 L745.144309,297.598525 L718.807696,323.952679 L711.739218,316.879493 L730.386123,298.220169 Z M617.881309,359.748012 L599.54392,375.243231 L618.190825,393.902555 L611.122347,400.97574 L584.785734,374.621587 L611.431864,352.105425 L617.881309,359.748012 Z M682.857501,295.728844 L664.520113,311.224063 L683.167018,329.883387 L676.09854,336.956572 L649.761927,310.602419 L676.408056,288.086256 L682.857501,295.728844 Z M631.5322,343.233647 L650.179104,361.892971 L643.110627,368.966156 L616.774013,342.612003 L643.420143,320.09584 L649.869588,327.738428 L631.5322,343.233647 Z M696.508392,279.214479 L715.155297,297.873803 L708.086819,304.946988 L681.750206,278.592835 L708.396336,256.076672 L714.845781,263.71926 L696.508392,279.214479 Z M549.108436,440.772272 L555.557881,433.129684 L582.204011,455.645846 L555.867397,482 L548.79892,474.926814 L567.445824,456.267491 L549.108436,440.772272 Z M599.434104,424.257906 L581.096715,408.762688 L587.54616,401.1201 L614.19229,423.636262 L587.855677,449.990416 L580.787199,442.91723 L599.434104,424.257906 Z M551.905482,421.766581 L533.568094,437.2618 L552.214999,455.921124 L545.146521,462.994309 L518.809908,436.640156 L545.456037,414.123994 L551.905482,421.766581 Z M565.556373,405.252216 L584.203278,423.91154 L577.1348,430.984725 L550.798187,404.630572 L577.444317,382.11441 L583.893762,389.756997 L565.556373,405.252216 Z M751.03445,342.74292 L757.483895,335.100333 L784.130025,357.616495 L757.793412,383.970649 L750.724934,376.897463 L769.371838,358.238139 L751.03445,342.74292 Z M816.010643,278.723752 L822.460088,271.081165 L849.106217,293.597327 L822.769604,319.951481 L815.701126,312.878295 L834.348031,294.218971 L816.010643,278.723752 Z M801.360118,326.228555 L783.022729,310.733336 L789.472175,303.090749 L816.118304,325.606911 L789.781691,351.961065 L782.713213,344.887879 L801.360118,326.228555 Z M866.336311,262.209387 L847.998922,246.714168 L854.448367,239.071581 L881.094497,261.587743 L854.757884,287.941897 L847.689406,280.868711 L866.336311,262.209387 Z M753.831496,323.73723 L735.494108,339.232449 L754.141013,357.891773 L747.072535,364.964958 L720.735922,338.610805 L747.382051,316.094642 L753.831496,323.73723 Z M818.807689,259.718062 L800.470301,275.213281 L819.117205,293.872605 L812.048727,300.94579 L785.712114,274.591637 L812.358244,252.075474 L818.807689,259.718062 Z M767.482387,307.222865 L786.129292,325.882189 L779.060814,332.955374 L752.724201,306.601221 L779.370331,284.085058 L785.819776,291.727646 L767.482387,307.222865 Z M832.45858,243.203697 L851.105485,261.863021 L844.037007,268.936206 L817.700394,242.582052 L844.346523,220.06589 L850.795968,227.708478 L832.45858,243.203697 Z M685.058624,404.76149 L691.508069,397.118902 L718.154198,419.635064 L691.817585,445.989218 L684.749107,438.916032 L703.396012,420.256708 L685.058624,404.76149 Z M735.384292,388.247124 L717.046903,372.751905 L723.496348,365.109318 L750.142478,387.62548 L723.805865,413.979634 L716.737387,406.906448 L735.384292,388.247124 Z M687.85567,385.755799 L669.518282,401.251018 L688.165186,419.910342 L681.096708,426.983527 L654.760095,400.629374 L681.406225,378.113212 L687.85567,385.755799 Z M701.506561,369.241434 L720.153466,387.900758 L713.084988,394.973943 L686.748375,368.61979 L713.394504,346.103628 L719.843949,353.746215 L701.506561,369.241434 Z M812.012108,378.753703 L818.461553,371.111115 L845.107682,393.627277 L818.771069,419.981431 L811.702591,412.908245 L830.349496,394.248921 L812.012108,378.753703 Z M876.9883,314.734534 L883.437746,307.091947 L910.083875,329.608109 L883.747262,355.962263 L876.678784,348.889077 L895.325689,330.229753 L876.9883,314.734534 Z M862.337776,362.239337 L844.000387,346.744118 L850.449832,339.101531 L877.095962,361.617693 L850.759349,387.971847 L843.690871,380.898661 L862.337776,362.239337 Z M927.313968,298.220169 L908.97658,282.72495 L915.426025,275.082363 L942.072155,297.598525 L915.735541,323.952679 L908.667063,316.879493 L927.313968,298.220169 Z M814.809154,359.748012 L796.471766,375.243231 L815.11867,393.902555 L808.050193,400.97574 L781.713579,374.621587 L808.359709,352.105425 L814.809154,359.748012 Z M879.785347,295.728844 L861.447958,311.224063 L880.094863,329.883387 L873.026385,336.956572 L846.689772,310.602419 L873.335902,288.086256 L879.785347,295.728844 Z M828.460045,343.233647 L847.10695,361.892971 L840.038472,368.966156 L813.701859,342.612003 L840.347988,320.09584 L846.797433,327.738428 L828.460045,343.233647 Z M893.436238,279.214479 L912.083143,297.873803 L905.014665,304.946988 L878.678051,278.592835 L905.324181,256.076672 L911.773626,263.71926 L893.436238,279.214479 Z M746.036281,440.772272 L752.485726,433.129684 L779.131856,455.645846 L752.795243,482 L745.726765,474.926814 L764.37367,456.267491 L746.036281,440.772272 Z M796.361949,424.257906 L778.024561,408.762688 L784.474006,401.1201 L811.120136,423.636262 L784.783522,449.990416 L777.715044,442.91723 L796.361949,424.257906 Z M748.833328,421.766581 L730.495939,437.2618 L749.142844,455.921124 L742.074366,462.994309 L715.737753,436.640156 L742.383883,414.123994 L748.833328,421.766581 Z M762.484219,405.252216 L781.131124,423.91154 L774.062646,430.984725 L747.726032,404.630572 L774.372162,382.11441 L780.821607,389.756997 L762.484219,405.252216 Z M357.178759,154.686614 L363.628204,147.044027 L390.274334,169.560189 L363.937721,195.914343 L356.869243,188.841157 L375.516148,170.181833 L357.178759,154.686614 Z M422.154952,90.6674461 L428.604397,83.0248586 L455.250526,105.541021 L428.913913,131.895174 L421.845435,124.821989 L440.49234,106.162665 L422.154952,90.6674461 Z M407.504427,138.172249 L389.167039,122.67703 L395.616484,115.034443 L422.262613,137.550605 L395.926,163.904759 L388.857522,156.831573 L407.504427,138.172249 Z M472.48062,74.1530809 L454.143231,58.657862 L460.592676,51.0152746 L487.238806,73.5314367 L460.902193,99.8855904 L453.833715,92.8124048 L472.48062,74.1530809 Z M359.975805,135.680924 L341.638417,151.176143 L360.285322,169.835466 L353.216844,176.908652 L326.880231,150.554498 L353.52636,128.038336 L359.975805,135.680924 Z M424.951998,71.6617555 L406.61461,87.1569744 L425.261515,105.816298 L418.193037,112.889484 L391.856423,86.5353303 L418.502553,64.0191681 L424.951998,71.6617555 Z M373.626696,119.166558 L392.273601,137.825882 L385.205123,144.899068 L358.86851,118.544914 L385.51464,96.0287521 L391.964085,103.67134 L373.626696,119.166558 Z M438.602889,55.1473904 L457.249794,73.8067143 L450.181316,80.8798999 L423.844703,54.5257462 L450.490832,32.009584 L456.940278,39.6521715 L438.602889,55.1473904 Z M291.202933,216.705183 L297.652378,209.062596 L324.298507,231.578758 L297.961894,257.932912 L290.893416,250.859726 L309.540321,232.200402 L291.202933,216.705183 Z M341.528601,200.190818 L323.191212,184.695599 L329.640657,177.053012 L356.286787,199.569174 L329.950174,225.923328 L322.881696,218.850142 L341.528601,200.190818 Z M293.999979,197.699493 L275.662591,213.194712 L294.309495,231.854036 L287.241018,238.927221 L260.904404,212.573067 L287.550534,190.056905 L293.999979,197.699493 Z M307.65087,181.185128 L326.297775,199.844451 L319.229297,206.917637 L292.892684,180.563483 L319.538813,158.047321 L325.988259,165.689909 L307.65087,181.185128 Z M293.2022,122.67703 L299.651645,115.034443 L326.297775,137.550605 L299.961162,163.904759 L292.892684,156.831573 L311.539589,138.172249 L293.2022,122.67703 Z M358.178393,58.657862 L364.627838,51.0152746 L391.273968,73.5314367 L364.937354,99.8855904 L357.868876,92.8124048 L376.515781,74.1530809 L358.178393,58.657862 Z M343.527868,106.162665 L325.19048,90.6674461 L331.639925,83.0248586 L358.286054,105.541021 L331.949441,131.895174 L324.880963,124.821989 L343.527868,106.162665 Z M408.504061,42.1434969 L390.166672,26.648278 L396.616117,19.0056905 L423.262247,41.5218527 L396.925634,67.8760064 L389.857156,60.8028208 L408.504061,42.1434969 Z M295.999247,103.67134 L277.661858,119.166558 L296.308763,137.825882 L289.240285,144.899068 L262.903672,118.544914 L289.549801,96.0287521 L295.999247,103.67134 Z M360.975439,39.6521715 L342.638051,55.1473904 L361.284956,73.8067143 L354.216478,80.8798999 L327.879864,54.5257462 L354.525994,32.009584 L360.975439,39.6521715 Z M309.650138,87.1569744 L328.297042,105.816298 L321.228564,112.889484 L294.891951,86.5353303 L321.538081,64.0191681 L327.987526,71.6617555 L309.650138,87.1569744 Z M374.62633,23.1378063 L393.273235,41.7971302 L386.204757,48.8703158 L359.868144,22.5161622 L386.514274,-2.55795385e-13 L392.963719,7.64258744 L374.62633,23.1378063 Z M227.226374,184.695599 L233.675819,177.053012 L260.321949,199.569174 L233.985335,225.923328 L226.916857,218.850142 L245.563762,200.190818 L227.226374,184.695599 Z M277.552042,168.181234 L259.214653,152.686015 L265.664098,145.043428 L292.310228,167.55959 L265.973615,193.913744 L258.905137,186.840558 L277.552042,168.181234 Z M230.02342,165.689909 L211.686032,181.185128 L230.332937,199.844451 L223.264459,206.917637 L196.927845,180.563483 L223.573975,158.047321 L230.02342,165.689909 Z M243.674311,149.175544 L262.321216,167.834867 L255.252738,174.908053 L228.916125,148.553899 L255.562254,126.037737 L262.0117,133.680325 L243.674311,149.175544 Z M554.106605,154.686614 L560.55605,147.044027 L587.202179,169.560189 L560.865566,195.914343 L553.797088,188.841157 L572.443993,170.181833 L554.106605,154.686614 Z M619.082797,90.6674461 L625.532242,83.0248586 L652.178372,105.541021 L625.841759,131.895174 L618.773281,124.821989 L637.420186,106.162665 L619.082797,90.6674461 Z M604.432272,138.172249 L586.094884,122.67703 L592.544329,115.034443 L619.190459,137.550605 L592.853846,163.904759 L585.785368,156.831573 L604.432272,138.172249 Z M669.408465,74.1530809 L651.071077,58.657862 L657.520522,51.0152746 L684.166651,73.5314367 L657.830038,99.8855904 L650.76156,92.8124048 L669.408465,74.1530809 Z M556.903651,135.680924 L538.566262,151.176143 L557.213167,169.835466 L550.144689,176.908652 L523.808076,150.554498 L550.454206,128.038336 L556.903651,135.680924 Z M621.879844,71.6617555 L603.542455,87.1569744 L622.18936,105.816298 L615.120882,112.889484 L588.784269,86.5353303 L615.430398,64.0191681 L621.879844,71.6617555 Z M570.554542,119.166558 L589.201447,137.825882 L582.132969,144.899068 L555.796356,118.544914 L582.442485,96.0287521 L588.89193,103.67134 L570.554542,119.166558 Z M635.530735,55.1473904 L654.177639,73.8067143 L647.109161,80.8798999 L620.772548,54.5257462 L647.418678,32.009584 L653.868123,39.6521715 L635.530735,55.1473904 Z M488.130778,216.705183 L494.580223,209.062596 L521.226353,231.578758 L494.88974,257.932912 L487.821262,250.859726 L506.468167,232.200402 L488.130778,216.705183 Z M538.456446,200.190818 L520.119058,184.695599 L526.568503,177.053012 L553.214632,199.569174 L526.878019,225.923328 L519.809541,218.850142 L538.456446,200.190818 Z M490.927824,197.699493 L472.590436,213.194712 L491.237341,231.854036 L484.168863,238.927221 L457.83225,212.573067 L484.478379,190.056905 L490.927824,197.699493 Z M504.578716,181.185128 L523.22562,199.844451 L516.157142,206.917637 L489.820529,180.563483 L516.466659,158.047321 L522.916104,165.689909 L504.578716,181.185128 Z M418.156417,190.697396 L424.605862,183.054809 L451.251992,205.570971 L424.915378,231.925125 L417.8469,224.851939 L436.493805,206.192615 L418.156417,190.697396 Z M483.13261,126.678228 L489.582055,119.035641 L516.228184,141.551803 L489.891571,167.905957 L482.823093,160.832771 L501.469998,142.173447 L483.13261,126.678228 Z M468.482085,174.183031 L450.144696,158.687812 L456.594141,151.045225 L483.240271,173.561387 L456.903658,199.915541 L449.83518,192.842355 L468.482085,174.183031 Z M533.458277,110.163863 L515.120889,94.6686441 L521.570334,87.0260566 L548.216464,109.542219 L521.879851,135.896372 L514.811373,128.823187 L533.458277,110.163863 Z M420.953463,171.691706 L402.616075,187.186925 L421.26298,205.846248 L414.194502,212.919434 L387.857888,186.56528 L414.504018,164.049118 L420.953463,171.691706 Z M485.929656,107.672538 L467.592267,123.167756 L486.239172,141.82708 L479.170694,148.900266 L452.834081,122.546112 L479.480211,100.02995 L485.929656,107.672538 Z M434.604354,155.177341 L453.251259,173.836664 L446.182781,180.90985 L419.846168,154.555696 L446.492298,132.039534 L452.941743,139.682122 L434.604354,155.177341 Z M499.580547,91.1581724 L518.227452,109.817496 L511.158974,116.890682 L484.822361,90.5365283 L511.46849,68.0203661 L517.917935,75.6629535 L499.580547,91.1581724 Z M352.18059,252.715965 L358.630036,245.073378 L385.276165,267.58954 L358.939552,293.943694 L351.871074,286.870508 L370.517979,268.211184 L352.18059,252.715965 Z M402.506258,236.2016 L384.16887,220.706381 L390.618315,213.063794 L417.264445,235.579956 L390.927831,261.93411 L383.859354,254.860924 L402.506258,236.2016 Z M354.977637,233.710275 L336.640248,249.205494 L355.287153,267.864818 L348.218675,274.938003 L321.882062,248.583849 L348.528192,226.067687 L354.977637,233.710275 Z M368.628528,217.19591 L387.275433,235.855234 L380.206955,242.928419 L353.870342,216.574265 L380.516471,194.058103 L386.965916,201.700691 L368.628528,217.19591 Z M615.084262,190.697396 L621.533707,183.054809 L648.179837,205.570971 L621.843224,231.925125 L614.774746,224.851939 L633.421651,206.192615 L615.084262,190.697396 Z M680.060455,126.678228 L686.5099,119.035641 L713.15603,141.551803 L686.819416,167.905957 L679.750939,160.832771 L698.397843,142.173447 L680.060455,126.678228 Z M665.40993,174.183031 L647.072542,158.687812 L653.521987,151.045225 L680.168116,173.561387 L653.831503,199.915541 L646.763025,192.842355 L665.40993,174.183031 Z M730.386123,110.163863 L712.048734,94.6686441 L718.49818,87.0260566 L745.144309,109.542219 L718.807696,135.896372 L711.739218,128.823187 L730.386123,110.163863 Z M617.881309,171.691706 L599.54392,187.186925 L618.190825,205.846248 L611.122347,212.919434 L584.785734,186.56528 L611.431864,164.049118 L617.881309,171.691706 Z M682.857501,107.672538 L664.520113,123.167756 L683.167018,141.82708 L676.09854,148.900266 L649.761927,122.546112 L676.408056,100.02995 L682.857501,107.672538 Z M631.5322,155.177341 L650.179104,173.836664 L643.110627,180.90985 L616.774013,154.555696 L643.420143,132.039534 L649.869588,139.682122 L631.5322,155.177341 Z M696.508392,91.1581724 L715.155297,109.817496 L708.086819,116.890682 L681.750206,90.5365283 L708.396336,68.0203661 L714.845781,75.6629535 L696.508392,91.1581724 Z M549.108436,252.715965 L555.557881,245.073378 L582.204011,267.58954 L555.867397,293.943694 L548.79892,286.870508 L567.445824,268.211184 L549.108436,252.715965 Z M599.434104,236.2016 L581.096715,220.706381 L587.54616,213.063794 L614.19229,235.579956 L587.855677,261.93411 L580.787199,254.860924 L599.434104,236.2016 Z M551.905482,233.710275 L533.568094,249.205494 L552.214999,267.864818 L545.146521,274.938003 L518.809908,248.583849 L545.456037,226.067687 L551.905482,233.710275 Z M565.556373,217.19591 L584.203278,235.855234 L577.1348,242.928419 L550.798187,216.574265 L577.444317,194.058103 L583.893762,201.700691 L565.556373,217.19591 Z M751.03445,154.686614 L757.483895,147.044027 L784.130025,169.560189 L757.793412,195.914343 L750.724934,188.841157 L769.371838,170.181833 L751.03445,154.686614 Z M816.010643,90.6674461 L822.460088,83.0248586 L849.106217,105.541021 L822.769604,131.895174 L815.701126,124.821989 L834.348031,106.162665 L816.010643,90.6674461 Z M801.360118,138.172249 L783.022729,122.67703 L789.472175,115.034443 L816.118304,137.550605 L789.781691,163.904759 L782.713213,156.831573 L801.360118,138.172249 Z M866.336311,74.1530809 L847.998922,58.657862 L854.448367,51.0152746 L881.094497,73.5314367 L854.757884,99.8855904 L847.689406,92.8124048 L866.336311,74.1530809 Z M753.831496,135.680924 L735.494108,151.176143 L754.141013,169.835466 L747.072535,176.908652 L720.735922,150.554498 L747.382051,128.038336 L753.831496,135.680924 Z M818.807689,71.6617555 L800.470301,87.1569744 L819.117205,105.816298 L812.048727,112.889484 L785.712114,86.5353303 L812.358244,64.0191681 L818.807689,71.6617555 Z M767.482387,119.166558 L786.129292,137.825882 L779.060814,144.899068 L752.724201,118.544914 L779.370331,96.0287521 L785.819776,103.67134 L767.482387,119.166558 Z M832.45858,55.1473904 L851.105485,73.8067143 L844.037007,80.8798999 L817.700394,54.5257462 L844.346523,32.009584 L850.795968,39.6521715 L832.45858,55.1473904 Z M685.058624,216.705183 L691.508069,209.062596 L718.154198,231.578758 L691.817585,257.932912 L684.749107,250.859726 L703.396012,232.200402 L685.058624,216.705183 Z M735.384292,200.190818 L717.046903,184.695599 L723.496348,177.053012 L750.142478,199.569174 L723.805865,225.923328 L716.737387,218.850142 L735.384292,200.190818 Z M687.85567,197.699493 L669.518282,213.194712 L688.165186,231.854036 L681.096708,238.927221 L654.760095,212.573067 L681.406225,190.056905 L687.85567,197.699493 Z M701.506561,181.185128 L720.153466,199.844451 L713.084988,206.917637 L686.748375,180.563483 L713.394504,158.047321 L719.843949,165.689909 L701.506561,181.185128 Z M812.012108,190.697396 L818.461553,183.054809 L845.107682,205.570971 L818.771069,231.925125 L811.702591,224.851939 L830.349496,206.192615 L812.012108,190.697396 Z M876.9883,126.678228 L883.437746,119.035641 L910.083875,141.551803 L883.747262,167.905957 L876.678784,160.832771 L895.325689,142.173447 L876.9883,126.678228 Z M862.337776,174.183031 L844.000387,158.687812 L850.449832,151.045225 L877.095962,173.561387 L850.759349,199.915541 L843.690871,192.842355 L862.337776,174.183031 Z M927.313968,110.163863 L908.97658,94.6686441 L915.426025,87.0260566 L942.072155,109.542219 L915.735541,135.896372 L908.667063,128.823187 L927.313968,110.163863 Z M814.809154,171.691706 L796.471766,187.186925 L815.11867,205.846248 L808.050193,212.919434 L781.713579,186.56528 L808.359709,164.049118 L814.809154,171.691706 Z M879.785347,107.672538 L861.447958,123.167756 L880.094863,141.82708 L873.026385,148.900266 L846.689772,122.546112 L873.335902,100.02995 L879.785347,107.672538 Z M828.460045,155.177341 L847.10695,173.836664 L840.038472,180.90985 L813.701859,154.555696 L840.347988,132.039534 L846.797433,139.682122 L828.460045,155.177341 Z M893.436238,91.1581724 L912.083143,109.817496 L905.014665,116.890682 L878.678051,90.5365283 L905.324181,68.0203661 L911.773626,75.6629535 L893.436238,91.1581724 Z M746.036281,252.715965 L752.485726,245.073378 L779.131856,267.58954 L752.795243,293.943694 L745.726765,286.870508 L764.37367,268.211184 L746.036281,252.715965 Z M796.361949,236.2016 L778.024561,220.706381 L784.474006,213.063794 L811.120136,235.579956 L784.783522,261.93411 L777.715044,254.860924 L796.361949,236.2016 Z M748.833328,233.710275 L730.495939,249.205494 L749.142844,267.864818 L742.074366,274.938003 L715.737753,248.583849 L742.383883,226.067687 L748.833328,233.710275 Z M762.484219,217.19591 L781.131124,235.855234 L774.062646,242.928419 L747.726032,216.574265 L774.372162,194.058103 L780.821607,201.700691 L762.484219,217.19591 Z M947.962295,154.686614 L954.411741,147.044027 L981.05787,169.560189 L954.721257,195.914343 L947.652779,188.841157 L966.299684,170.181833 L947.962295,154.686614 Z M1012.93849,90.6674461 L1019.38793,83.0248586 L1046.03406,105.541021 L1019.69745,131.895174 L1012.62897,124.821989 L1031.27588,106.162665 L1012.93849,90.6674461 Z M998.287963,138.172249 L979.950575,122.67703 L986.40002,115.034443 L1013.04615,137.550605 L986.709536,163.904759 L979.641059,156.831573 L998.287963,138.172249 Z M1063.26416,74.1530809 L1044.92677,58.657862 L1051.37621,51.0152746 L1078.02234,73.5314367 L1051.68573,99.8855904 L1044.61725,92.8124048 L1063.26416,74.1530809 Z M950.759342,135.680924 L932.421953,151.176143 L951.068858,169.835466 L944.00038,176.908652 L917.663767,150.554498 L944.309897,128.038336 L950.759342,135.680924 Z M1015.73553,71.6617555 L997.398146,87.1569744 L1016.04505,105.816298 L1008.97657,112.889484 L982.63996,86.5353303 L1009.28609,64.0191681 L1015.73553,71.6617555 Z M964.410233,119.166558 L983.057138,137.825882 L975.98866,144.899068 L949.652047,118.544914 L976.298176,96.0287521 L982.747621,103.67134 L964.410233,119.166558 Z M1029.38643,55.1473904 L1048.03333,73.8067143 L1040.96485,80.8798999 L1014.62824,54.5257462 L1041.27437,32.009584 L1047.72381,39.6521715 L1029.38643,55.1473904 Z M881.986469,216.705183 L888.435914,209.062596 L915.082044,231.578758 L888.745431,257.932912 L881.676953,250.859726 L900.323857,232.200402 L881.986469,216.705183 Z M932.312137,200.190818 L913.974749,184.695599 L920.424194,177.053012 L947.070323,199.569174 L920.73371,225.923328 L913.665232,218.850142 L932.312137,200.190818 Z M884.783515,197.699493 L866.446127,213.194712 L885.093032,231.854036 L878.024554,238.927221 L851.687941,212.573067 L878.33407,190.056905 L884.783515,197.699493 Z M898.434406,181.185128 L917.081311,199.844451 L910.012833,206.917637 L883.67622,180.563483 L910.32235,158.047321 L916.771795,165.689909 L898.434406,181.185128 Z M1008.93995,190.697396 L1015.3894,183.054809 L1042.03553,205.570971 L1015.69891,231.925125 L1008.63044,224.851939 L1027.27734,206.192615 L1008.93995,190.697396 Z M1073.91615,126.678228 L1080.36559,119.035641 L1107.01172,141.551803 L1080.67511,167.905957 L1073.60663,160.832771 L1092.25353,142.173447 L1073.91615,126.678228 Z M1059.26562,174.183031 L1040.92823,158.687812 L1047.37768,151.045225 L1074.02381,173.561387 L1047.68719,199.915541 L1040.61872,192.842355 L1059.26562,174.183031 Z M1124.24181,110.163863 L1105.90443,94.6686441 L1112.35387,87.0260566 L1139,109.542219 L1112.66339,135.896372 L1105.59491,128.823187 L1124.24181,110.163863 Z M1011.737,171.691706 L993.399611,187.186925 L1012.04652,205.846248 L1004.97804,212.919434 L978.641425,186.56528 L1005.28755,164.049118 L1011.737,171.691706 Z M1076.71319,107.672538 L1058.3758,123.167756 L1077.02271,141.82708 L1069.95423,148.900266 L1043.61762,122.546112 L1070.26375,100.02995 L1076.71319,107.672538 Z M1025.38789,155.177341 L1044.0348,173.836664 L1036.96632,180.90985 L1010.6297,154.555696 L1037.27583,132.039534 L1043.72528,139.682122 L1025.38789,155.177341 Z M1090.36408,91.1581724 L1109.01099,109.817496 L1101.94251,116.890682 L1075.6059,90.5365283 L1102.25203,68.0203661 L1108.70147,75.6629535 L1090.36408,91.1581724 Z M942.964127,252.715965 L949.413572,245.073378 L976.059701,267.58954 L949.723088,293.943694 L942.65461,286.870508 L961.301515,268.211184 L942.964127,252.715965 Z M993.289795,236.2016 L974.952406,220.706381 L981.401851,213.063794 L1008.04798,235.579956 L981.711368,261.93411 L974.64289,254.860924 L993.289795,236.2016 Z M945.761173,233.710275 L927.423785,249.205494 L946.070689,267.864818 L939.002212,274.938003 L912.665598,248.583849 L939.311728,226.067687 L945.761173,233.710275 Z M959.412064,217.19591 L978.058969,235.855234 L970.990491,242.928419 L944.653878,216.574265 L971.300007,194.058103 L977.749453,201.700691 L959.412064,217.19591 Z"></path>
                                <path d="M1005.25091,380.74292 L1011.70036,373.100333 L1038.34649,395.616495 L1012.00988,421.970649 L1004.9414,414.897463 L1023.5883,396.238139 L1005.25091,380.74292 Z M1070.22711,316.723752 L1076.67655,309.081165 L1103.32268,331.597327 L1076.98607,357.951481 L1069.91759,350.878295 L1088.56449,332.218971 L1070.22711,316.723752 Z M1055.57658,364.228555 L1037.23919,348.733336 L1043.68864,341.090749 L1070.33477,363.606911 L1043.99815,389.961065 L1036.92968,382.887879 L1055.57658,364.228555 Z M1120.55277,300.209387 L1102.21539,284.714168 L1108.66483,277.071581 L1135.31096,299.587743 L1108.97435,325.941897 L1101.90587,318.868711 L1120.55277,300.209387 Z M1008.04796,361.73723 L989.710572,377.232449 L1008.35748,395.891773 L1001.289,402.964958 L974.952385,376.610805 L1001.59851,354.094642 L1008.04796,361.73723 Z M1073.02415,297.718062 L1054.68676,313.213281 L1073.33367,331.872605 L1066.26519,338.94579 L1039.92858,312.591637 L1066.57471,290.075474 L1073.02415,297.718062 Z M1021.69885,345.222865 L1040.34576,363.882189 L1033.27728,370.955374 L1006.94066,344.601221 L1033.58679,322.085058 L1040.03624,329.727646 L1021.69885,345.222865 Z M1086.67504,281.203697 L1105.32195,299.863021 L1098.25347,306.936206 L1071.91686,280.582052 L1098.56299,258.06589 L1105.01243,265.708478 L1086.67504,281.203697 Z M939.275087,442.76149 L945.724532,435.118902 L972.370662,457.635064 L946.034049,483.989218 L938.965571,476.916032 L957.612476,458.256708 L939.275087,442.76149 Z M989.600755,426.247124 L971.263367,410.751905 L977.712812,403.109318 L1004.35894,425.62548 L978.022328,451.979634 L970.95385,444.906448 L989.600755,426.247124 Z M942.072134,423.755799 L923.734745,439.251018 L942.38165,457.910342 L935.313172,464.983527 L908.976559,438.629374 L935.622689,416.113212 L942.072134,423.755799 Z M955.723025,407.241434 L974.369929,425.900758 L967.301452,432.973943 L940.964838,406.61979 L967.610968,384.103628 L974.060413,391.746215 L955.723025,407.241434 Z M941.274355,348.733336 L947.7238,341.090749 L974.369929,363.606911 L948.033316,389.961065 L940.964838,382.887879 L959.611743,364.228555 L941.274355,348.733336 Z M1006.25055,284.714168 L1012.69999,277.071581 L1039.34612,299.587743 L1013.00951,325.941897 L1005.94103,318.868711 L1024.58794,300.209387 L1006.25055,284.714168 Z M991.600023,332.218971 L973.262634,316.723752 L979.712079,309.081165 L1006.35821,331.597327 L980.021596,357.951481 L972.953118,350.878295 L991.600023,332.218971 Z M1056.57622,268.199803 L1038.23883,252.704584 L1044.68827,245.061997 L1071.3344,267.578159 L1044.99779,293.932313 L1037.92931,286.859127 L1056.57622,268.199803 Z M944.071401,329.727646 L925.734013,345.222865 L944.380917,363.882189 L937.31244,370.955374 L910.975826,344.601221 L937.621956,322.085058 L944.071401,329.727646 Z M1009.04759,265.708478 L990.710205,281.203697 L1009.35711,299.863021 L1002.28863,306.936206 L975.952019,280.582052 L1002.59815,258.06589 L1009.04759,265.708478 Z M957.722292,313.213281 L976.369197,331.872605 L969.300719,338.94579 L942.964106,312.591637 L969.610235,290.075474 L976.059681,297.718062 L957.722292,313.213281 Z M1022.69848,249.194113 L1041.34539,267.853437 L1034.27691,274.926622 L1007.9403,248.572468 L1034.58643,226.056306 L1041.03587,233.698894 L1022.69848,249.194113 Z M875.298528,410.751905 L881.747974,403.109318 L908.394103,425.62548 L882.05749,451.979634 L874.989012,444.906448 L893.635917,426.247124 L875.298528,410.751905 Z M925.624196,394.23754 L907.286808,378.742321 L913.736253,371.099734 L940.382383,393.615896 L914.045769,419.97005 L906.977291,412.896864 L925.624196,394.23754 Z M878.095575,391.746215 L859.758186,407.241434 L878.405091,425.900758 L871.336613,432.973943 L845,406.61979 L871.64613,384.103628 L878.095575,391.746215 Z M891.746466,375.23185 L910.393371,393.891174 L903.324893,400.964359 L876.988279,374.610206 L903.634409,352.094043 L910.083854,359.736631 L891.746466,375.23185 Z M1202.17876,380.74292 L1208.6282,373.100333 L1235.27433,395.616495 L1208.93772,421.970649 L1201.86924,414.897463 L1220.51615,396.238139 L1202.17876,380.74292 Z M1267.15495,316.723752 L1273.6044,309.081165 L1300.25053,331.597327 L1273.91391,357.951481 L1266.84544,350.878295 L1285.49234,332.218971 L1267.15495,316.723752 Z M1252.50443,364.228555 L1234.16704,348.733336 L1240.61648,341.090749 L1267.26261,363.606911 L1240.926,389.961065 L1233.85752,382.887879 L1252.50443,364.228555 Z M1317.48062,300.209387 L1299.14323,284.714168 L1305.59268,277.071581 L1332.23881,299.587743 L1305.90219,325.941897 L1298.83371,318.868711 L1317.48062,300.209387 Z M1204.97581,361.73723 L1186.63842,377.232449 L1205.28532,395.891773 L1198.21684,402.964958 L1171.88023,376.610805 L1198.52636,354.094642 L1204.97581,361.73723 Z M1269.952,297.718062 L1251.61461,313.213281 L1270.26151,331.872605 L1263.19304,338.94579 L1236.85642,312.591637 L1263.50255,290.075474 L1269.952,297.718062 Z M1218.6267,345.222865 L1237.2736,363.882189 L1230.20512,370.955374 L1203.86851,344.601221 L1230.51464,322.085058 L1236.96408,329.727646 L1218.6267,345.222865 Z M1283.60289,281.203697 L1302.24979,299.863021 L1295.18132,306.936206 L1268.8447,280.582052 L1295.49083,258.06589 L1301.94028,265.708478 L1283.60289,281.203697 Z M1136.20293,442.76149 L1142.65238,435.118902 L1169.29851,457.635064 L1142.96189,483.989218 L1135.89342,476.916032 L1154.54032,458.256708 L1136.20293,442.76149 Z M1186.5286,426.247124 L1168.19121,410.751905 L1174.64066,403.109318 L1201.28679,425.62548 L1174.95017,451.979634 L1167.8817,444.906448 L1186.5286,426.247124 Z M1138.99998,423.755799 L1120.66259,439.251018 L1139.3095,457.910342 L1132.24102,464.983527 L1105.9044,438.629374 L1132.55053,416.113212 L1138.99998,423.755799 Z M1152.65087,407.241434 L1171.29777,425.900758 L1164.2293,432.973943 L1137.89268,406.61979 L1164.53881,384.103628 L1170.98826,391.746215 L1152.65087,407.241434 Z M1066.22857,416.753703 L1072.67802,409.111115 L1099.32415,431.627277 L1072.98753,457.981431 L1065.91906,450.908245 L1084.56596,432.248921 L1066.22857,416.753703 Z M1131.20476,352.734534 L1137.65421,345.091947 L1164.30034,367.608109 L1137.96373,393.962263 L1130.89525,386.889077 L1149.54215,368.229753 L1131.20476,352.734534 Z M1116.55424,400.239337 L1098.21685,384.744118 L1104.6663,377.101531 L1131.31243,399.617693 L1104.97581,425.971847 L1097.90733,418.898661 L1116.55424,400.239337 Z M1181.53043,336.220169 L1163.19304,320.72495 L1169.64249,313.082363 L1196.28862,335.598525 L1169.95201,361.952679 L1162.88353,354.879493 L1181.53043,336.220169 Z M1069.02562,397.748012 L1050.68823,413.243231 L1069.33513,431.902555 L1062.26666,438.97574 L1035.93004,412.621587 L1062.57617,390.105425 L1069.02562,397.748012 Z M1134.00181,333.728844 L1115.66442,349.224063 L1134.31133,367.883387 L1127.24285,374.956572 L1100.90624,348.602419 L1127.55237,326.086256 L1134.00181,333.728844 Z M1082.67651,381.233647 L1101.32341,399.892971 L1094.25494,406.966156 L1067.91832,380.612003 L1094.56445,358.09584 L1101.0139,365.738428 L1082.67651,381.233647 Z M1147.6527,317.214479 L1166.29961,335.873803 L1159.23113,342.946988 L1132.89452,316.592835 L1159.54064,294.076672 L1165.99009,301.71926 L1147.6527,317.214479 Z M1000.25275,478.772272 L1006.70219,471.129684 L1033.34832,493.645846 L1007.01171,520 L999.943229,512.926814 L1018.59013,494.267491 L1000.25275,478.772272 Z M1050.57841,462.257906 L1032.24102,446.762688 L1038.69047,439.1201 L1065.3366,461.636262 L1038.99999,487.990416 L1031.93151,480.91723 L1050.57841,462.257906 Z M1003.04979,459.766581 L984.712403,475.2618 L1003.35931,493.921124 L996.29083,500.994309 L969.954217,474.640156 L996.600346,452.123994 L1003.04979,459.766581 Z M1016.70068,443.252216 L1035.34759,461.91154 L1028.27911,468.984725 L1001.9425,442.630572 L1028.58863,420.11441 L1035.03807,427.756997 L1016.70068,443.252216 Z M1263.15642,416.753703 L1269.60586,409.111115 L1296.25199,431.627277 L1269.91538,457.981431 L1262.8469,450.908245 L1281.49381,432.248921 L1263.15642,416.753703 Z M1328.13261,352.734534 L1334.58205,345.091947 L1361.22818,367.608109 L1334.89157,393.962263 L1327.82309,386.889077 L1346.47,368.229753 L1328.13261,352.734534 Z M1313.48208,400.239337 L1295.1447,384.744118 L1301.59414,377.101531 L1328.24027,399.617693 L1301.90366,425.971847 L1294.83518,418.898661 L1313.48208,400.239337 Z M1378.45828,336.220169 L1360.12089,320.72495 L1366.57033,313.082363 L1393.21646,335.598525 L1366.87985,361.952679 L1359.81137,354.879493 L1378.45828,336.220169 Z M1265.95346,397.748012 L1247.61607,413.243231 L1266.26298,431.902555 L1259.1945,438.97574 L1232.85789,412.621587 L1259.50402,390.105425 L1265.95346,397.748012 Z M1330.92966,333.728844 L1312.59227,349.224063 L1331.23917,367.883387 L1324.17069,374.956572 L1297.83408,348.602419 L1324.48021,326.086256 L1330.92966,333.728844 Z M1279.60435,381.233647 L1298.25126,399.892971 L1291.18278,406.966156 L1264.84617,380.612003 L1291.4923,358.09584 L1297.94174,365.738428 L1279.60435,381.233647 Z M1344.58055,317.214479 L1363.22745,335.873803 L1356.15897,342.946988 L1329.82236,316.592835 L1356.46849,294.076672 L1362.91794,301.71926 L1344.58055,317.214479 Z M1197.18059,478.772272 L1203.63004,471.129684 L1230.27617,493.645846 L1203.93955,520 L1196.87107,512.926814 L1215.51798,494.267491 L1197.18059,478.772272 Z M1247.50626,462.257906 L1229.16887,446.762688 L1235.61832,439.1201 L1262.26444,461.636262 L1235.92783,487.990416 L1228.85935,480.91723 L1247.50626,462.257906 Z M1199.97764,459.766581 L1181.64025,475.2618 L1200.28715,493.921124 L1193.21868,500.994309 L1166.88206,474.640156 L1193.52819,452.123994 L1199.97764,459.766581 Z M1213.62853,443.252216 L1232.27543,461.91154 L1225.20695,468.984725 L1198.87034,442.630572 L1225.51647,420.11441 L1231.96592,427.756997 L1213.62853,443.252216 Z M1399.1066,380.74292 L1405.55605,373.100333 L1432.20218,395.616495 L1405.86557,421.970649 L1398.79709,414.897463 L1417.44399,396.238139 L1399.1066,380.74292 Z M1464.0828,316.723752 L1470.53224,309.081165 L1497.17837,331.597327 L1470.84176,357.951481 L1463.77328,350.878295 L1482.42019,332.218971 L1464.0828,316.723752 Z M1449.43227,364.228555 L1431.09488,348.733336 L1437.54433,341.090749 L1464.19046,363.606911 L1437.85385,389.961065 L1430.78537,382.887879 L1449.43227,364.228555 Z M1514.40847,300.209387 L1496.07108,284.714168 L1502.52052,277.071581 L1529.16665,299.587743 L1502.83004,325.941897 L1495.76156,318.868711 L1514.40847,300.209387 Z M1401.90365,361.73723 L1383.56626,377.232449 L1402.21317,395.891773 L1395.14469,402.964958 L1368.80808,376.610805 L1395.45421,354.094642 L1401.90365,361.73723 Z M1466.87984,297.718062 L1448.54246,313.213281 L1467.18936,331.872605 L1460.12088,338.94579 L1433.78427,312.591637 L1460.4304,290.075474 L1466.87984,297.718062 Z M1415.55454,345.222865 L1434.20145,363.882189 L1427.13297,370.955374 L1400.79636,344.601221 L1427.44249,322.085058 L1433.89193,329.727646 L1415.55454,345.222865 Z M1480.53073,281.203697 L1499.17764,299.863021 L1492.10916,306.936206 L1465.77255,280.582052 L1492.41868,258.06589 L1498.86812,265.708478 L1480.53073,281.203697 Z M1333.13078,442.76149 L1339.58022,435.118902 L1366.22635,457.635064 L1339.88974,483.989218 L1332.82126,476.916032 L1351.46817,458.256708 L1333.13078,442.76149 Z M1383.45645,426.247124 L1365.11906,410.751905 L1371.5685,403.109318 L1398.21463,425.62548 L1371.87802,451.979634 L1364.80954,444.906448 L1383.45645,426.247124 Z M1335.92782,423.755799 L1317.59044,439.251018 L1336.23734,457.910342 L1329.16886,464.983527 L1302.83225,438.629374 L1329.47838,416.113212 L1335.92782,423.755799 Z M1349.57872,407.241434 L1368.22562,425.900758 L1361.15714,432.973943 L1334.82053,406.61979 L1361.46666,384.103628 L1367.9161,391.746215 L1349.57872,407.241434 Z M1460.08426,416.753703 L1466.53371,409.111115 L1493.17984,431.627277 L1466.84322,457.981431 L1459.77475,450.908245 L1478.42165,432.248921 L1460.08426,416.753703 Z M1525.06045,352.734534 L1531.5099,345.091947 L1558.15603,367.608109 L1531.81942,393.962263 L1524.75094,386.889077 L1543.39784,368.229753 L1525.06045,352.734534 Z M1510.40993,400.239337 L1492.07254,384.744118 L1498.52199,377.101531 L1525.16812,399.617693 L1498.8315,425.971847 L1491.76303,418.898661 L1510.40993,400.239337 Z M1575.38612,336.220169 L1557.04873,320.72495 L1563.49818,313.082363 L1590.14431,335.598525 L1563.8077,361.952679 L1556.73922,354.879493 L1575.38612,336.220169 Z M1462.88131,397.748012 L1444.54392,413.243231 L1463.19083,431.902555 L1456.12235,438.97574 L1429.78573,412.621587 L1456.43186,390.105425 L1462.88131,397.748012 Z M1527.8575,333.728844 L1509.52011,349.224063 L1528.16702,367.883387 L1521.09854,374.956572 L1494.76193,348.602419 L1521.40806,326.086256 L1527.8575,333.728844 Z M1476.5322,381.233647 L1495.1791,399.892971 L1488.11063,406.966156 L1461.77401,380.612003 L1488.42014,358.09584 L1494.86959,365.738428 L1476.5322,381.233647 Z M1541.50839,317.214479 L1560.1553,335.873803 L1553.08682,342.946988 L1526.75021,316.592835 L1553.39634,294.076672 L1559.84578,301.71926 L1541.50839,317.214479 Z M1394.10844,478.772272 L1400.55788,471.129684 L1427.20401,493.645846 L1400.8674,520 L1393.79892,512.926814 L1412.44582,494.267491 L1394.10844,478.772272 Z M1444.4341,462.257906 L1426.09672,446.762688 L1432.54616,439.1201 L1459.19229,461.636262 L1432.85568,487.990416 L1425.7872,480.91723 L1444.4341,462.257906 Z M1396.90548,459.766581 L1378.56809,475.2618 L1397.215,493.921124 L1390.14652,500.994309 L1363.80991,474.640156 L1390.45604,452.123994 L1396.90548,459.766581 Z M1410.55637,443.252216 L1429.20328,461.91154 L1422.1348,468.984725 L1395.79819,442.630572 L1422.44432,420.11441 L1428.89376,427.756997 L1410.55637,443.252216 Z M1596.03445,380.74292 L1602.4839,373.100333 L1629.13002,395.616495 L1602.79341,421.970649 L1595.72493,414.897463 L1614.37184,396.238139 L1596.03445,380.74292 Z M1661.01064,316.723752 L1667.46009,309.081165 L1694.10622,331.597327 L1667.7696,357.951481 L1660.70113,350.878295 L1679.34803,332.218971 L1661.01064,316.723752 Z M1646.36012,364.228555 L1628.02273,348.733336 L1634.47217,341.090749 L1661.1183,363.606911 L1634.78169,389.961065 L1627.71321,382.887879 L1646.36012,364.228555 Z M1711.33631,300.209387 L1692.99892,284.714168 L1699.44837,277.071581 L1726.0945,299.587743 L1699.75788,325.941897 L1692.68941,318.868711 L1711.33631,300.209387 Z M1598.8315,361.73723 L1580.49411,377.232449 L1599.14101,395.891773 L1592.07253,402.964958 L1565.73592,376.610805 L1592.38205,354.094642 L1598.8315,361.73723 Z M1663.80769,297.718062 L1645.4703,313.213281 L1664.11721,331.872605 L1657.04873,338.94579 L1630.71211,312.591637 L1657.35824,290.075474 L1663.80769,297.718062 Z M1612.48239,345.222865 L1631.12929,363.882189 L1624.06081,370.955374 L1597.7242,344.601221 L1624.37033,322.085058 L1630.81978,329.727646 L1612.48239,345.222865 Z M1677.45858,281.203697 L1696.10548,299.863021 L1689.03701,306.936206 L1662.70039,280.582052 L1689.34652,258.06589 L1695.79597,265.708478 L1677.45858,281.203697 Z M1530.05862,442.76149 L1536.50807,435.118902 L1563.1542,457.635064 L1536.81759,483.989218 L1529.74911,476.916032 L1548.39601,458.256708 L1530.05862,442.76149 Z M1580.38429,426.247124 L1562.0469,410.751905 L1568.49635,403.109318 L1595.14248,425.62548 L1568.80586,451.979634 L1561.73739,444.906448 L1580.38429,426.247124 Z M1532.85567,423.755799 L1514.51828,439.251018 L1533.16519,457.910342 L1526.09671,464.983527 L1499.7601,438.629374 L1526.40622,416.113212 L1532.85567,423.755799 Z M1546.50656,407.241434 L1565.15347,425.900758 L1558.08499,432.973943 L1531.74837,406.61979 L1558.3945,384.103628 L1564.84395,391.746215 L1546.50656,407.241434 Z M1657.01211,416.753703 L1663.46155,409.111115 L1690.10768,431.627277 L1663.77107,457.981431 L1656.70259,450.908245 L1675.3495,432.248921 L1657.01211,416.753703 Z M1721.9883,352.734534 L1728.43775,345.091947 L1755.08388,367.608109 L1728.74726,393.962263 L1721.67878,386.889077 L1740.32569,368.229753 L1721.9883,352.734534 Z M1707.33778,400.239337 L1689.00039,384.744118 L1695.44983,377.101531 L1722.09596,399.617693 L1695.75935,425.971847 L1688.69087,418.898661 L1707.33778,400.239337 Z M1772.31397,336.220169 L1753.97658,320.72495 L1760.42602,313.082363 L1787.07215,335.598525 L1760.73554,361.952679 L1753.66706,354.879493 L1772.31397,336.220169 Z M1659.80915,397.748012 L1641.47177,413.243231 L1660.11867,431.902555 L1653.05019,438.97574 L1626.71358,412.621587 L1653.35971,390.105425 L1659.80915,397.748012 Z M1724.78535,333.728844 L1706.44796,349.224063 L1725.09486,367.883387 L1718.02639,374.956572 L1691.68977,348.602419 L1718.3359,326.086256 L1724.78535,333.728844 Z M1673.46005,381.233647 L1692.10695,399.892971 L1685.03847,406.966156 L1658.70186,380.612003 L1685.34799,358.09584 L1691.79743,365.738428 L1673.46005,381.233647 Z M1738.43624,317.214479 L1757.08314,335.873803 L1750.01466,342.946988 L1723.67805,316.592835 L1750.32418,294.076672 L1756.77363,301.71926 L1738.43624,317.214479 Z M1591.03628,478.772272 L1597.48573,471.129684 L1624.13186,493.645846 L1597.79524,520 L1590.72676,512.926814 L1609.37367,494.267491 L1591.03628,478.772272 Z M1641.36195,462.257906 L1623.02456,446.762688 L1629.47401,439.1201 L1656.12014,461.636262 L1629.78352,487.990416 L1622.71504,480.91723 L1641.36195,462.257906 Z M1593.83333,459.766581 L1575.49594,475.2618 L1594.14284,493.921124 L1587.07437,500.994309 L1560.73775,474.640156 L1587.38388,452.123994 L1593.83333,459.766581 Z M1607.48422,443.252216 L1626.13112,461.91154 L1619.06265,468.984725 L1592.72603,442.630572 L1619.37216,420.11441 L1625.82161,427.756997 L1607.48422,443.252216 Z M1202.17876,192.686614 L1208.6282,185.044027 L1235.27433,207.560189 L1208.93772,233.914343 L1201.86924,226.841157 L1220.51615,208.181833 L1202.17876,192.686614 Z M1267.15495,128.667446 L1273.6044,121.024859 L1300.25053,143.541021 L1273.91391,169.895174 L1266.84544,162.821989 L1285.49234,144.162665 L1267.15495,128.667446 Z M1252.50443,176.172249 L1234.16704,160.67703 L1240.61648,153.034443 L1267.26261,175.550605 L1240.926,201.904759 L1233.85752,194.831573 L1252.50443,176.172249 Z M1317.48062,112.153081 L1299.14323,96.657862 L1305.59268,89.0152746 L1332.23881,111.531437 L1305.90219,137.88559 L1298.83371,130.812405 L1317.48062,112.153081 Z M1204.97581,173.680924 L1186.63842,189.176143 L1205.28532,207.835466 L1198.21684,214.908652 L1171.88023,188.554498 L1198.52636,166.038336 L1204.97581,173.680924 Z M1269.952,109.661756 L1251.61461,125.156974 L1270.26151,143.816298 L1263.19304,150.889484 L1236.85642,124.53533 L1263.50255,102.019168 L1269.952,109.661756 Z M1218.6267,157.166558 L1237.2736,175.825882 L1230.20512,182.899068 L1203.86851,156.544914 L1230.51464,134.028752 L1236.96408,141.67134 L1218.6267,157.166558 Z M1283.60289,93.1473904 L1302.24979,111.806714 L1295.18132,118.8799 L1268.8447,92.5257462 L1295.49083,70.009584 L1301.94028,77.6521715 L1283.60289,93.1473904 Z M1136.20293,254.705183 L1142.65238,247.062596 L1169.29851,269.578758 L1142.96189,295.932912 L1135.89342,288.859726 L1154.54032,270.200402 L1136.20293,254.705183 Z M1186.5286,238.190818 L1168.19121,222.695599 L1174.64066,215.053012 L1201.28679,237.569174 L1174.95017,263.923328 L1167.8817,256.850142 L1186.5286,238.190818 Z M1138.99998,235.699493 L1120.66259,251.194712 L1139.3095,269.854036 L1132.24102,276.927221 L1105.9044,250.573067 L1132.55053,228.056905 L1138.99998,235.699493 Z M1152.65087,219.185128 L1171.29777,237.844451 L1164.2293,244.917637 L1137.89268,218.563483 L1164.53881,196.047321 L1170.98826,203.689909 L1152.65087,219.185128 Z M1138.2022,160.67703 L1144.65165,153.034443 L1171.29777,175.550605 L1144.96116,201.904759 L1137.89268,194.831573 L1156.53959,176.172249 L1138.2022,160.67703 Z M1203.17839,96.657862 L1209.62784,89.0152746 L1236.27397,111.531437 L1209.93735,137.88559 L1202.86888,130.812405 L1221.51578,112.153081 L1203.17839,96.657862 Z M1188.52787,144.162665 L1170.19048,128.667446 L1176.63992,121.024859 L1203.28605,143.541021 L1176.94944,169.895174 L1169.88096,162.821989 L1188.52787,144.162665 Z M1253.50406,80.1434969 L1235.16667,64.648278 L1241.61612,57.0056905 L1268.26225,79.5218527 L1241.92563,105.876006 L1234.85716,98.8028208 L1253.50406,80.1434969 Z M1140.99925,141.67134 L1122.66186,157.166558 L1141.30876,175.825882 L1134.24029,182.899068 L1107.90367,156.544914 L1134.5498,134.028752 L1140.99925,141.67134 Z M1205.97544,77.6521715 L1187.63805,93.1473904 L1206.28496,111.806714 L1199.21648,118.8799 L1172.87986,92.5257462 L1199.52599,70.009584 L1205.97544,77.6521715 Z M1154.65014,125.156974 L1173.29704,143.816298 L1166.22856,150.889484 L1139.89195,124.53533 L1166.53808,102.019168 L1172.98753,109.661756 L1154.65014,125.156974 Z M1219.62633,61.1378063 L1238.27324,79.7971302 L1231.20476,86.8703158 L1204.86814,60.5161622 L1231.51427,38 L1237.96372,45.6425874 L1219.62633,61.1378063 Z M1072.22637,222.695599 L1078.67582,215.053012 L1105.32195,237.569174 L1078.98534,263.923328 L1071.91686,256.850142 L1090.56376,238.190818 L1072.22637,222.695599 Z M1122.55204,206.181234 L1104.21465,190.686015 L1110.6641,183.043428 L1137.31023,205.55959 L1110.97361,231.913744 L1103.90514,224.840558 L1122.55204,206.181234 Z M1075.02342,203.689909 L1056.68603,219.185128 L1075.33294,237.844451 L1068.26446,244.917637 L1041.92785,218.563483 L1068.57398,196.047321 L1075.02342,203.689909 Z M1088.67431,187.175544 L1107.32122,205.834867 L1100.25274,212.908053 L1073.91612,186.553899 L1100.56225,164.037737 L1107.0117,171.680325 L1088.67431,187.175544 Z M1399.1066,192.686614 L1405.55605,185.044027 L1432.20218,207.560189 L1405.86557,233.914343 L1398.79709,226.841157 L1417.44399,208.181833 L1399.1066,192.686614 Z M1464.0828,128.667446 L1470.53224,121.024859 L1497.17837,143.541021 L1470.84176,169.895174 L1463.77328,162.821989 L1482.42019,144.162665 L1464.0828,128.667446 Z M1449.43227,176.172249 L1431.09488,160.67703 L1437.54433,153.034443 L1464.19046,175.550605 L1437.85385,201.904759 L1430.78537,194.831573 L1449.43227,176.172249 Z M1514.40847,112.153081 L1496.07108,96.657862 L1502.52052,89.0152746 L1529.16665,111.531437 L1502.83004,137.88559 L1495.76156,130.812405 L1514.40847,112.153081 Z M1401.90365,173.680924 L1383.56626,189.176143 L1402.21317,207.835466 L1395.14469,214.908652 L1368.80808,188.554498 L1395.45421,166.038336 L1401.90365,173.680924 Z M1466.87984,109.661756 L1448.54246,125.156974 L1467.18936,143.816298 L1460.12088,150.889484 L1433.78427,124.53533 L1460.4304,102.019168 L1466.87984,109.661756 Z M1415.55454,157.166558 L1434.20145,175.825882 L1427.13297,182.899068 L1400.79636,156.544914 L1427.44249,134.028752 L1433.89193,141.67134 L1415.55454,157.166558 Z M1480.53073,93.1473904 L1499.17764,111.806714 L1492.10916,118.8799 L1465.77255,92.5257462 L1492.41868,70.009584 L1498.86812,77.6521715 L1480.53073,93.1473904 Z M1333.13078,254.705183 L1339.58022,247.062596 L1366.22635,269.578758 L1339.88974,295.932912 L1332.82126,288.859726 L1351.46817,270.200402 L1333.13078,254.705183 Z M1383.45645,238.190818 L1365.11906,222.695599 L1371.5685,215.053012 L1398.21463,237.569174 L1371.87802,263.923328 L1364.80954,256.850142 L1383.45645,238.190818 Z M1335.92782,235.699493 L1317.59044,251.194712 L1336.23734,269.854036 L1329.16886,276.927221 L1302.83225,250.573067 L1329.47838,228.056905 L1335.92782,235.699493 Z M1349.57872,219.185128 L1368.22562,237.844451 L1361.15714,244.917637 L1334.82053,218.563483 L1361.46666,196.047321 L1367.9161,203.689909 L1349.57872,219.185128 Z M1263.15642,228.697396 L1269.60586,221.054809 L1296.25199,243.570971 L1269.91538,269.925125 L1262.8469,262.851939 L1281.49381,244.192615 L1263.15642,228.697396 Z M1328.13261,164.678228 L1334.58205,157.035641 L1361.22818,179.551803 L1334.89157,205.905957 L1327.82309,198.832771 L1346.47,180.173447 L1328.13261,164.678228 Z M1313.48208,212.183031 L1295.1447,196.687812 L1301.59414,189.045225 L1328.24027,211.561387 L1301.90366,237.915541 L1294.83518,230.842355 L1313.48208,212.183031 Z M1378.45828,148.163863 L1360.12089,132.668644 L1366.57033,125.026057 L1393.21646,147.542219 L1366.87985,173.896372 L1359.81137,166.823187 L1378.45828,148.163863 Z M1265.95346,209.691706 L1247.61607,225.186925 L1266.26298,243.846248 L1259.1945,250.919434 L1232.85789,224.56528 L1259.50402,202.049118 L1265.95346,209.691706 Z M1330.92966,145.672538 L1312.59227,161.167756 L1331.23917,179.82708 L1324.17069,186.900266 L1297.83408,160.546112 L1324.48021,138.02995 L1330.92966,145.672538 Z M1279.60435,193.177341 L1298.25126,211.836664 L1291.18278,218.90985 L1264.84617,192.555696 L1291.4923,170.039534 L1297.94174,177.682122 L1279.60435,193.177341 Z M1344.58055,129.158172 L1363.22745,147.817496 L1356.15897,154.890682 L1329.82236,128.536528 L1356.46849,106.020366 L1362.91794,113.662954 L1344.58055,129.158172 Z M1197.18059,290.715965 L1203.63004,283.073378 L1230.27617,305.58954 L1203.93955,331.943694 L1196.87107,324.870508 L1215.51798,306.211184 L1197.18059,290.715965 Z M1247.50626,274.2016 L1229.16887,258.706381 L1235.61832,251.063794 L1262.26444,273.579956 L1235.92783,299.93411 L1228.85935,292.860924 L1247.50626,274.2016 Z M1199.97764,271.710275 L1181.64025,287.205494 L1200.28715,305.864818 L1193.21868,312.938003 L1166.88206,286.583849 L1193.52819,264.067687 L1199.97764,271.710275 Z M1213.62853,255.19591 L1232.27543,273.855234 L1225.20695,280.928419 L1198.87034,254.574265 L1225.51647,232.058103 L1231.96592,239.700691 L1213.62853,255.19591 Z M1460.08426,228.697396 L1466.53371,221.054809 L1493.17984,243.570971 L1466.84322,269.925125 L1459.77475,262.851939 L1478.42165,244.192615 L1460.08426,228.697396 Z M1525.06045,164.678228 L1531.5099,157.035641 L1558.15603,179.551803 L1531.81942,205.905957 L1524.75094,198.832771 L1543.39784,180.173447 L1525.06045,164.678228 Z M1510.40993,212.183031 L1492.07254,196.687812 L1498.52199,189.045225 L1525.16812,211.561387 L1498.8315,237.915541 L1491.76303,230.842355 L1510.40993,212.183031 Z M1575.38612,148.163863 L1557.04873,132.668644 L1563.49818,125.026057 L1590.14431,147.542219 L1563.8077,173.896372 L1556.73922,166.823187 L1575.38612,148.163863 Z M1462.88131,209.691706 L1444.54392,225.186925 L1463.19083,243.846248 L1456.12235,250.919434 L1429.78573,224.56528 L1456.43186,202.049118 L1462.88131,209.691706 Z M1527.8575,145.672538 L1509.52011,161.167756 L1528.16702,179.82708 L1521.09854,186.900266 L1494.76193,160.546112 L1521.40806,138.02995 L1527.8575,145.672538 Z M1476.5322,193.177341 L1495.1791,211.836664 L1488.11063,218.90985 L1461.77401,192.555696 L1488.42014,170.039534 L1494.86959,177.682122 L1476.5322,193.177341 Z M1541.50839,129.158172 L1560.1553,147.817496 L1553.08682,154.890682 L1526.75021,128.536528 L1553.39634,106.020366 L1559.84578,113.662954 L1541.50839,129.158172 Z M1394.10844,290.715965 L1400.55788,283.073378 L1427.20401,305.58954 L1400.8674,331.943694 L1393.79892,324.870508 L1412.44582,306.211184 L1394.10844,290.715965 Z M1444.4341,274.2016 L1426.09672,258.706381 L1432.54616,251.063794 L1459.19229,273.579956 L1432.85568,299.93411 L1425.7872,292.860924 L1444.4341,274.2016 Z M1396.90548,271.710275 L1378.56809,287.205494 L1397.215,305.864818 L1390.14652,312.938003 L1363.80991,286.583849 L1390.45604,264.067687 L1396.90548,271.710275 Z M1410.55637,255.19591 L1429.20328,273.855234 L1422.1348,280.928419 L1395.79819,254.574265 L1422.44432,232.058103 L1428.89376,239.700691 L1410.55637,255.19591 Z M1596.03445,192.686614 L1602.4839,185.044027 L1629.13002,207.560189 L1602.79341,233.914343 L1595.72493,226.841157 L1614.37184,208.181833 L1596.03445,192.686614 Z M1661.01064,128.667446 L1667.46009,121.024859 L1694.10622,143.541021 L1667.7696,169.895174 L1660.70113,162.821989 L1679.34803,144.162665 L1661.01064,128.667446 Z M1646.36012,176.172249 L1628.02273,160.67703 L1634.47217,153.034443 L1661.1183,175.550605 L1634.78169,201.904759 L1627.71321,194.831573 L1646.36012,176.172249 Z M1711.33631,112.153081 L1692.99892,96.657862 L1699.44837,89.0152746 L1726.0945,111.531437 L1699.75788,137.88559 L1692.68941,130.812405 L1711.33631,112.153081 Z M1598.8315,173.680924 L1580.49411,189.176143 L1599.14101,207.835466 L1592.07253,214.908652 L1565.73592,188.554498 L1592.38205,166.038336 L1598.8315,173.680924 Z M1663.80769,109.661756 L1645.4703,125.156974 L1664.11721,143.816298 L1657.04873,150.889484 L1630.71211,124.53533 L1657.35824,102.019168 L1663.80769,109.661756 Z M1612.48239,157.166558 L1631.12929,175.825882 L1624.06081,182.899068 L1597.7242,156.544914 L1624.37033,134.028752 L1630.81978,141.67134 L1612.48239,157.166558 Z M1677.45858,93.1473904 L1696.10548,111.806714 L1689.03701,118.8799 L1662.70039,92.5257462 L1689.34652,70.009584 L1695.79597,77.6521715 L1677.45858,93.1473904 Z M1530.05862,254.705183 L1536.50807,247.062596 L1563.1542,269.578758 L1536.81759,295.932912 L1529.74911,288.859726 L1548.39601,270.200402 L1530.05862,254.705183 Z M1580.38429,238.190818 L1562.0469,222.695599 L1568.49635,215.053012 L1595.14248,237.569174 L1568.80586,263.923328 L1561.73739,256.850142 L1580.38429,238.190818 Z M1532.85567,235.699493 L1514.51828,251.194712 L1533.16519,269.854036 L1526.09671,276.927221 L1499.7601,250.573067 L1526.40622,228.056905 L1532.85567,235.699493 Z M1546.50656,219.185128 L1565.15347,237.844451 L1558.08499,244.917637 L1531.74837,218.563483 L1558.3945,196.047321 L1564.84395,203.689909 L1546.50656,219.185128 Z M1657.01211,228.697396 L1663.46155,221.054809 L1690.10768,243.570971 L1663.77107,269.925125 L1656.70259,262.851939 L1675.3495,244.192615 L1657.01211,228.697396 Z M1721.9883,164.678228 L1728.43775,157.035641 L1755.08388,179.551803 L1728.74726,205.905957 L1721.67878,198.832771 L1740.32569,180.173447 L1721.9883,164.678228 Z M1707.33778,212.183031 L1689.00039,196.687812 L1695.44983,189.045225 L1722.09596,211.561387 L1695.75935,237.915541 L1688.69087,230.842355 L1707.33778,212.183031 Z M1772.31397,148.163863 L1753.97658,132.668644 L1760.42602,125.026057 L1787.07215,147.542219 L1760.73554,173.896372 L1753.66706,166.823187 L1772.31397,148.163863 Z M1659.80915,209.691706 L1641.47177,225.186925 L1660.11867,243.846248 L1653.05019,250.919434 L1626.71358,224.56528 L1653.35971,202.049118 L1659.80915,209.691706 Z M1724.78535,145.672538 L1706.44796,161.167756 L1725.09486,179.82708 L1718.02639,186.900266 L1691.68977,160.546112 L1718.3359,138.02995 L1724.78535,145.672538 Z M1673.46005,193.177341 L1692.10695,211.836664 L1685.03847,218.90985 L1658.70186,192.555696 L1685.34799,170.039534 L1691.79743,177.682122 L1673.46005,193.177341 Z M1738.43624,129.158172 L1757.08314,147.817496 L1750.01466,154.890682 L1723.67805,128.536528 L1750.32418,106.020366 L1756.77363,113.662954 L1738.43624,129.158172 Z M1591.03628,290.715965 L1597.48573,283.073378 L1624.13186,305.58954 L1597.79524,331.943694 L1590.72676,324.870508 L1609.37367,306.211184 L1591.03628,290.715965 Z M1641.36195,274.2016 L1623.02456,258.706381 L1629.47401,251.063794 L1656.12014,273.579956 L1629.78352,299.93411 L1622.71504,292.860924 L1641.36195,274.2016 Z M1593.83333,271.710275 L1575.49594,287.205494 L1594.14284,305.864818 L1587.07437,312.938003 L1560.73775,286.583849 L1587.38388,264.067687 L1593.83333,271.710275 Z M1607.48422,255.19591 L1626.13112,273.855234 L1619.06265,280.928419 L1592.72603,254.574265 L1619.37216,232.058103 L1625.82161,239.700691 L1607.48422,255.19591 Z M1792.9623,192.686614 L1799.41174,185.044027 L1826.05787,207.560189 L1799.72126,233.914343 L1792.65278,226.841157 L1811.29968,208.181833 L1792.9623,192.686614 Z M1857.93849,128.667446 L1864.38793,121.024859 L1891.03406,143.541021 L1864.69745,169.895174 L1857.62897,162.821989 L1876.27588,144.162665 L1857.93849,128.667446 Z M1843.28796,176.172249 L1824.95057,160.67703 L1831.40002,153.034443 L1858.04615,175.550605 L1831.70954,201.904759 L1824.64106,194.831573 L1843.28796,176.172249 Z M1908.26416,112.153081 L1889.92677,96.657862 L1896.37621,89.0152746 L1923.02234,111.531437 L1896.68573,137.88559 L1889.61725,130.812405 L1908.26416,112.153081 Z M1795.75934,173.680924 L1777.42195,189.176143 L1796.06886,207.835466 L1789.00038,214.908652 L1762.66377,188.554498 L1789.3099,166.038336 L1795.75934,173.680924 Z M1860.73553,109.661756 L1842.39815,125.156974 L1861.04505,143.816298 L1853.97657,150.889484 L1827.63996,124.53533 L1854.28609,102.019168 L1860.73553,109.661756 Z M1809.41023,157.166558 L1828.05714,175.825882 L1820.98866,182.899068 L1794.65205,156.544914 L1821.29818,134.028752 L1827.74762,141.67134 L1809.41023,157.166558 Z M1874.38643,93.1473904 L1893.03333,111.806714 L1885.96485,118.8799 L1859.62824,92.5257462 L1886.27437,70.009584 L1892.72381,77.6521715 L1874.38643,93.1473904 Z M1726.98647,254.705183 L1733.43591,247.062596 L1760.08204,269.578758 L1733.74543,295.932912 L1726.67695,288.859726 L1745.32386,270.200402 L1726.98647,254.705183 Z M1777.31214,238.190818 L1758.97475,222.695599 L1765.42419,215.053012 L1792.07032,237.569174 L1765.73371,263.923328 L1758.66523,256.850142 L1777.31214,238.190818 Z M1729.78352,235.699493 L1711.44613,251.194712 L1730.09303,269.854036 L1723.02455,276.927221 L1696.68794,250.573067 L1723.33407,228.056905 L1729.78352,235.699493 Z M1743.43441,219.185128 L1762.08131,237.844451 L1755.01283,244.917637 L1728.67622,218.563483 L1755.32235,196.047321 L1761.77179,203.689909 L1743.43441,219.185128 Z M1853.93995,228.697396 L1860.3894,221.054809 L1887.03553,243.570971 L1860.69891,269.925125 L1853.63044,262.851939 L1872.27734,244.192615 L1853.93995,228.697396 Z M1918.91615,164.678228 L1925.36559,157.035641 L1952.01172,179.551803 L1925.67511,205.905957 L1918.60663,198.832771 L1937.25353,180.173447 L1918.91615,164.678228 Z M1904.26562,212.183031 L1885.92823,196.687812 L1892.37768,189.045225 L1919.02381,211.561387 L1892.68719,237.915541 L1885.61872,230.842355 L1904.26562,212.183031 Z M1969.24181,148.163863 L1950.90443,132.668644 L1957.35387,125.026057 L1984,147.542219 L1957.66339,173.896372 L1950.59491,166.823187 L1969.24181,148.163863 Z M1856.737,209.691706 L1838.39961,225.186925 L1857.04652,243.846248 L1849.97804,250.919434 L1823.64142,224.56528 L1850.28755,202.049118 L1856.737,209.691706 Z M1921.71319,145.672538 L1903.3758,161.167756 L1922.02271,179.82708 L1914.95423,186.900266 L1888.61762,160.546112 L1915.26375,138.02995 L1921.71319,145.672538 Z M1870.38789,193.177341 L1889.0348,211.836664 L1881.96632,218.90985 L1855.6297,192.555696 L1882.27583,170.039534 L1888.72528,177.682122 L1870.38789,193.177341 Z M1935.36408,129.158172 L1954.01099,147.817496 L1946.94251,154.890682 L1920.6059,128.536528 L1947.25203,106.020366 L1953.70147,113.662954 L1935.36408,129.158172 Z M1787.96413,290.715965 L1794.41357,283.073378 L1821.0597,305.58954 L1794.72309,331.943694 L1787.65461,324.870508 L1806.30152,306.211184 L1787.96413,290.715965 Z M1838.28979,274.2016 L1819.95241,258.706381 L1826.40185,251.063794 L1853.04798,273.579956 L1826.71137,299.93411 L1819.64289,292.860924 L1838.28979,274.2016 Z M1790.76117,271.710275 L1772.42378,287.205494 L1791.07069,305.864818 L1784.00221,312.938003 L1757.6656,286.583849 L1784.31173,264.067687 L1790.76117,271.710275 Z M1804.41206,255.19591 L1823.05897,273.855234 L1815.99049,280.928419 L1789.65388,254.574265 L1816.30001,232.058103 L1822.74945,239.700691 L1804.41206,255.19591 Z"></path>
                            </g>
                        </g>
                    </g>
                </g>
            </g>
        </g>
    </g>
</svg>
