<?xml version="1.0" encoding="UTF-8" standalone="no"?>
<svg
   xmlns:dc="http://purl.org/dc/elements/1.1/"
   xmlns:cc="http://creativecommons.org/ns#"
   xmlns:rdf="http://www.w3.org/1999/02/22-rdf-syntax-ns#"
   xmlns:svg="http://www.w3.org/2000/svg"
   xmlns="http://www.w3.org/2000/svg"
   viewBox="0 0 102 41"
   version="1.1"
   id="svg3336">
  <defs
     id="defs4162" />
  <metadata
     id="metadata3364">
    <rdf:RIS>
      <cc:Work
         rdf:about="">
        <dc:format>image/svg+xml</dc:format>
        <dc:type
           rdf:resource="http://purl.org/dc/dcmitype/StillImage" />
        <dc:title>df_logo_beta_102x41</dc:title>
      </cc:Work>
    </rdf:RIS>
  </metadata>
  <!-- Generator: Sketch 39.1 (31720) - http://www.bohemiancoding.com/sketch -->
  <title
     id="title3338">df_logo_beta_102x41</title>
  <desc
     id="desc3340">Created with Sketch.</desc>
  <g
     fill="none"
     fill-rule="evenodd"
     id="Page-1">
    <g
       transform="translate(-411 -325)"
       id="Logo">
      <g
         transform="translate(411 325)"
         id="df_logo_beta_102x41">
        <g
           style="fill:#1e282c;fill-opacity:0.94117647"
           id="Group-4">
          <path
             style="fill:#1e282c;fill-opacity:0.94117647"
             d="m23.299 21.9v-4.38l-4.401-1.288c-0.474-1.766-1.141-3.347-2.071-4.896l2.33-4.1219-3.106-3.0918-4.142 2.3188c-1.514-0.9063-3.0972-1.5732-4.9192-2.0611l-1.2944-4.38h-2.071-2.33l-1.2944 4.38v0 6.441h3.6244c4.9187-0.12 8.9586 3.913 9.0606 9.018-0.102 4.846-4.1419 8.88-9.0606 8.76-0.0672 0.12-0.0693 0.12 0 0h-3.6244v6.441 0l1.2944 4.38h2.33 2.071l1.2944-4.38c1.822-0.488 3.4052-1.155 4.9192-2.061l4.142 2.318 3.106-3.091-2.33-4.123c0.93-1.548 1.597-3.129 2.071-4.895l4.401-1.288z"
             fill="#ffffff"
             id="Fill-20" />
          <path
             style="fill:#d21e2d;fill-opacity:0.94117647"
             d="m3.6254 23.37h-0.9623v-7.309h0.9623v0.011c2.0252 0 3.6671 1.633 3.6671 3.649 0 2.015-1.6419 3.649-3.6671 3.649m0.0492-9.889v-0.002h-3.6166l-0.000036 12.474h3.5674v0.01c3.4638 0 6.2719-2.795 6.2719-6.242 0-3.431-2.7819-6.213-6.2227-6.24"
             fill="#D21E2D"
             id="Fill-22" />
          <g
             style="fill:#1e282c;fill-opacity:0.94117647"
             id="g4146"
             fill="#ffffff">
            <polygon
               transform="translate(-0.75625579,6.8063021)"
               style="fill:#1e282c;fill-opacity:0.94117647"
               points="45.813,0.033863 37.826,0.033863 37.826,10.259 45.813,10.259 45.813,8.1422 39.953,8.1422 39.953,6.2052 45.063,6.2052 45.063,4.0882 39.953,4.0882 39.953,2.1509 45.813,2.1509 "
               id="Fill-1" />
            <path
               style="fill:#1e282c;fill-opacity:0.94117647"
               d="m 30.293744,14.948502 -1.101,0 0,-5.9912999 1.101,0 0,0.0083 c 1.66,0 3.006,1.3391999 3.006,2.9914999 0,1.652 -1.346,2.9915 -3.006,2.9915 m 0.041,-8.1062999 0,-0.00206 -3.27,0 0,1.0584 0,7.0499999 0,2.1168 3.229,0 0,0.008 c 2.84,0 5.141,-2.2905 5.141,-5.1163 0,-2.8124999 -2.28,-5.0931999 -5.1,-5.1147999"
               id="Fill-2" />
            <polygon
               transform="translate(-0.75625579,6.8063021)"
               style="fill:#1e282c;fill-opacity:0.94117647"
               points="57.627,0.033734 55.146,0.033734 52.476,6.8796 49.806,0.033734 47.265,0.033734 51.39,10.259 53.502,10.259 "
               id="Fill-4" />
            <path
               style="fill:#1e282c;fill-opacity:0.94117647"
               d="m 73.078744,29.812302 c -1.821,0 -3.297,-1.469 -3.297,-3.281 0,-1.812 1.476,-3.281 3.297,-3.281 1.82,0 3.296,1.469 3.296,3.281 0,1.812 -1.476,3.281 -3.296,3.281 m 0,-8.679 c -2.996,0 -5.424,2.417 -5.424,5.398 0,2.981 2.428,5.398 5.424,5.398 2.995,0 5.424,-2.417 5.424,-5.398 0,-2.981 -2.429,-5.398 -5.424,-5.398"
               id="Fill-6" />
            <path
               style="fill:#1e282c;fill-opacity:0.94117647"
               d="m 54.847744,28.830302 c -0.598,0.605 -1.428,0.982 -2.348,0.982 -1.82,0 -3.296,-1.469 -3.296,-3.281 0,-1.812 1.476,-3.281 3.296,-3.281 0.901,0 1.715,0.362 2.31,0.944 l 1.506,-1.498 c -0.98,-0.966 -2.328,-1.563 -3.816,-1.563 -2.995,0 -5.424,2.417 -5.424,5.398 0,2.981 2.429,5.398 5.424,5.398 1.508,0 2.87,-0.613 3.853,-1.601 l -1.505,-1.498 z"
               id="Fill-8" />
            <polygon
               transform="translate(-0.75625579,6.8063021)"
               style="fill:#1e282c;fill-opacity:0.94117647"
               points="97.241,24.842 97.241,20.886 101.27,14.608 98.649,14.608 96.102,18.798 93.6,14.608 90.902,14.608 94.934,20.93 94.934,24.842 "
               id="Fill-10" />
            <polygon
               transform="translate(-0.75625579,6.8063021)"
               style="fill:#1e282c;fill-opacity:0.94117647"
               points="64.064,24.842 64.064,16.725 67.254,16.725 67.254,14.608 58.564,14.608 58.564,16.725 61.755,16.725 61.755,24.842 "
               id="Fill-12" />
            <polygon
               transform="translate(-0.75625579,6.8063021)"
               style="fill:#1e282c;fill-opacity:0.94117647"
               points="35.803,14.612 27.817,14.612 27.817,24.842 29.944,24.842 29.944,20.784 35.054,20.784 35.054,18.667 29.944,18.667 29.944,16.73 35.803,16.73 "
               id="Fill-14" />
            <path
               style="fill:#1e282c;fill-opacity:0.94117647"
               d="m 83.073744,26.389302 0,-2.849 2.851,0 0,-0.003 c 0.792,0 1.433,0.638 1.433,1.426 0,0.787 -0.641,1.426 -1.433,1.426 l -2.851,0 z m 4.262,1.831 c 1.267,-0.544 2.155,-1.797 2.155,-3.257 0,-1.96 -1.597,-3.549 -3.566,-3.549 l 0,0.008 -5.159,-0.008 0,0.008 0,10.226 2.308,0 0,-3.137 1.782,0 2.14,3.137 2.695,0 -2.355,-3.428 z"
               id="Fill-16" />
            <path
               style="fill:#1e282c;fill-opacity:0.94117647"
               d="m 40.731744,24.098302 1.43,3.492 -2.861,0 1.431,-3.492 z m 3.093,7.55 2.408,0 -4.372,-10.226 -2.199,0 -4.372,10.226 2.348,0 0.795,-1.941 4.597,0 0.795,1.941 z"
               id="Fill-18" />
          </g>
        </g>
      </g>
    </g>
  </g>
</svg>
