<svg xmlns="http://www.w3.org/2000/svg" width="36" height="36" viewBox="0 0 36 36">
    <g fill="none" fill-rule="evenodd">
        <path fill="#FF981A" d="M3 4h30a3 3 0 0 1 3 3v22a3 3 0 0 1-3 3H3a3 3 0 0 1-3-3V7a3 3 0 0 1 3-3zm1 4a2 2 0 0 0-2 2v18a2 2 0 0 0 2 2h28a2 2 0 0 0 2-2V10a2 2 0 0 0-2-2H4zm0-1a1 1 0 1 0 0-2 1 1 0 0 0 0 2zm3 0a1 1 0 1 0 0-2 1 1 0 0 0 0 2zm3 0a1 1 0 1 0 0-2 1 1 0 0 0 0 2z"/>
        <path fill="#FF981A" d="M18.739 13.184a1.5 1.5 0 1 1 .624-2.934 1.5 1.5 0 0 1-.624 2.934zm-.208.978a4.5 4.5 0 0 1 3.466 5.338l-.728 3.423-8.803-1.871.728-3.424a4.5 4.5 0 0 1 5.337-3.466zm-3.962 11.426l2.934.624-.104.49a1.5 1.5 0 0 1-2.934-.625l.104-.489zm-2.31-3.558l8.802 1.871a1 1 0 1 1-.415 1.957l-8.804-1.872a1 1 0 0 1 .416-1.956z"/>
        <g stroke="#FF981A">
            <path d="M25.452 17.313c.84.86 1.121 1.942.844 3.246-.277 1.305-.974 2.179-2.091 2.623"/>
            <path stroke-width="1.5" d="M27.335 15.669c1.4 1.433 1.868 3.236 1.406 5.41-.462 2.174-1.623 3.63-3.485 4.371"/>
            <g>
                <path d="M11.255 13.818c-1.117.444-1.814 1.318-2.091 2.623-.277 1.304.004 2.386.843 3.246"/>
                <path stroke-width="1.5" d="M10.203 11.55c-1.86.74-3.022 2.197-3.484 4.37-.463 2.175.006 3.978 1.405 5.411"/>
            </g>
        </g>
    </g>
</svg>
