<?xml version="1.0" encoding="UTF-8"?>
<svg width="208px" height="62px" viewBox="0 0 208 62" version="1.1" xmlns="http://www.w3.org/2000/svg" xmlns:xlink="http://www.w3.org/1999/xlink">
    <!-- Generator: sketchtool 52.5 (67469) - http://www.bohemiancoding.com/sketch -->
    <title>92E48487-30A2-464A-A455-9FE772A665EF</title>
    <desc>Created with sketchtool.</desc>
    <g id="Symbols" stroke="none" stroke-width="1" fill="none" fill-rule="evenodd">
        <g id="-g-Pictures-/-Logos-/-pic-logo-codefix">
            <g id="logo" transform="translate(0.000000, 10.000000)">
                <polygon id="Path-3" fill="#50E3C2" fill-rule="nonzero" points="25.9000289 35.7 19.7177596 41.4570635 -1.13686838e-13 20.7285317 19.7177596 0 25.9000289 5.75706347 11.6586048 20.7285317"></polygon>
                <polygon id="Path-3" fill="#50E3C2" fill-rule="nonzero" transform="translate(193.358178, 20.728532) scale(-1, 1) translate(-193.358178, -20.728532) " points="206.308192 35.7 200.125923 41.4570635 180.408163 20.7285317 200.125923 0 206.308192 5.75706347 192.066768 20.7285317"></polygon>
                <path d="M52.2621187,14.6217317 C51.7088643,13.9553284 51.0293336,13.4436335 50.2235065,13.0866317 C49.4176793,12.72963 48.4855798,12.5511317 47.4271799,12.5511317 C46.3687801,12.5511317 45.3885722,12.7534297 44.4865269,13.1580317 C43.5844816,13.5626338 42.8027207,14.1278781 42.1412208,14.8537817 C41.4797209,15.5796854 40.962556,16.4424267 40.5897106,17.4420317 C40.2168652,18.4416367 40.0304452,19.5245259 40.0304452,20.6907317 C40.0304452,21.8807377 40.2168652,22.9695768 40.5897106,23.9572817 C40.962556,24.9449867 41.4737073,25.8017781 42.1231799,26.5276817 C42.7726526,27.2535854 43.5363728,27.8188297 44.4143636,28.2234317 C45.2923544,28.6280338 46.236481,28.8303317 47.2467718,28.8303317 C48.4013898,28.8303317 49.4236925,28.5923341 50.3137106,28.1163317 C51.2037286,27.6403294 51.9373811,26.973936 52.5146901,26.1171317 L57.2053024,29.5800317 C56.122848,31.0794392 54.7517597,32.1861282 53.0919963,32.9001317 C51.4322329,33.6141353 49.724386,33.9711317 47.9684044,33.9711317 C45.9718774,33.9711317 44.1317326,33.6617348 42.4479146,33.0429317 C40.7640967,32.4241286 39.3088187,31.5375875 38.0820371,30.3832817 C36.8552554,29.228976 35.8991017,27.8307399 35.2135473,26.1885317 C34.5279928,24.5463235 34.1852208,22.7137419 34.1852208,20.6907317 C34.1852208,18.6677216 34.5279928,16.8351399 35.2135473,15.1929317 C35.8991017,13.5507235 36.8552554,12.1524875 38.0820371,10.9981817 C39.3088187,9.84387596 40.7640967,8.95733483 42.4479146,8.33853174 C44.1317326,7.71972864 45.9718774,7.41033174 47.9684044,7.41033174 C48.6900407,7.41033174 49.4417339,7.47578108 50.2235065,7.60668174 C51.0052791,7.73758239 51.7750129,7.94583031 52.532731,8.23143174 C53.290449,8.51703316 54.018088,8.89782936 54.7156697,9.37383174 C55.4132515,9.84983412 56.0386602,10.4329283 56.5919146,11.1231317 L52.2621187,14.6217317 Z M99.9981187,33.3285317 L95.0188534,33.3285317 L95.0188534,31.0437317 L94.9466901,31.0437317 C94.7301993,31.3531333 94.4475626,31.6684801 94.0987718,31.9897817 C93.7499809,32.3110833 93.3410598,32.6026304 92.8719963,32.8644317 C92.4029327,33.126233 91.8857678,33.3404309 91.3204861,33.5070317 C90.7552043,33.6736326 90.1718904,33.7569317 89.5705269,33.7569317 C88.2715816,33.7569317 87.0929267,33.5367839 86.0345269,33.0964817 C84.976127,32.6561795 84.0680817,32.0373857 83.3103636,31.2400817 C82.5526455,30.4427777 81.9693316,29.4967372 81.5604044,28.4019317 C81.1514772,27.3071263 80.9470167,26.1052383 80.9470167,24.7962317 C80.9470167,23.5824257 81.1334366,22.4221873 81.506282,21.3154817 C81.8791274,20.2087762 82.4083194,19.227036 83.0938738,18.3702317 C83.7794283,17.5134275 84.6153111,16.8291843 85.6015473,16.3174817 C86.5877835,15.8057792 87.7063029,15.5499317 88.9571391,15.5499317 C90.0877026,15.5499317 91.140073,15.72248 92.114282,16.0675817 C93.0884909,16.4126835 93.8882925,17.0017276 94.5137106,17.8347317 L94.5858738,17.8347317 L94.5858738,6.33933174 L99.9981187,6.33933174 L99.9981187,33.3285317 Z M95.0188534,24.6534317 C95.0188534,23.3444252 94.6400001,22.2853358 93.882282,21.4761317 C93.1245639,20.6669277 92.0601664,20.2623317 90.6890575,20.2623317 C89.3179486,20.2623317 88.2535511,20.6669277 87.495833,21.4761317 C86.7381149,22.2853358 86.3592616,23.3444252 86.3592616,24.6534317 C86.3592616,25.9624383 86.7381149,27.0215277 87.495833,27.8307317 C88.2535511,28.6399358 89.3179486,29.0445317 90.6890575,29.0445317 C92.0601664,29.0445317 93.1245639,28.6399358 93.882282,27.8307317 C94.6400001,27.0215277 95.0188534,25.9624383 95.0188534,24.6534317 Z M120.925466,30.3297317 C120.059502,31.4245372 118.965037,32.2694288 117.642037,32.8644317 C116.319037,33.4594347 114.947949,33.7569317 113.528731,33.7569317 C112.181677,33.7569317 110.912819,33.5427339 109.722119,33.1143317 C108.531419,32.6859296 107.497089,32.0730857 106.619098,31.2757817 C105.741108,30.4784777 105.04955,29.5205373 104.544404,28.4019317 C104.039259,27.2833261 103.78669,26.0338386 103.78669,24.6534317 C103.78669,23.2730248 104.039259,22.0235373 104.544404,20.9049317 C105.04955,19.7863261 105.741108,18.8283857 106.619098,18.0310817 C107.497089,17.2337777 108.531419,16.6209339 109.722119,16.1925317 C110.912819,15.7641296 112.181677,15.5499317 113.528731,15.5499317 C114.779567,15.5499317 115.916127,15.7641296 116.938445,16.1925317 C117.960763,16.6209339 118.826714,17.2337777 119.536323,18.0310817 C120.245932,18.8283857 120.793164,19.7863261 121.178037,20.9049317 C121.56291,22.0235373 121.755343,23.2730248 121.755343,24.6534317 L121.755343,26.3313317 L109.198935,26.3313317 C109.415426,27.3547369 109.884482,28.1698787 110.606119,28.7767817 C111.327755,29.3836848 112.21776,29.6871317 113.27616,29.6871317 C114.166178,29.6871317 114.917871,29.4907837 115.531262,29.0980817 C116.144652,28.7053798 116.679858,28.1996348 117.136894,27.5808317 L120.925466,30.3297317 Z M116.343098,22.6899317 C116.367153,21.7855272 116.066476,21.0120349 115.441057,20.3694317 C114.815639,19.7268285 114.009824,19.4055317 113.023588,19.4055317 C112.422225,19.4055317 111.893033,19.5007308 111.435996,19.6911317 C110.97896,19.8815327 110.58808,20.1254802 110.263343,20.4229817 C109.938607,20.7204832 109.686038,21.0655798 109.505629,21.4582817 C109.32522,21.8509837 109.22299,22.2615296 109.198935,22.6899317 L116.343098,22.6899317 Z M125.940813,8.05293174 L143.079588,8.05293174 L143.079588,13.1937317 L131.569547,13.1937317 L131.569547,18.3345317 L142.213629,18.3345317 L142.213629,23.4753317 L131.569547,23.4753317 L131.569547,33.3285317 L125.940813,33.3285317 L125.940813,8.05293174 Z M146.507343,15.9783317 L151.919588,15.9783317 L151.919588,33.3285317 L146.507343,33.3285317 L146.507343,15.9783317 Z M146.074364,10.5162317 C146.074364,9.65942745 146.381054,8.92758477 146.994445,8.32068174 C147.607836,7.7137787 148.347502,7.41033174 149.213466,7.41033174 C150.079429,7.41033174 150.819095,7.7137787 151.432486,8.32068174 C152.045877,8.92758477 152.352568,9.65942745 152.352568,10.5162317 C152.352568,11.373036 152.045877,12.1048787 151.432486,12.7117817 C150.819095,13.3186848 150.079429,13.6221317 149.213466,13.6221317 C148.347502,13.6221317 147.607836,13.3186848 146.994445,12.7117817 C146.381054,12.1048787 146.074364,11.373036 146.074364,10.5162317 Z M160.543098,24.0465317 L154.697874,15.9783317 L161.084323,15.9783317 L164.187343,20.6907317 L167.182119,15.9783317 L173.207751,15.9783317 L167.506853,24.0465317 L174.254119,33.3285317 L167.86767,33.3285317 L164.043017,27.5451317 L159.929711,33.3285317 L153.615425,33.3285317 L160.543098,24.0465317 Z" id="CodeFix" fill="#FFFFFF"></path>
                <path d="M61.6883005,27.3478465 L65.6442609,31.066259 L71.2388337,31.066259 L75.194794,27.3478465 L75.194794,22.089217 L71.2388337,18.3708045 L65.6442609,18.3708045 L61.6883005,22.089217 L61.6883005,27.3478465 Z M61.5423201,27.4046826 L57.8293024,26.5321681 L57.8293024,22.9048954 L61.5423201,22.0323808 L59.5731951,18.9475762 L62.3019188,16.382707 L65.5837938,18.2335898 L66.5120482,14.7435317 L70.3710464,14.7435317 L71.2993008,18.2335898 L74.5811757,16.382707 L77.3098995,18.9475762 L75.3407745,22.0323808 L79.0537922,22.9048954 L79.0537922,26.5321681 L75.3407745,27.4046826 L77.3098995,30.4894873 L74.5811757,33.0543564 L71.2993008,31.2034736 L70.3710464,34.6935317 L66.5120482,34.6935317 L65.5837938,31.2034736 L62.3019188,33.0543564 L59.5731951,30.4894873 L61.5423201,27.4046826 Z" id="Combined-Shape" fill="#50E3C2" fill-rule="nonzero"></path>
                <path d="M59.5272616,24.8235317 C59.5272616,23.6294081 59.7611217,22.5485366 60.2288489,21.5808847 C60.6965761,20.6132328 61.3369073,19.7845646 62.1498617,19.0948553 C62.9628162,18.4051459 63.9205289,17.8750042 65.0230288,17.5044141 C66.1255286,17.133824 67.3003972,16.9485317 68.5476697,16.9485317 C69.7949423,16.9485317 70.9698109,17.133824 72.0723107,17.5044141 C73.1748105,17.8750042 74.1325233,18.4051459 74.9454778,19.0948553 C75.7584322,19.7845646 76.3987634,20.6132328 76.8664906,21.5808847 C77.3342178,22.5485366 77.5680779,23.6294081 77.5680779,24.8235317 C77.5680779,26.0176554 77.3342178,27.0985269 76.8664906,28.0661788 C76.3987634,29.0338307 75.7584322,29.8624989 74.9454778,30.5522082 C74.1325233,31.2419175 73.1748105,31.7720593 72.0723107,32.1426494 C70.9698109,32.5132395 69.7949423,32.6985317 68.5476697,32.6985317 C67.3003972,32.6985317 66.1255286,32.5132395 65.0230288,32.1426494 C63.9205289,31.7720593 62.9628162,31.2419175 62.1498617,30.5522082 C61.3369073,29.8624989 60.6965761,29.0338307 60.2288489,28.0661788 C59.7611217,27.0985269 59.5272616,26.0176554 59.5272616,24.8235317 Z M64.5385994,24.8235317 C64.5385994,25.9558903 64.8893896,26.8720576 65.5909804,27.5720611 C66.2925712,28.2720646 67.2781245,28.6220611 68.5476697,28.6220611 C69.817215,28.6220611 70.8027683,28.2720646 71.5043591,27.5720611 C72.2059499,26.8720576 72.55674,25.9558903 72.55674,24.8235317 C72.55674,23.6911731 72.2059499,22.7750058 71.5043591,22.0750023 C70.8027683,21.3749988 69.817215,21.0250023 68.5476697,21.0250023 C67.2781245,21.0250023 66.2925712,21.3749988 65.5909804,22.0750023 C64.8893896,22.7750058 64.5385994,23.6911731 64.5385994,24.8235317 Z" id="Combined-Shape" fill="#50E3C2"></path>
            </g>
        </g>
    </g>
</svg>
