<?xml version="1.0" encoding="UTF-8"?>
<svg width="125px" height="125px" viewBox="0 0 125 125" version="1.1" xmlns="http://www.w3.org/2000/svg" xmlns:xlink="http://www.w3.org/1999/xlink">
    <!-- Generator: sketchtool 52.5 (67469) - http://www.bohemiancoding.com/sketch -->
    <title>8EA38F64-3B8C-405F-B75B-5773BC11749A</title>
    <desc>Created with sketchtool.</desc>
    <g id="Symbols" stroke="none" stroke-width="1" fill="none" fill-rule="evenodd">
        <g id="-g-Pictures-/-Steps-/-pic-step-01" fill="#16BB96" fill-rule="nonzero">
            <path d="M58.0838348,76.8070382 L55.5591131,79.3317599 C56.6055743,81.5562887 56.2095829,84.290958 54.3711387,86.1294022 L31.036615,109.463926 C28.6934692,111.807072 24.8944793,111.807072 22.5513336,109.463926 C20.2081878,107.12078 20.2081878,103.32179 22.5513336,100.978645 L45.8858574,77.6441208 C47.4659525,76.0640256 49.7080855,75.5494642 51.7193688,76.1004364 L54.3754699,73.4443353 C48.5661281,67.3444136 45,59.0886637 45,50 C45,31.2223185 60.2223185,16 79,16 C97.7776815,16 113,31.2223185 113,50 C113,68.7776815 97.7776815,84 79,84 C71.1123865,84 63.8520961,81.3141107 58.0838348,76.8070382 Z M79,78 C94.463973,78 107,65.463973 107,50 C107,34.536027 94.463973,22 79,22 C63.536027,22 51,34.536027 51,50 C51,65.463973 63.536027,78 79,78 Z" id="Combined-Shape"></path>
            <path d="M87.5,49 L92.5,49 L92.5,51.5 L87.4454491,51.5 C87.2973897,53.1464092 86.8479384,54.5895186 86.0970952,55.8293283 L90.8210678,60.5533009 L89.0533009,62.3210678 L84.5006712,57.7684382 C83.3567986,58.8163232 81.8857415,59.6435105 80.0875,60.25 L80.0875,45.29375 C80.0875,44.5792316 79.5082684,44 78.79375,44 C78.0792316,44 77.5,44.5792316 77.5,45.29375 L77.5,60.25 C75.5523779,59.6007926 73.984079,58.6987031 72.7951032,57.5437315 L68.017767,62.3210678 L66.25,60.5533009 L71.2546429,55.548658 C70.59365,54.3732232 70.193834,53.0236705 70.0551948,51.5 L65,51.5 L65,49 L70,49 C70,47.1882762 70,45.6941985 70,44.517767 L65,39.517767 L66.767767,37.75 L70.8590587,41.8412917 C72.6592022,42.4470972 75.2895159,42.75 78.75,42.75 C81.8348944,42.75 84.2600469,42.5092811 86.0254575,42.0278434 L90.3033009,37.75 L92.0710678,39.517767 L87.5,44.0888348 C87.5,45.323291 87.5,46.9603461 87.5,49 Z M78.75,34 C82.9166667,34 85,36.1575222 85,40.4725667 C83.3333333,41.1575222 81.25,41.5 78.75,41.5 C76.25,41.5 74.1666667,41.1575222 72.5,40.4725667 C72.5,36.1575222 74.5833333,34 78.75,34 Z" id="icon"></path>
            <path d="M86,102 L89,102 L89,104 L85.9564139,104 C85.8540716,105.060854 85.5715012,105.998788 85.1087026,106.8138 L88.3094844,110.052651 L87.055977,111.321068 L83.9987591,108.227488 C83.2066793,108.978688 82.1794738,109.569526 80.9171429,110 L80.9171429,99.6204762 C80.9171429,99.1305207 80.5199555,98.7333333 80.03,98.7333333 C79.5400445,98.7333333 79.1428571,99.1305207 79.1428571,99.6204762 L79.1428571,110 C77.6352055,109.491866 76.459035,108.760288 75.6143456,107.805268 L72.1398711,111.321068 L70.8863636,110.052651 L74.6245834,106.269969 C74.3188381,105.588978 74.1253438,104.832322 74.0441006,104 L70,104 L70,102 L74,102 C74,100.525483 74,99.3661693 74,98.5220583 L73.7605224,98.7643842 L70,94.9591345 L71.2535075,93.6907179 L74.8356552,97.3154714 C76.0590806,97.6829349 77.7805289,97.8666667 80,97.8666667 C81.7021852,97.8666667 83.1114403,97.7585982 84.2277654,97.5424614 L84.1818182,97.4959677 L87.9423406,93.6907179 L89.1958481,94.9591345 L86,98.1929937 C86,99.054548 86,100.32355 86,102 Z M79.5,91 C82.5,91 84,92.4383482 84,95.3150445 C82.8,95.7716815 81.3,96 79.5,96 C77.7,96 76.2,95.7716815 75,95.3150445 C75,92.4383482 76.5,91 79.5,91 Z" id="icon" opacity="0.300000012"></path>
            <path d="M33,46 L36,46 L36,48 L32.9564139,48 C32.8540716,49.0608544 32.5715012,49.9987876 32.1087026,50.8137996 L35.3094844,54.0526512 L34.055977,55.3210678 L30.9987591,52.2274877 C30.2066793,52.9786881 29.1794738,53.5695255 27.9171429,54 L27.9171429,43.6204762 C27.9171429,43.1305207 27.5199555,42.7333333 27.03,42.7333333 C26.5400445,42.7333333 26.1428571,43.1305207 26.1428571,43.6204762 L26.1428571,54 C24.6352055,53.4918656 23.459035,52.7602883 22.6143456,51.8052682 L19.1398711,55.3210678 L17.8863636,54.0526512 L21.6245834,50.2699694 C21.3188381,49.5889785 21.1253438,48.832322 21.0441006,48 L17,48 L17,46 L21,46 C21,44.5254832 21,43.3661693 21,42.5220583 L20.7605224,42.7643842 L17,38.9591345 L18.2535075,37.6907179 L21.8356552,41.3154714 C23.0590806,41.6829349 24.7805289,41.8666667 27,41.8666667 C28.7021852,41.8666667 30.1114403,41.7585982 31.2277654,41.5424614 L31.1818182,41.4959677 L34.9423406,37.6907179 L36.1958481,38.9591345 L33,42.1929937 C33,43.054548 33,44.3235501 33,46 Z M26.5,35 C29.5,35 31,36.4383482 31,39.3150445 C29.8,39.7716815 28.3,40 26.5,40 C24.7,40 23.2,39.7716815 22,39.3150445 C22,36.4383482 23.5,35 26.5,35 Z" id="icon" opacity="0.300000012"></path>
        </g>
    </g>
</svg>