<?xml version="1.0" encoding="UTF-8"?>
<svg width="125px" height="125px" viewBox="0 0 125 125" version="1.1" xmlns="http://www.w3.org/2000/svg" xmlns:xlink="http://www.w3.org/1999/xlink">
    <!-- Generator: sketchtool 52.5 (67469) - http://www.bohemiancoding.com/sketch -->
    <title>2C6733E0-45F4-4CAA-965F-F9CA0E7E958E</title>
    <desc>Created with sketchtool.</desc>
    <g id="Symbols" stroke="none" stroke-width="1" fill="none" fill-rule="evenodd">
        <g id="-g-Pictures-/-Steps-/-pic-step-03">
            <g id="Group" transform="translate(37.727983, 67.109973) rotate(-8.000000) translate(-37.727983, -67.109973) translate(-8.272017, 13.109973)">
                <g id="Group-4" transform="translate(40.243363, 45.097660) scale(-1, 1) rotate(-125.000000) translate(-40.243363, -45.097660) translate(0.243363, 24.097660)" fill="#16BB96">
                    <path d="M0.197915191,1.30653962 L15.9648261,0.0985396114 C15.9648261,17.7665326 25.6141564,31.2257589 40.5760836,33.9554472 C52.2072476,36.0774634 63.9812507,28.6755062 69.616243,18.2439365 L75.3202277,21.2620939 C68.5674792,33.7628681 55.2949217,41.7493342 40.584229,41.7493342 C18.9084753,41.7493342 0.197915191,22.5283487 0.197915191,1.30653962 Z" id="Path" fill-rule="nonzero"></path>
                    <polygon id="Path-2" transform="translate(66.739384, 22.574356) rotate(12.000000) translate(-66.739384, -22.574356) " points="56.4635531 24.7361361 77.0152146 34.0445744 75.3449502 11.1041372"></polygon>
                </g>
                <g id="Group-2" opacity="0.300000012" transform="translate(49.000000, 80.000000)"></g>
                <path d="M59.3441537,58.288988 L85.6648788,92.1676306 C86.681383,93.4760209 86.4447626,95.3607203 85.1363722,96.3772245 C84.7035599,96.7134816 84.1869005,96.9247452 83.6424886,96.988078 L39.181185,102.160378 C37.5354296,102.351833 36.0460762,101.17289 35.8546211,99.5271346 C35.7905821,98.9766529 35.8802775,98.4191908 36.1137585,97.9165799 L54.254337,58.865637 C54.9523667,57.3629991 56.7363603,56.7107354 58.2389981,57.4087651 C58.6722057,57.6100058 59.0510976,57.9117816 59.3441537,58.288988 Z M65.1941663,83.922626 C65.1941663,82.2461761 65.1941663,80.977174 65.1941663,80.1156197 L68.3900144,76.8817605 L67.1365069,75.6133439 L63.3759845,79.4185936 L63.4219317,79.4650874 C62.3056066,79.6812242 60.8963515,79.7892927 59.1941663,79.7892927 C56.9746952,79.7892927 55.253247,79.6055609 54.0298216,79.2380974 L50.4476738,75.6133439 L49.1941663,76.8817605 L52.9546887,80.6870102 L53.1941663,80.4446843 C53.1941663,81.2887953 53.1941663,82.4481092 53.1941663,83.922626 L49.1941663,83.922626 L49.1941663,85.922626 L53.238267,85.922626 C53.3195102,86.754948 53.5130044,87.5116045 53.8187497,88.1925954 L50.08053,91.9752772 L51.3340374,93.2436938 L54.808512,89.7278942 C55.6532013,90.6829143 56.8293718,91.4144915 58.3370235,91.922626 L58.3370235,81.5431022 C58.3370235,81.0531467 58.7342109,80.6559593 59.2241663,80.6559593 C59.7141218,80.6559593 60.1113092,81.0531467 60.1113092,81.5431022 L60.1113092,91.922626 C61.3736402,91.4921515 62.4008456,90.901314 63.1929254,90.1501137 L66.2501433,93.2436938 L67.5036508,91.9752772 L64.302869,88.7364256 C64.7656676,87.9214136 65.048238,86.9834804 65.1505802,85.922626 L68.1941663,85.922626 L68.1941663,83.922626 L65.1941663,83.922626 Z M58.6941663,72.922626 C55.6941663,72.922626 54.1941663,74.3609741 54.1941663,77.2376705 C55.3941663,77.6943075 56.8941663,77.922626 58.6941663,77.922626 C60.4941663,77.922626 61.9941663,77.6943075 63.1941663,77.2376705 C63.1941663,74.3609741 61.6941663,72.922626 58.6941663,72.922626 Z" id="Combined-Shape" fill="#16BB96" opacity="0.300000012" transform="translate(61.065246, 79.654786) rotate(15.000000) translate(-61.065246, -79.654786) "></path>
            </g>
            <g id="Group-3" transform="translate(56.000000, 14.000000)" stroke="#16BB96">
                <circle id="Oval" stroke-width="6" cx="29.5" cy="29.5" r="29.5"></circle>
                <polyline id="Path-3" stroke-width="5" points="15 31.28125 25.6666667 43 47 18"></polyline>
            </g>
        </g>
    </g>
</svg>