<?xml version="1.0" encoding="UTF-8"?>
<svg width="125px" height="125px" viewBox="0 0 125 125" version="1.1" xmlns="http://www.w3.org/2000/svg" xmlns:xlink="http://www.w3.org/1999/xlink">
    <!-- Generator: sketchtool 52.5 (67469) - http://www.bohemiancoding.com/sketch -->
    <title>64E63CD7-08E0-460F-A194-011E24D89099</title>
    <desc>Created with sketchtool.</desc>
    <g id="Symbols" stroke="none" stroke-width="1" fill="none" fill-rule="evenodd">
        <g id="-g-Pictures-/-Steps-/-pic-step-02">
            <g id="Group" transform="translate(7.000000, 22.000000)">
                <rect id="Rectangle" fill="#16BB96" x="18" y="4" width="8" height="82"></rect>
                <path d="M9.09494702e-13,25 C9.09494702e-13,25 7.33333333,16.8333333 22,0.5 L44,25" id="Path-2" stroke="#16BB96" stroke-width="8"></path>
            </g>
            <g id="Group-2" transform="translate(60.000000, 17.000000)" fill="#16BB96">
                <path d="M28.5,51.5714286 C15.7580018,51.5714286 5.42857143,41.2419982 5.42857143,28.5 C5.42857143,15.7580018 15.7580018,5.42857143 28.5,5.42857143 C41.2419982,5.42857143 51.5714286,15.7580018 51.5714286,28.5 C51.5714286,41.2419982 41.2419982,51.5714286 28.5,51.5714286 Z M28.5,46.1428571 C38.2438809,46.1428571 46.1428571,38.2438809 46.1428571,28.5 C46.1428571,18.7561191 38.2438809,10.8571429 28.5,10.8571429 C18.7561191,10.8571429 10.8571429,18.7561191 10.8571429,28.5 C10.8571429,38.2438809 18.7561191,46.1428571 28.5,46.1428571 Z" id="Oval" fill-rule="nonzero"></path>
                <path d="M25.7857143,16.2857143 L31.2142857,16.2857143 L30.3095238,32.5714286 L26.6904762,32.5714286 L25.7857143,16.2857143 Z M28.5,39.8095238 C27.0009414,39.8095238 25.7857143,38.5942967 25.7857143,37.0952381 C25.7857143,35.5961795 27.0009414,34.3809524 28.5,34.3809524 C29.9990586,34.3809524 31.2142857,35.5961795 31.2142857,37.0952381 C31.2142857,38.5942967 29.9990586,39.8095238 28.5,39.8095238 Z" id="Combined-Shape"></path>
                <path d="M0,23.5238095 L9.04761905,20.8095238 L9.04761905,36.1904762 L0,33.4761905 L0,23.5238095 Z M11.8661548,4.82875871 L20.1830774,9.30710165 L9.30710165,20.1830774 L4.82875871,11.8661548 L11.8661548,4.82875871 Z M33.4761905,1.47165305e-15 L36.1904762,9.04761905 L20.8095238,9.04761905 L23.5238095,2.08106063e-15 L33.4761905,1.47165305e-15 Z M52.1712413,11.8661548 L47.6928983,20.1830774 L36.8169226,9.30710165 L45.1338452,4.82875871 L52.1712413,11.8661548 Z M57,33.4761905 L47.952381,36.1904762 L47.952381,20.8095238 L57,23.5238095 L57,33.4761905 Z M45.1338452,52.1712413 L36.8169226,47.6928983 L47.6928983,36.8169226 L52.1712413,45.1338452 L45.1338452,52.1712413 Z M23.5238095,57 L20.8095238,47.952381 L36.1904762,47.952381 L33.4761905,57 L23.5238095,57 Z M4.82875871,45.1338452 L9.30710165,36.8169226 L20.1830774,47.6928983 L11.8661548,52.1712413 L4.82875871,45.1338452 Z" id="Combined-Shape"></path>
            </g>
            <g id="Group-2" opacity="0.300000012" transform="translate(47.000000, 77.000000)" fill="#16BB96">
                <path d="M16,28.952381 C8.84659753,28.952381 3.04761905,23.1534025 3.04761905,16 C3.04761905,8.84659753 8.84659753,3.04761905 16,3.04761905 C23.1534025,3.04761905 28.952381,8.84659753 28.952381,16 C28.952381,23.1534025 23.1534025,28.952381 16,28.952381 Z M16,25.9047619 C21.470249,25.9047619 25.9047619,21.470249 25.9047619,16 C25.9047619,10.529751 21.470249,6.0952381 16,6.0952381 C10.529751,6.0952381 6.0952381,10.529751 6.0952381,16 C6.0952381,21.470249 10.529751,25.9047619 16,25.9047619 Z" id="Oval" fill-rule="nonzero"></path>
                <path d="M14.4761905,9.14285714 L17.5238095,9.14285714 L17.015873,18.2857143 L14.984127,18.2857143 L14.4761905,9.14285714 Z M16,22.3492063 C15.1584232,22.3492063 14.4761905,21.6669736 14.4761905,20.8253968 C14.4761905,19.9838201 15.1584232,19.3015873 16,19.3015873 C16.8415768,19.3015873 17.5238095,19.9838201 17.5238095,20.8253968 C17.5238095,21.6669736 16.8415768,22.3492063 16,22.3492063 Z" id="Combined-Shape"></path>
                <path d="M0,13.2063492 L5.07936508,11.6825397 L5.07936508,20.3174603 L0,18.7936508 L0,13.2063492 Z M6.66170092,2.71088208 L11.3308505,5.22503952 L5.22503952,11.3308505 L2.71088208,6.66170092 L6.66170092,2.71088208 Z M18.7936508,-5.6860525e-13 L20.3174603,5.07936508 L11.6825397,5.07936508 L13.2063492,-5.68263127e-13 L18.7936508,-5.6860525e-13 Z M29.2891179,6.66170092 L26.7749605,11.3308505 L20.6691495,5.22503952 L25.3382991,2.71088208 L29.2891179,6.66170092 Z M32,18.7936508 L26.9206349,20.3174603 L26.9206349,11.6825397 L32,13.2063492 L32,18.7936508 Z M25.3382991,29.2891179 L20.6691495,26.7749605 L26.7749605,20.6691495 L29.2891179,25.3382991 L25.3382991,29.2891179 Z M13.2063492,32 L11.6825397,26.9206349 L20.3174603,26.9206349 L18.7936508,32 L13.2063492,32 Z M2.71088208,25.3382991 L5.22503952,20.6691495 L11.3308505,26.7749605 L6.66170092,29.2891179 L2.71088208,25.3382991 Z" id="Combined-Shape"></path>
            </g>
        </g>
    </g>
</svg>