<?xml version="1.0" ?><svg height="16px" id="SVGRoot" version="1.1" viewBox="0 0 16 16" width="16px" xmlns="http://www.w3.org/2000/svg" xmlns:cc="http://creativecommons.org/ns#" xmlns:dc="http://purl.org/dc/elements/1.1/" xmlns:inkscape="http://www.inkscape.org/namespaces/inkscape" xmlns:rdf="http://www.w3.org/1999/02/22-rdf-syntax-ns#" xmlns:sodipodi="http://sodipodi.sourceforge.net/DTD/sodipodi-0.dtd" xmlns:svg="http://www.w3.org/2000/svg"><defs id="defs3968"/><g id="layer1"><path d="M 8.1914062 1.5625 C 7.5162302 1.5586197 6.9719339 2.0006966 6.96875 2.5546875 L 6.9628906 3.4101562 A 4.59375 4.59375 0 0 0 3.7324219 6.625 L 2.875 6.625 C 2.321 6.625 1.875 7.1685625 1.875 7.84375 C 1.875 8.5189375 2.321 9.0625 2.875 9.0625 L 3.7285156 9.0625 A 4.59375 4.59375 0 0 0 6.9121094 12.261719 L 6.90625 13.117188 C 6.9030661 13.671176 7.4459171 14.12112 8.1210938 14.125 C 8.7962698 14.12888 9.3405661 13.686804 9.34375 13.132812 L 9.3496094 12.277344 A 4.59375 4.59375 0 0 0 12.580078 9.0625 L 13.4375 9.0625 C 13.9915 9.0625 14.4375 8.5189375 14.4375 7.84375 C 14.4375 7.1685625 13.9915 6.625 13.4375 6.625 L 12.583984 6.625 A 4.59375 4.59375 0 0 0 9.4003906 3.4257812 L 9.40625 2.5703125 C 9.4094339 2.0163216 8.8665829 1.5663803 8.1914062 1.5625 z M 8.15625 4.15625 A 3.6875 3.6875 0 0 1 11.84375 7.84375 A 3.6875 3.6875 0 0 1 8.15625 11.53125 A 3.6875 3.6875 0 0 1 4.46875 7.84375 A 3.6875 3.6875 0 0 1 8.15625 4.15625 z " id="rect3986" style="fill:#575d6b;stroke:none;stroke-width:0.87447464"/></g></svg>