<?xml version="1.0" encoding="UTF-8"?>
<svg xmlns="http://www.w3.org/2000/svg" xmlns:xlink="http://www.w3.org/1999/xlink" viewBox="0 0 48 48" version="1.1" width="48px" height="48px">
<g id="surface1">
<path style=" fill:#ECEFF1;" d="M 6 10 C 6 7.800781 7.800781 6 10 6 L 38 6 C 40.199219 6 42 7.800781 42 10 L 42 38 C 42 40.199219 40.199219 42 38 42 L 10 42 C 7.800781 42 6 40.199219 6 38 Z "/>
<path style=" fill:#448AFF;" d="M 38 6 L 24 6 L 24 24 L 42 24 L 42 10 C 42 7.800781 40.199219 6 38 6 Z "/>
<path style=" fill:#37474F;" d="M 6 38 C 6 40.199219 7.800781 42 10 42 L 24 42 L 24 24 L 6 24 Z "/>
<path style=" fill:#B0BEC5;" d="M 24 24 L 24 42 L 38 42 C 40.199219 42 42 40.199219 42 38 L 42 24 Z "/>
</g>
</svg>
