<?xml version="1.0" encoding="UTF-8"?>
<svg width="306px" height="119px" viewBox="0 0 306 119" version="1.1" xmlns="http://www.w3.org/2000/svg" xmlns:xlink="http://www.w3.org/1999/xlink">
    <!-- Generator: Sketch 47 (45396) - http://www.bohemiancoding.com/sketch -->
    <title>devfactory_white</title>
    <desc>Created with Sketch.</desc>
    <defs></defs>
    <g id="Page-1" stroke="none" stroke-width="1" fill="none" fill-rule="evenodd">
        <g id="Artboard-2" transform="translate(-18.000000, -37.000000)" fill-rule="nonzero">
            <g id="devfactory_white" transform="translate(18.000000, 37.000000)">
                <path d="M70,66.1111111 L70,52.8888889 L56.7775441,49.0007103 C55.3534486,43.6695586 53.3495,38.8968798 50.5553886,34.2208016 L57.5556891,21.7777245 L48.2239581,12.4442846 L35.7796472,19.4442136 C31.2309541,16.7083004 26.4743551,14.6950812 21.0003004,13.2222222 L17.1113782,0 L10.8892227,0 L3.88892227,0 L0,13.2222222 L0,13.2222222 L0,32.6661339 L10.8892227,32.6661339 C25.6670673,32.3038813 37.8046268,44.4785895 38.1110777,59.8894216 C37.8046268,74.5183917 25.6670673,86.6961187 10.8892227,86.3338661 C10.6873256,86.6961187 10.6810164,86.6961187 10.8892227,86.3338661 L1.33423085e-15,86.3338661 L1.33423085e-15,105.777778 L1.33423085e-15,105.777778 L3.88892227,119 L10.8892227,119 L17.1113782,119 L21.0003004,105.777778 C26.4743551,104.304617 31.2309541,102.291096 35.7796472,99.5560883 L48.2239581,106.553602 L57.5556891,97.2225774 L50.5553886,84.7761796 C53.3495,80.1031202 55.3534486,75.3304414 56.7775441,69.9992897 L70,66.1111111 Z" id="Fill-20" fill="#FFFFFF"></path>
                <path d="M10.877103,71.1071772 L7.94305286,71.1071772 L7.94305286,48.85934 L10.877103,48.85934 L10.877103,48.8928228 C17.0519326,48.8928228 22.0580814,53.8635053 22.0580814,60 C22.0580814,66.1334508 17.0519326,71.1071772 10.877103,71.1071772 M11.0271137,41.0060878 L11.0271137,41 L0.000109763906,41 L0,78.969561 L10.8769933,78.969561 L10.8769933,79 C21.4381104,79 30,70.4923102 30,60 C30,49.5563922 21.5179942,41.088273 11.027004,41.0060878" id="Fill-22" fill="#D21E2D"></path>
                <g id="Group" transform="translate(84.000000, 21.000000)" fill="#FFFFFF">
                    <polygon id="Fill-1" points="54.68984 6.53542692 54.68984 0.102891423 30.6223467 0.102891423 30.6223467 31.1715769 54.68984 31.1715769 54.68984 24.7397615 37.0317067 24.7397615 37.0317067 18.8542615 52.42984 18.8542615 52.42984 12.4218385 37.0317067 12.4218385 37.0317067 6.53542692"></polygon>
                    <path d="M10.204,24.7397615 L6.88632,24.7397615 L6.88632,6.53542692 L10.204,6.53542692 L10.204,6.56064615 C15.2061333,6.56064615 19.26208,10.6297538 19.26208,15.6502038 C19.26208,20.6697423 15.2061333,24.7397615 10.204,24.7397615 M10.3275467,0.109080769 L10.3275467,0.102815462 L0.473946667,0.102815462 L0.473946667,3.31872315 L0.473946667,24.739877 L0.473946667,31.1716924 L10.204,31.1716924 L10.204,31.1960001 C18.7618667,31.1960001 25.6955467,24.2364039 25.6955467,15.6503193 C25.6955467,7.10464623 18.8251467,0.174827 10.3275467,0.109196231" id="Fill-2"></path>
                    <polygon id="Fill-4" points="77.85936 31.1715769 90.28936 0.102499462 82.81328 0.102499462 74.76768 20.9034 66.72208 0.102499462 59.0652 0.102499462 71.4952 31.1715769"></polygon>
                    <path d="M139.129467,69.9028462 C133.642187,69.9028462 129.194507,65.4393462 129.194507,59.9336538 C129.194507,54.4279615 133.642187,49.9644615 139.129467,49.9644615 C144.613733,49.9644615 149.061413,54.4279615 149.061413,59.9336538 C149.061413,65.4393462 144.613733,69.9028462 139.129467,69.9028462 M139.129467,43.5320385 C130.10152,43.5320385 122.785147,50.876 122.785147,59.9336538 C122.785147,68.9913077 130.10152,76.3352692 139.129467,76.3352692 C148.1544,76.3352692 155.473787,68.9913077 155.473787,59.9336538 C155.473787,50.876 148.1544,43.5320385 139.129467,43.5320385" id="Fill-6"></path>
                    <path d="M84.1933867,66.9190769 C82.3914133,68.7573462 79.8903467,69.9028462 77.11808,69.9028462 C71.6338133,69.9028462 67.1861333,65.4393462 67.1861333,59.9336538 C67.1861333,54.4279615 71.6338133,49.9644615 77.11808,49.9644615 C79.8330933,49.9644615 82.2859467,51.0643846 84.07888,52.8327692 L88.61696,48.2811538 C85.6638933,45.346 81.60192,43.5320385 77.11808,43.5320385 C68.0931467,43.5320385 60.77376,50.876 60.77376,59.9336538 C60.77376,68.9913077 68.0931467,76.3352692 77.11808,76.3352692 C81.6621867,76.3352692 85.7663467,74.4726923 88.7284533,71.4706923 L84.1933867,66.9190769 Z" id="Fill-8"></path>
                    <polygon id="Fill-10" points="202.707787 75.4814615 209.659547 75.4814615 209.659547 63.4613077 221.800267 44.3858462 213.90232 44.3858462 206.22736 57.117 198.688 44.3858462 190.558027 44.3858462 202.707787 63.595"></polygon>
                    <polygon id="Fill-12" points="102.7284 75.4814615 109.686187 75.4814615 109.686187 50.8182692 119.29872 50.8182692 119.29872 44.3858462 93.1128533 44.3858462 93.1128533 50.8182692 102.7284 50.8182692"></polygon>
                    <polygon id="Fill-14" points="24.5263733 50.8334615 24.5263733 44.398 0.461893333 44.398 0.461893333 75.4814615 6.87125333 75.4814615 6.87125333 63.1513846 22.2693867 63.1513846 22.2693867 56.7189615 6.87125333 56.7189615 6.87125333 50.8334615"></polygon>
                    <path d="M169.247733,59.5021923 L169.247733,50.8456154 L177.838747,50.8456154 L177.838747,50.8365 C180.225307,50.8365 182.156853,52.7750385 182.156853,55.1693462 C182.156853,57.5606154 180.225307,59.5021923 177.838747,59.5021923 L169.247733,59.5021923 L169.247733,59.5021923 Z M182.09056,65.0656154 C185.908453,63.4126923 188.584293,59.6055 188.584293,55.1693462 C188.584293,49.2139615 183.772,44.3858462 177.838747,44.3858462 L177.838747,44.4101538 L162.29296,44.3858462 L162.29296,44.4101538 L162.29296,75.4814615 L169.247733,75.4814615 L169.247733,65.9498077 L174.617493,65.9498077 L181.066027,75.4814615 L189.18696,75.4814615 L182.09056,65.0656154 L182.09056,65.0656154 Z" id="Fill-16"></path>
                    <path d="M41.6571733,52.5410769 L45.96624,63.1513846 L37.3450933,63.1513846 L41.6571733,52.5410769 Z M50.9774133,75.4814615 L58.23352,75.4814615 L45.0592267,44.4101538 L38.4329067,44.4101538 L25.2586133,75.4814615 L32.33392,75.4814615 L34.72952,69.5838077 L48.5818133,69.5838077 L50.9774133,75.4814615 L50.9774133,75.4814615 Z" id="Fill-18"></path>
                </g>
            </g>
        </g>
    </g>
</svg>
